<svg width="283" height="118" viewBox="0 0 283 118" fill="none" xmlns="http://www.w3.org/2000/svg">
<path d="M41.9525 2.1746C38.0871 4.57153 34.0966 10.5013 34.0966 13.8398C34.0966 16.6608 38.6588 16.5917 43.5685 13.6922C47.1424 11.5811 51.4879 4.83308 51.4879 1.39181C51.4879 -0.779079 45.986 -0.326968 41.9525 2.1746ZM19.2087 6.14831C18.1999 7.36266 17.3741 11.2131 17.3741 14.7029C17.3741 19.0933 18.1681 21.9236 19.9597 23.9021C22.1306 26.3027 22.8368 26.4709 24.3538 24.9539C27.4308 21.8751 27.9296 14.1368 25.3944 8.79372C24.1277 6.12216 22.6294 3.93633 22.069 3.93633C21.5066 3.93633 20.2194 4.93023 19.2106 6.14831H19.2087ZM11.9544 43.1878C7.07644 41.3158 4.34323 29.6058 7.43514 23.8274C8.60839 21.6341 9.22677 21.451 10.8689 22.8148C13.8581 25.2958 16.7071 31.4348 16.7071 35.3935C16.7071 40.3443 14.3999 44.1256 11.9544 43.1878ZM30.4199 24.0758C28.0286 25.6507 26.0707 27.4611 26.0707 28.1C26.0707 29.8841 30.844 32.0289 34.8103 32.0289C41.577 32.0289 50.9387 25.6806 48.2054 22.9474C47.8374 22.5775 44.6633 22.0357 41.151 21.7443C36.2488 21.3333 33.7584 21.8751 30.4199 24.0758ZM18.1289 43.2849C19.1844 42.0052 21.856 39.8549 24.0624 38.506C28.3761 35.8681 34.8906 35.3169 38.0554 37.3178C39.7218 38.3715 39.6228 38.988 37.3865 41.4952C32.574 46.8943 22.6014 49.6556 18.1289 46.8252C16.4605 45.7678 16.4605 45.3063 18.1289 43.2849ZM0.651611 50.8456C0.651611 53.1006 1.32417 56.2616 2.14619 57.8702C4.15827 61.8028 8.78213 65.4066 11.8647 65.4439C14.0561 65.4682 14.2841 64.7378 13.619 59.787C13.0734 55.7124 11.691 53.0595 8.73916 50.4234C3.23724 45.5062 0.651611 45.6389 0.651611 50.8456ZM17.4339 63.7999C18.7977 59.2956 24.7685 53.506 29.3625 52.2468C31.5988 51.6303 33.9658 51.6135 34.6234 52.2057C36.6318 54.0141 32.5871 61.6029 28.1837 64.2894C25.9175 65.67 22.366 66.8021 20.2941 66.8059C17.0061 66.8096 16.6399 66.4248 17.4358 63.7999H17.4339ZM30.4442 68.7937C25.3813 70.9945 20.7294 77.9293 20.7238 83.2874C20.7182 86.5624 21.1143 86.9435 23.7279 86.1943C25.3851 85.7217 28.6956 83.2799 31.0869 80.7727C34.3021 77.4025 35.4342 74.9906 35.4342 71.5138C35.4342 68.9263 35.2829 66.8339 35.098 66.8619C34.9167 66.8918 32.8187 67.7587 30.4442 68.7937ZM15.3004 86.8781C8.59718 86.8781 0.651611 79.5547 0.651611 73.3783C0.651611 70.845 1.17471 70.5946 4.91117 71.3419C9.8246 72.3246 13.5125 75.3063 16.1728 80.4533C18.7267 85.391 18.5249 86.8781 15.3004 86.8781ZM38.2982 80.6532C36.6037 82.4616 34.8943 86.3195 34.5057 89.2283C33.6744 95.4178 35.8602 100.522 38.8475 99.3747C43.8805 97.4429 46.6567 84.5783 43.0921 79.7041C41.5004 77.5258 41.179 77.5893 38.3001 80.6532H38.2982ZM48.665 102.448C48.4091 97.4896 49.0424 92.9797 50.3352 90.5566C51.0209 89.2676 52.1474 88.2158 52.8386 88.2158C55.0301 88.2158 58.178 95.9128 58.178 101.271C58.178 104.111 57.2757 107.6 56.1697 109.03C54.2006 111.578 54.1128 111.567 51.4879 108.469C50.0176 106.732 48.7454 104.023 48.665 102.448ZM12.726 93.4374C11.052 94.5621 11.2351 95.2739 13.9272 98.1398C15.6703 99.9949 19.119 102.181 21.5888 102.997C26.0184 104.458 34.0966 103.645 34.0966 101.738C34.0966 101.196 32.3349 99.0701 30.1845 97.0076C27.4849 94.422 24.4808 93.0843 20.4866 92.6864C17.3031 92.3688 13.8114 92.7088 12.726 93.4374ZM30.7637 114.743C27.2776 111.996 27.2066 111.737 29.5008 110.059C32.7758 107.664 42.6792 107.81 47.5403 110.322C49.7112 111.445 51.4879 112.732 51.4879 113.185C51.4879 115.397 46.1597 117.566 40.6316 117.603C36.2731 117.635 33.3717 116.792 30.7637 114.743ZM145.148 76.3992C145.148 78.4188 144.296 80.4196 143.089 81.8862C141.762 83.4891 139.543 84.6792 137.779 84.6792C137.589 84.6792 137.413 84.6474 137.294 84.6269L137.245 84.6194C137.196 84.3846 137.17 84.1456 137.167 83.9058C137.167 81.8862 138.194 79.8648 139.324 78.5981C140.731 76.9354 143.108 75.7061 145.088 75.6276C145.129 75.8444 145.148 76.1227 145.148 76.3992ZM139.943 86.2111C141.23 85.7011 142.764 85.0939 144.475 85.0939C145.583 85.0939 149.605 85.2135 152.239 88.9967C152.226 89.0056 152.212 89.0144 152.198 89.0228L152.15 89.0546C151.513 89.4731 148.021 91.7523 148.021 96.464C148.021 102.267 153.09 104.348 153.248 104.385C153.23 104.525 152.437 107.199 150.577 109.953C148.892 112.348 147.128 114.784 144.475 114.784C143.182 114.784 142.353 114.419 141.495 114.04C140.58 113.637 139.633 113.218 138.058 113.218C136.47 113.218 135.422 113.667 134.432 114.089C133.544 114.466 132.703 114.825 131.56 114.825C129.105 114.825 127.401 112.587 125.46 109.854C123.181 106.623 121.36 101.615 121.36 96.86C121.36 89.2545 126.31 85.2135 131.205 85.2135C132.636 85.2135 133.933 85.7329 135.084 86.1962C136.005 86.5642 136.832 86.8968 137.563 86.8968C138.211 86.8968 139.012 86.5792 139.943 86.2111ZM248.903 13.8398C248.903 10.5013 244.913 4.5734 241.047 2.1746C237.016 -0.328837 231.514 -0.779079 231.514 1.39181C231.514 4.83308 235.858 11.5811 239.433 13.6922C244.341 16.5917 248.903 16.6608 248.903 13.8398ZM265.626 14.7029C265.626 11.2131 264.8 7.36453 263.791 6.14644C262.781 4.93023 261.493 3.93446 260.933 3.93446C260.372 3.93446 258.874 6.12029 257.606 8.79372C255.07 14.1368 255.569 21.8751 258.648 24.9539C260.165 26.4709 260.869 26.3027 263.04 23.9021C264.832 21.9236 265.626 19.0951 265.626 14.7029ZM275.567 23.8274C278.659 29.6058 275.925 41.3139 271.047 43.1878C268.602 44.1256 266.295 40.3443 266.295 35.3935C266.295 31.4348 269.146 25.2958 272.133 22.8148C273.777 21.451 274.393 21.6341 275.567 23.8274ZM256.931 28.1C256.931 27.4611 254.973 25.6526 252.584 24.0758C249.243 21.8751 246.753 21.3351 241.851 21.7443C238.34 22.0357 235.164 22.5775 234.796 22.9474C232.063 25.6806 241.427 32.027 248.192 32.027C252.16 32.027 256.931 29.8841 256.931 28.1ZM258.938 38.506C261.144 39.8549 263.816 42.0052 264.871 43.2849C266.539 45.3063 266.539 45.7697 264.871 46.8252C260.4 49.6556 250.426 46.8962 245.613 41.4952C243.377 38.988 243.278 38.3715 244.945 37.3178C248.109 35.3169 254.624 35.8699 258.938 38.506ZM280.854 57.8683C281.676 56.2616 282.348 53.1006 282.348 50.8456C282.348 45.6426 279.763 45.5062 274.261 50.4234C271.309 53.0595 269.926 55.7124 269.381 59.787C268.716 64.7378 268.944 65.4682 271.135 65.4439C274.218 65.4066 278.842 61.8009 280.854 57.8683ZM253.637 52.2449C258.231 53.5079 264.204 59.2956 265.566 63.7999C266.36 66.4248 265.994 66.8115 262.706 66.8059C260.634 66.8021 257.082 65.67 254.816 64.2894C250.413 61.6029 246.368 54.0141 248.376 52.2057C249.036 51.6135 251.401 51.6284 253.637 52.2449ZM262.276 83.2874C262.271 77.9312 257.619 70.9945 252.556 68.7937C250.181 67.7606 248.083 66.8918 247.9 66.8638C247.717 66.8358 247.566 68.9263 247.566 71.5138C247.566 74.9887 248.698 77.4025 251.915 80.7727C254.304 83.2818 257.615 85.7217 259.272 86.1943C261.886 86.9435 262.282 86.5624 262.276 83.2874ZM282.348 73.3802C282.348 79.5565 274.403 86.8781 267.7 86.8781C264.477 86.8781 264.273 85.391 266.827 80.4533C269.489 75.3063 273.173 72.3265 278.089 71.3419C281.825 70.5946 282.348 70.8469 282.348 73.3802ZM248.494 89.2283C248.106 86.3195 246.398 82.4616 244.702 80.6532C241.821 77.5893 241.501 77.5258 239.91 79.7041C236.343 84.5802 239.119 97.4429 244.152 99.3765C247.142 100.522 249.326 95.4159 248.494 89.2283ZM232.668 90.5548C233.959 92.9797 234.593 97.4896 234.337 102.448C234.255 104.023 232.984 106.732 231.514 108.467C228.889 111.569 228.801 111.578 226.832 109.03C225.728 107.6 224.824 104.109 224.824 101.271C224.824 95.9128 227.972 88.2158 230.161 88.2158C230.853 88.2158 231.981 89.2676 232.668 90.5548ZM269.075 98.1398C271.765 95.2739 271.948 94.564 270.274 93.4374C269.189 92.7088 265.697 92.3707 262.515 92.6864C258.521 93.0825 255.515 94.422 252.815 97.0076C250.665 99.0701 248.903 101.196 248.903 101.738C248.903 103.644 256.982 104.458 261.411 102.997C263.883 102.181 267.33 99.9968 269.075 98.1398ZM253.499 110.059C255.793 111.737 255.722 111.998 252.236 114.743C249.63 116.792 246.727 117.635 242.368 117.603C236.84 117.566 231.514 115.398 231.514 113.185C231.514 112.734 233.289 111.447 235.46 110.322C240.321 107.81 250.224 107.662 253.499 110.059Z" fill="#94A3B8"/>
<path d="M87.6923 30.3418V29.1275V28.5016C87.6923 27.8104 87.82 27.2156 88.0753 26.7174C88.3307 26.213 88.67 25.774 89.0935 25.4003C89.517 25.0267 89.9809 24.6966 90.4853 24.4102C90.996 24.1175 91.5004 23.8435 91.9986 23.5882C92.503 23.3266 92.967 23.0588 93.3904 22.7848C93.8139 22.5046 94.1533 22.1932 94.4086 21.8507C94.6702 21.5082 94.8009 21.1003 94.8009 20.627C94.8009 20.023 94.5861 19.531 94.1564 19.1511C93.7329 18.765 93.1569 18.572 92.4283 18.572C91.6561 18.572 91.0178 18.793 90.5134 19.2352C90.0152 19.6773 89.7194 20.3001 89.626 21.1034H87.4214C87.4339 20.2814 87.6301 19.5341 88.0099 18.8615C88.3898 18.189 88.9534 17.6534 89.7007 17.2549C90.448 16.8501 91.379 16.6477 92.4937 16.6477C93.4589 16.6477 94.2903 16.8158 94.9878 17.1521C95.6915 17.4822 96.2332 17.9461 96.6131 18.544C96.9992 19.1356 97.1923 19.8268 97.1923 20.6177C97.1923 21.3089 97.0646 21.9005 96.8093 22.3925C96.5602 22.8845 96.227 23.311 95.8098 23.6722C95.3988 24.0272 94.9442 24.3417 94.446 24.6157C93.954 24.8897 93.4589 25.1481 92.9607 25.391C92.4688 25.6276 92.0142 25.8767 91.5969 26.1383C91.1859 26.3936 90.8528 26.6863 90.5974 27.0164C90.3483 27.3464 90.2238 27.7418 90.2238 28.2027V28.3988H97.2203V30.3418H87.6923ZM104.015 16.6477C105.559 16.6477 106.78 17.2424 107.677 18.4319C108.579 19.6151 109.031 21.3432 109.031 23.6162C109.031 25.8767 108.583 27.5986 107.686 28.7818C106.795 29.9588 105.569 30.5473 104.005 30.5473C102.442 30.5473 101.212 29.9588 100.316 28.7818C99.4252 27.6048 98.9799 25.8892 98.9799 23.6349C98.9799 22.1154 99.1854 20.8388 99.5964 19.805C100.007 18.765 100.59 17.9804 101.343 17.451C102.097 16.9155 102.987 16.6477 104.015 16.6477ZM104.015 28.6511C104.893 28.6511 105.547 28.2618 105.976 27.4834C106.406 26.705 106.621 25.419 106.621 23.6255C106.621 21.7947 106.403 20.4807 105.967 19.6836C105.531 18.8865 104.877 18.4879 104.005 18.4879C103.134 18.4879 102.474 18.8896 102.025 19.6929C101.583 20.4962 101.362 21.8071 101.362 23.6255C101.362 25.4128 101.583 26.6988 102.025 27.4834C102.474 28.2618 103.137 28.6511 104.015 28.6511ZM110.99 30.3418V29.1275V28.5016C110.99 27.8104 111.118 27.2156 111.373 26.7174C111.629 26.213 111.968 25.774 112.392 25.4003C112.815 25.0267 113.279 24.6966 113.783 24.4102C114.294 24.1175 114.798 23.8435 115.297 23.5882C115.801 23.3266 116.265 23.0588 116.689 22.7848C117.112 22.5046 117.451 22.1932 117.707 21.8507C117.968 21.5082 118.099 21.1003 118.099 20.627C118.099 20.023 117.884 19.531 117.454 19.1511C117.031 18.765 116.455 18.572 115.726 18.572C114.954 18.572 114.316 18.793 113.811 19.2352C113.313 19.6773 113.017 20.3001 112.924 21.1034H110.72C110.732 20.2814 110.928 19.5341 111.308 18.8615C111.688 18.189 112.251 17.6534 112.999 17.2549C113.746 16.8501 114.677 16.6477 115.792 16.6477C116.757 16.6477 117.588 16.8158 118.286 17.1521C118.99 17.4822 119.531 17.9461 119.911 18.544C120.297 19.1356 120.49 19.8268 120.49 20.6177C120.49 21.3089 120.363 21.9005 120.107 22.3925C119.858 22.8845 119.525 23.311 119.108 23.6722C118.697 24.0272 118.242 24.3417 117.744 24.6157C117.252 24.8897 116.757 25.1481 116.259 25.391C115.767 25.6276 115.312 25.8767 114.895 26.1383C114.484 26.3936 114.151 26.6863 113.896 27.0164C113.646 27.3464 113.522 27.7418 113.522 28.2027V28.3988H120.518V30.3418H110.99ZM128.471 16.8345H130.732V25.2042H132.89V27.1378H130.732V30.3418H128.527L128.537 27.1378H122.25V25.2042L128.471 16.8345ZM124.38 25.2042H128.518V19.6555L124.38 25.2042ZM154.78 16.8345L150.81 30.3418H148.895L146.168 20.7671L143.403 30.3418H141.534L137.592 16.8345H139.834L142.571 26.5867L145.317 16.8345H147.018L149.783 26.5867L152.529 16.8345H154.78ZM158.804 20.6831V30.3418H156.619V20.6831H158.804ZM158.832 16.8439V18.9923H156.581V16.8439H158.832ZM161.641 30.3418V20.6831H163.864V22.0656C164.014 21.8165 164.216 21.5767 164.472 21.3463C164.733 21.1159 165.054 20.9291 165.434 20.7858C165.814 20.6426 166.259 20.571 166.77 20.571C167.367 20.571 167.922 20.6893 168.432 20.9259C168.949 21.1626 169.363 21.5331 169.675 22.0375C169.992 22.542 170.151 23.1927 170.151 23.9898V30.3418H167.872V24.2607C167.872 23.6255 167.697 23.1554 167.349 22.8502C167 22.5388 166.561 22.3832 166.032 22.3832C165.67 22.3832 165.328 22.4454 165.004 22.57C164.68 22.6883 164.416 22.872 164.21 23.1211C164.011 23.364 163.911 23.6691 163.911 24.0365V30.3418H161.641ZM172.588 30.3418V20.6831H174.811V22.0656C174.961 21.8165 175.163 21.5767 175.418 21.3463C175.68 21.1159 176 20.9291 176.38 20.7858C176.76 20.6426 177.206 20.571 177.716 20.571C178.314 20.571 178.868 20.6893 179.379 20.9259C179.896 21.1626 180.31 21.5331 180.621 22.0375C180.939 22.542 181.098 23.1927 181.098 23.9898V30.3418H178.818V24.2607C178.818 23.6255 178.644 23.1554 178.295 22.8502C177.947 22.5388 177.508 22.3832 176.978 22.3832C176.617 22.3832 176.275 22.4454 175.951 22.57C175.627 22.6883 175.362 22.872 175.157 23.1211C174.957 23.364 174.858 23.6691 174.858 24.0365V30.3418H172.588ZM185.319 26.0355C185.312 26.5835 185.4 27.0693 185.58 27.4928C185.761 27.9162 186.029 28.2494 186.384 28.4923C186.739 28.7289 187.178 28.8472 187.701 28.8472C188.236 28.8472 188.7 28.7289 189.092 28.4923C189.491 28.2494 189.756 27.882 189.886 27.39H191.97C191.857 28.0626 191.59 28.6324 191.166 29.0994C190.743 29.5665 190.229 29.9214 189.625 30.1643C189.027 30.4072 188.404 30.5286 187.757 30.5286C186.823 30.5286 186.001 30.3325 185.291 29.9401C184.587 29.5416 184.036 28.9749 183.637 28.24C183.245 27.5052 183.049 26.6303 183.049 25.6152C183.049 24.625 183.229 23.747 183.591 22.981C183.952 22.2088 184.472 21.6016 185.151 21.1595C185.836 20.7173 186.658 20.4962 187.617 20.4962C188.569 20.4962 189.37 20.6986 190.017 21.1034C190.671 21.5082 191.163 22.0749 191.493 22.8035C191.829 23.5259 191.998 24.3728 191.998 25.3443V26.0355H185.319ZM185.319 24.625H189.849C189.849 24.158 189.768 23.7376 189.606 23.364C189.444 22.9841 189.195 22.6852 188.859 22.4672C188.529 22.243 188.112 22.1309 187.607 22.1309C187.109 22.1309 186.689 22.2524 186.346 22.4952C186.004 22.7381 185.745 23.0526 185.571 23.4387C185.397 23.8186 185.312 24.214 185.319 24.625ZM194.116 30.3418V20.6831H196.293V22.7755C196.448 22.296 196.669 21.8881 196.956 21.5518C197.249 21.2093 197.591 20.9477 197.983 20.7671C198.376 20.5865 198.802 20.4962 199.263 20.4962C199.375 20.4962 199.484 20.5025 199.59 20.5149C199.696 20.5274 199.774 20.5492 199.824 20.5803V22.7568C199.755 22.7257 199.665 22.7039 199.553 22.6914C199.447 22.679 199.354 22.6727 199.273 22.6727C198.806 22.6354 198.391 22.654 198.03 22.7288C197.675 22.8035 197.373 22.9312 197.124 23.1118C196.881 23.2861 196.698 23.5103 196.573 23.7843C196.448 24.0521 196.386 24.3666 196.386 24.7278V30.3418H194.116Z" fill="#64748B"/>
<path d="M51.7292 54.6289L56.5866 41.1216H59.0433L63.8913 54.6289H61.6121L60.4071 51.2381H55.2508L54.0178 54.6289H51.7292ZM55.7739 49.2204H59.8466L57.8196 43.3355L55.7739 49.2204ZM65.8109 57.6367V44.9702H68.0808L68.0995 46.4928C68.2241 46.2811 68.3829 46.0724 68.5759 45.8669C68.7752 45.6614 69.0025 45.4777 69.2578 45.3158C69.5194 45.1539 69.8089 45.0262 70.1265 44.9328C70.4441 44.8332 70.7929 44.7834 71.1727 44.7834C71.9138 44.7834 72.5708 44.9608 73.1437 45.3158C73.7167 45.6645 74.165 46.2032 74.4889 46.9318C74.8189 47.6604 74.9839 48.5821 74.9839 49.6968C74.9839 50.8364 74.8158 51.7861 74.4795 52.5458C74.1432 53.3056 73.6731 53.8754 73.069 54.2553C72.4649 54.6289 71.7644 54.8157 70.9672 54.8157C70.5998 54.8157 70.2635 54.7659 69.9584 54.6663C69.6595 54.5666 69.3917 54.4296 69.1551 54.2553C68.9184 54.0809 68.7098 53.891 68.5292 53.6855C68.3548 53.4799 68.2085 53.2651 68.0902 53.0409V57.6367H65.8109ZM70.4628 53.1156C71.1478 53.1156 71.7145 52.8448 72.1629 52.303C72.6113 51.755 72.8355 50.8987 72.8355 49.7342C72.8355 48.7253 72.6237 47.9313 72.2003 47.3522C71.783 46.7668 71.2039 46.4741 70.4628 46.4741C69.6657 46.4741 69.0679 46.7824 68.6693 47.3989C68.2708 48.0092 68.0715 48.7876 68.0715 49.7342C68.0715 50.3444 68.1587 50.908 68.333 51.4249C68.5136 51.9355 68.7783 52.3466 69.127 52.6579C69.482 52.9631 69.9273 53.1156 70.4628 53.1156ZM76.9948 57.6367V44.9702H79.2646L79.2833 46.4928C79.4079 46.2811 79.5667 46.0724 79.7597 45.8669C79.959 45.6614 80.1863 45.4777 80.4416 45.3158C80.7032 45.1539 80.9928 45.0262 81.3104 44.9328C81.628 44.8332 81.9767 44.7834 82.3566 44.7834C83.0976 44.7834 83.7546 44.9608 84.3275 45.3158C84.9005 45.6645 85.3488 46.2032 85.6727 46.9318C86.0027 47.6604 86.1677 48.5821 86.1677 49.6968C86.1677 50.8364 85.9996 51.7861 85.6633 52.5458C85.327 53.3056 84.8569 53.8754 84.2528 54.2553C83.6488 54.6289 82.9482 54.8157 82.1511 54.8157C81.7836 54.8157 81.4474 54.7659 81.1422 54.6663C80.8433 54.5666 80.5755 54.4296 80.3389 54.2553C80.1022 54.0809 79.8936 53.891 79.713 53.6855C79.5387 53.4799 79.3923 53.2651 79.274 53.0409V57.6367H76.9948ZM81.6466 53.1156C82.3317 53.1156 82.8983 52.8448 83.3467 52.303C83.7951 51.755 84.0193 50.8987 84.0193 49.7342C84.0193 48.7253 83.8075 47.9313 83.3841 47.3522C82.9668 46.7668 82.3877 46.4741 81.6466 46.4741C80.8495 46.4741 80.2517 46.7824 79.8531 47.3989C79.4546 48.0092 79.2553 48.7876 79.2553 49.7342C79.2553 50.3444 79.3425 50.908 79.5169 51.4249C79.6975 51.9355 79.9621 52.3466 80.3109 52.6579C80.6658 52.9631 81.1111 53.1156 81.6466 53.1156ZM90.9622 54.769C90.3395 54.769 89.8413 54.6912 89.4676 54.5355C89.094 54.3798 88.8138 54.1712 88.6269 53.9096C88.4401 53.6481 88.3187 53.3554 88.2626 53.0316C88.2066 52.7015 88.1786 52.3652 88.1786 52.0227V40.748H90.4018V51.7612C90.4018 52.1784 90.4858 52.5022 90.654 52.7327C90.8283 52.9631 91.1086 53.097 91.4947 53.1343L91.9804 53.153V54.5822C91.8123 54.632 91.641 54.6756 91.4666 54.713C91.2923 54.7503 91.1241 54.769 90.9622 54.769ZM95.6732 50.3226C95.667 50.8707 95.7542 51.3564 95.9348 51.7799C96.1154 52.2033 96.3831 52.5365 96.7381 52.7794C97.0931 53.016 97.5321 53.1343 98.0552 53.1343C98.5908 53.1343 99.0547 53.016 99.447 52.7794C99.8456 52.5365 100.11 52.1691 100.241 51.6771H102.324C102.212 52.3497 101.944 52.9195 101.521 53.3865C101.097 53.8536 100.584 54.2086 99.9795 54.4514C99.3816 54.6943 98.7589 54.8157 98.1112 54.8157C97.1771 54.8157 96.3551 54.6196 95.6452 54.2272C94.9415 53.8287 94.3904 53.262 93.9918 52.5272C93.5995 51.7923 93.4033 50.9174 93.4033 49.9023C93.4033 48.9121 93.5839 48.0341 93.9451 47.2681C94.3063 46.4959 94.8263 45.8887 95.5051 45.4466C96.1901 45.0044 97.0121 44.7834 97.9711 44.7834C98.9239 44.7834 99.7242 44.9857 100.372 45.3905C101.026 45.7953 101.518 46.362 101.848 47.0906C102.184 47.813 102.352 48.6599 102.352 49.6314V50.3226H95.6732ZM95.6732 48.9121H100.204C100.204 48.4451 100.123 48.0247 99.9608 47.6511C99.7989 47.2712 99.5498 46.9723 99.2135 46.7543C98.8834 46.5301 98.4662 46.4181 97.9618 46.4181C97.4636 46.4181 97.0432 46.5395 96.7007 46.7824C96.3582 47.0252 96.0998 47.3397 95.9254 47.7258C95.7511 48.1057 95.667 48.5011 95.6732 48.9121ZM113.706 54.8157C113.052 54.8157 112.414 54.7348 111.791 54.5729C111.168 54.4047 110.601 54.1587 110.091 53.8349C109.586 53.5049 109.166 53.097 108.83 52.6112C108.493 52.1193 108.288 51.5463 108.213 50.8925H110.567C110.667 51.3471 110.863 51.73 111.156 52.0414C111.448 52.3528 111.813 52.5894 112.249 52.7513C112.691 52.9133 113.173 52.9942 113.696 52.9942C114.257 52.9942 114.761 52.9195 115.21 52.77C115.664 52.6206 116.022 52.4026 116.284 52.1161C116.552 51.8297 116.686 51.4778 116.686 51.0606C116.686 50.6932 116.589 50.3818 116.396 50.1265C116.203 49.8712 115.932 49.6625 115.583 49.5006C115.241 49.3325 114.839 49.1986 114.378 49.099L111.894 48.5572C110.891 48.3517 110.097 47.9531 109.512 47.3615C108.926 46.7699 108.627 45.9821 108.615 44.9982C108.609 44.1824 108.824 43.4725 109.259 42.8684C109.702 42.2581 110.303 41.788 111.062 41.4579C111.822 41.1216 112.681 40.9535 113.64 40.9535C114.761 40.9535 115.705 41.1372 116.471 41.5046C117.243 41.8658 117.825 42.3515 118.218 42.9618C118.616 43.5721 118.819 44.2416 118.825 44.9702H116.527C116.471 44.4346 116.309 44.008 116.041 43.6904C115.78 43.3728 115.443 43.1455 115.032 43.0085C114.621 42.8715 114.167 42.803 113.668 42.803C113.295 42.803 112.946 42.8466 112.622 42.9338C112.298 43.021 112.015 43.1487 111.772 43.3168C111.529 43.4849 111.339 43.6904 111.202 43.9333C111.072 44.17 111.006 44.4408 111.006 44.746C111.006 45.1819 111.149 45.5369 111.436 45.8109C111.729 46.0787 112.274 46.306 113.071 46.4928L115.499 47.0346C116.253 47.184 116.86 47.4082 117.321 47.7071C117.782 48.006 118.134 48.3486 118.376 48.7347C118.619 49.1145 118.781 49.5037 118.862 49.9023C118.943 50.3008 118.984 50.6807 118.984 51.0419C118.984 51.7456 118.766 52.3839 118.33 52.9568C117.9 53.5298 117.29 53.9844 116.499 54.3206C115.714 54.6507 114.783 54.8157 113.706 54.8157ZM126.456 46.5769H124.299L124.308 52.1161C124.308 52.4026 124.339 52.6143 124.401 52.7513C124.47 52.8821 124.576 52.9693 124.719 53.0129C124.868 53.0503 125.068 53.0689 125.317 53.0689H126.503V54.5075C126.378 54.5573 126.189 54.6009 125.933 54.6382C125.684 54.6818 125.348 54.7036 124.924 54.7036C124.158 54.7036 123.564 54.604 123.14 54.4047C122.723 54.1992 122.433 53.9096 122.271 53.536C122.11 53.1623 122.029 52.7171 122.029 52.2002V46.5769H120.459V44.9702H122.094L122.664 42.1025H124.299V44.9608H126.456V46.5769ZM132.415 54.8157C131.493 54.8157 130.69 54.6196 130.005 54.2272C129.32 53.8287 128.787 53.2589 128.407 52.5178C128.034 51.7767 127.847 50.8862 127.847 49.8462C127.847 48.8374 128.028 47.9531 128.389 47.1934C128.756 46.4336 129.282 45.842 129.967 45.4186C130.652 44.9951 131.471 44.7834 132.424 44.7834C133.346 44.7834 134.146 44.9857 134.825 45.3905C135.504 45.7953 136.027 46.3745 136.394 47.128C136.768 47.8815 136.955 48.7876 136.955 49.8462C136.955 50.824 136.777 51.6865 136.422 52.4337C136.073 53.1748 135.56 53.7571 134.881 54.1805C134.208 54.604 133.386 54.8157 132.415 54.8157ZM132.424 53.0876C132.947 53.0876 133.377 52.9444 133.713 52.6579C134.056 52.3715 134.308 51.9791 134.47 51.4809C134.638 50.9828 134.722 50.4161 134.722 49.7809C134.722 49.1893 134.647 48.6444 134.498 48.1462C134.355 47.648 134.112 47.2494 133.769 46.9505C133.433 46.6454 132.985 46.4928 132.424 46.4928C131.895 46.4928 131.456 46.6329 131.107 46.9131C130.765 47.1871 130.506 47.5732 130.332 48.0714C130.164 48.5634 130.08 49.1332 130.08 49.7809C130.08 50.3662 130.154 50.9111 130.304 51.4156C130.459 51.9138 130.708 52.3185 131.051 52.6299C131.393 52.935 131.851 53.0876 132.424 53.0876ZM138.971 54.6289V44.9702H141.147V47.0626C141.303 46.5831 141.524 46.1752 141.811 45.8389C142.103 45.4964 142.446 45.2348 142.838 45.0542C143.231 44.8737 143.657 44.7834 144.118 44.7834C144.23 44.7834 144.339 44.7896 144.445 44.802C144.551 44.8145 144.629 44.8363 144.678 44.8674V47.0439C144.61 47.0128 144.52 46.991 144.407 46.9785C144.302 46.9661 144.208 46.9598 144.127 46.9598C143.66 46.9225 143.246 46.9412 142.885 47.0159C142.53 47.0906 142.228 47.2183 141.979 47.3989C141.736 47.5732 141.552 47.7974 141.428 48.0714C141.303 48.3392 141.241 48.6537 141.241 49.0149V54.6289H138.971ZM148.089 50.3226C148.083 50.8707 148.17 51.3564 148.351 51.7799C148.531 52.2033 148.799 52.5365 149.154 52.7794C149.509 53.016 149.948 53.1343 150.471 53.1343C151.007 53.1343 151.471 53.016 151.863 52.7794C152.262 52.5365 152.526 52.1691 152.657 51.6771H154.74C154.628 52.3497 154.36 52.9195 153.937 53.3865C153.513 53.8536 153 54.2086 152.396 54.4514C151.798 54.6943 151.175 54.8157 150.527 54.8157C149.593 54.8157 148.771 54.6196 148.061 54.2272C147.358 53.8287 146.807 53.262 146.408 52.5272C146.016 51.7923 145.819 50.9174 145.819 49.9023C145.819 48.9121 146 48.0341 146.361 47.2681C146.722 46.4959 147.242 45.8887 147.921 45.4466C148.606 45.0044 149.428 44.7834 150.387 44.7834C151.34 44.7834 152.14 44.9857 152.788 45.3905C153.442 45.7953 153.934 46.362 154.264 47.0906C154.6 47.813 154.768 48.6599 154.768 49.6314V50.3226H148.089ZM148.089 48.9121H152.62C152.62 48.4451 152.539 48.0247 152.377 47.6511C152.215 47.2712 151.966 46.9723 151.63 46.7543C151.3 46.5301 150.882 46.4181 150.378 46.4181C149.88 46.4181 149.459 46.5395 149.117 46.7824C148.774 47.0252 148.516 47.3397 148.342 47.7258C148.167 48.1057 148.083 48.5011 148.089 48.9121ZM160.265 54.6289L165.122 41.1216H167.579L172.427 54.6289H170.148L168.943 51.2381H163.787L162.554 54.6289H160.265ZM164.31 49.2204H168.383L166.355 43.3355L164.31 49.2204ZM186.219 44.9702L183.156 54.6289H181.194L179.214 48.1929L177.28 54.6289H175.365L172.301 44.9702H174.347L176.365 51.6117H176.467L178.42 44.9702H180.082L182.091 51.6024H182.193L184.136 44.9702H186.219ZM190.293 54.8157C189.676 54.8157 189.122 54.7036 188.63 54.4794C188.144 54.249 187.761 53.9221 187.481 53.4986C187.207 53.0689 187.07 52.5489 187.07 51.9387C187.07 50.8738 187.453 50.0704 188.219 49.5287C188.991 48.9869 190.221 48.7035 191.909 48.6786L193.347 48.6412V47.9874C193.347 47.4767 193.195 47.0782 192.89 46.7917C192.591 46.499 192.124 46.3558 191.488 46.362C191.021 46.3682 190.592 46.4803 190.199 46.6983C189.813 46.91 189.558 47.2681 189.433 47.7725H187.5C187.537 47.1124 187.727 46.5613 188.07 46.1191C188.418 45.6708 188.895 45.3376 189.499 45.1196C190.103 44.8955 190.8 44.7834 191.591 44.7834C192.513 44.7834 193.263 44.9048 193.842 45.1477C194.421 45.3905 194.848 45.7424 195.122 46.2032C195.396 46.6578 195.533 47.2089 195.533 47.8566V54.6289H193.618L193.441 52.8915C193.092 53.6201 192.65 54.1245 192.114 54.4047C191.585 54.6787 190.978 54.8157 190.293 54.8157ZM191.031 53.2744C191.311 53.2744 191.588 53.2246 191.862 53.125C192.136 53.0191 192.385 52.879 192.609 52.7046C192.834 52.524 193.011 52.3248 193.142 52.1068C193.279 51.8888 193.347 51.6615 193.347 51.4249V49.9023L192.161 49.921C191.576 49.9272 191.065 49.9895 190.629 50.1078C190.193 50.2261 189.851 50.4161 189.601 50.6776C189.359 50.9329 189.237 51.2754 189.237 51.7051C189.237 52.1971 189.408 52.5832 189.751 52.8634C190.093 53.1374 190.52 53.2744 191.031 53.2744ZM198.192 54.6289V44.9702H200.369V47.0626C200.524 46.5831 200.745 46.1752 201.032 45.8389C201.325 45.4964 201.667 45.2348 202.059 45.0542C202.452 44.8737 202.878 44.7834 203.339 44.7834C203.451 44.7834 203.56 44.7896 203.666 44.802C203.772 44.8145 203.85 44.8363 203.9 44.8674V47.0439C203.831 47.0128 203.741 46.991 203.629 46.9785C203.523 46.9661 203.43 46.9598 203.349 46.9598C202.881 46.9225 202.467 46.9412 202.106 47.0159C201.751 47.0906 201.449 47.2183 201.2 47.3989C200.957 47.5732 200.774 47.7974 200.649 48.0714C200.524 48.3392 200.462 48.6537 200.462 49.0149V54.6289H198.192ZM209.067 54.8157C207.79 54.8157 206.788 54.3767 206.059 53.4986C205.33 52.6206 204.966 51.372 204.966 49.7528C204.966 48.744 205.112 47.869 205.405 47.128C205.704 46.3807 206.14 45.8047 206.713 45.3999C207.292 44.9889 208.008 44.7834 208.861 44.7834C209.26 44.7834 209.621 44.8332 209.945 44.9328C210.275 45.0262 210.568 45.1508 210.823 45.3065C211.078 45.4621 211.293 45.6334 211.467 45.8202C211.648 46.007 211.788 46.1939 211.888 46.3807V40.748H214.167V54.6289H212.486L212.233 52.6486C212.159 52.879 212.047 53.1219 211.897 53.3772C211.754 53.6263 211.558 53.8598 211.309 54.0778C211.066 54.2957 210.761 54.4732 210.393 54.6102C210.026 54.7472 209.584 54.8157 209.067 54.8157ZM209.534 53.1437C210.35 53.1437 210.944 52.879 211.318 52.3497C211.698 51.8141 211.888 50.9298 211.888 49.6968C211.882 48.9931 211.794 48.4015 211.626 47.922C211.464 47.4425 211.212 47.0813 210.87 46.8384C210.533 46.5955 210.097 46.4741 209.562 46.4741C208.877 46.4741 208.313 46.7263 207.871 47.2307C207.429 47.7352 207.208 48.5572 207.208 49.6968C207.208 50.8302 207.41 51.6896 207.815 52.2749C208.22 52.8541 208.793 53.1437 209.534 53.1437ZM220.38 54.8157C219.708 54.8157 219.07 54.7099 218.466 54.4981C217.868 54.2802 217.363 53.9408 216.952 53.4799C216.548 53.0191 216.292 52.4244 216.186 51.6958H218.185C218.273 52.0508 218.425 52.3403 218.643 52.5645C218.867 52.7887 219.132 52.9537 219.437 53.0596C219.742 53.1592 220.054 53.2091 220.371 53.2091C220.95 53.2091 221.417 53.1094 221.772 52.9101C222.134 52.7109 222.314 52.4026 222.314 51.9854C222.314 51.6802 222.214 51.4374 222.015 51.2568C221.816 51.0762 221.498 50.9392 221.062 50.8457L219.222 50.4254C218.406 50.2448 217.749 49.9459 217.251 49.5287C216.759 49.1114 216.51 48.5229 216.504 47.7632C216.498 47.1903 216.641 46.6796 216.934 46.2312C217.226 45.7829 217.662 45.431 218.241 45.1757C218.821 44.9141 219.537 44.7834 220.39 44.7834C221.517 44.7834 222.42 45.0356 223.099 45.54C223.778 46.0382 224.126 46.7512 224.145 47.6791H222.211C222.143 47.2619 221.947 46.938 221.623 46.7076C221.299 46.471 220.879 46.3527 220.362 46.3527C219.826 46.3527 219.387 46.4554 219.045 46.6609C218.702 46.8664 218.531 47.1809 218.531 47.6044C218.531 47.8971 218.662 48.1275 218.923 48.2956C219.185 48.4638 219.577 48.607 220.1 48.7253L221.838 49.1457C222.336 49.2702 222.744 49.4384 223.061 49.6501C223.379 49.8618 223.628 50.0953 223.809 50.3507C223.989 50.5998 224.114 50.8582 224.182 51.126C224.257 51.3875 224.294 51.6304 224.294 51.8546C224.294 52.4773 224.133 53.0098 223.809 53.4519C223.491 53.8878 223.04 54.2241 222.454 54.4608C221.869 54.6974 221.178 54.8157 220.38 54.8157Z" fill="#64748B"/>
</svg>
