<svg width="136" height="40" viewBox="0 0 136 40" fill="none" xmlns="http://www.w3.org/2000/svg">
<path d="M134.632 35.2677C134.632 35.771 134.533 36.2693 134.34 36.7343C134.147 37.1992 133.865 37.6216 133.509 37.9773C133.153 38.333 132.73 38.615 132.265 38.8073C131.8 38.9995 131.301 39.0982 130.798 39.0976H5.32899C4.31206 39.0987 3.33634 38.6958 2.61642 37.9776C1.89649 37.2593 1.49132 36.2846 1.48999 35.2677V4.72465C1.49131 3.70726 1.89633 2.73197 2.61611 2.01294C3.33589 1.29391 4.3116 0.889913 5.32899 0.889648H130.797C131.301 0.889648 131.799 0.988851 132.264 1.18159C132.73 1.37433 133.152 1.65683 133.508 2.01295C133.864 2.36908 134.147 2.79186 134.339 3.25713C134.532 3.72241 134.631 4.22108 134.631 4.72465L134.632 35.2677Z" fill="black"/>
<path d="M30.728 19.7838C30.699 16.5608 33.367 14.9928 33.489 14.9198C31.978 12.7168 29.636 12.4158 28.813 12.3918C26.846 12.1848 24.938 13.5688 23.936 13.5688C22.914 13.5688 21.371 12.4118 19.708 12.4458C17.568 12.4788 15.566 13.7178 14.468 15.6418C12.202 19.5648 13.892 25.3298 16.063 28.5008C17.149 30.0538 18.418 31.7878 20.079 31.7268C21.704 31.6598 22.311 30.6908 24.272 30.6908C26.215 30.6908 26.785 31.7268 28.479 31.6878C30.223 31.6598 31.321 30.1278 32.369 28.5608C33.624 26.7808 34.128 25.0278 34.148 24.9378C34.107 24.9238 30.761 23.6468 30.728 19.7838ZM27.528 10.3058C28.402 9.2128 29 7.7258 28.834 6.2168C27.569 6.2728 25.987 7.0918 25.076 8.1608C24.27 9.1028 23.55 10.6468 23.736 12.0988C25.157 12.2048 26.616 11.3818 27.528 10.3058Z" fill="white"/>
<path d="M54.2449 31.504H51.9739L50.7299 27.595H46.4059L45.2209 31.504H43.0099L47.2939 18.196H49.9399L54.2449 31.504ZM50.3549 25.955L49.2299 22.48C49.1109 22.125 48.8879 21.289 48.5589 19.973H48.5189C48.3195 20.8114 48.1088 21.6472 47.8869 22.48L46.7819 25.955H50.3549ZM65.262 26.588C65.262 28.22 64.8209 29.51 63.9389 30.457C63.1489 31.3 62.1679 31.721 60.9969 31.721C59.7329 31.721 58.8249 31.267 58.2719 30.359H58.2319V35.414H56.0999V25.067C56.0999 24.041 56.073 22.988 56.021 21.908H57.896L58.0149 23.429H58.055C58.766 22.283 59.8449 21.711 61.2929 21.711C62.4249 21.711 63.3699 22.158 64.1259 23.053C64.8839 23.949 65.262 25.127 65.262 26.588ZM63.09 26.666C63.09 25.732 62.88 24.962 62.458 24.356C61.997 23.724 61.3779 23.408 60.6019 23.408C60.0759 23.408 59.5979 23.584 59.1709 23.931C58.7429 24.281 58.4629 24.738 58.3319 25.304C58.2659 25.568 58.2329 25.784 58.2329 25.954V27.554C58.2329 28.252 58.4469 28.841 58.875 29.322C59.3029 29.803 59.8589 30.043 60.5429 30.043C61.3459 30.043 61.9709 29.733 62.4179 29.115C62.8659 28.496 63.09 27.68 63.09 26.666ZM76.2989 26.588C76.2989 28.22 75.8579 29.51 74.9749 30.457C74.1859 31.3 73.2049 31.721 72.0339 31.721C70.7699 31.721 69.8619 31.267 69.3099 30.359H69.2699V35.414H67.138V25.067C67.138 24.041 67.1109 22.988 67.0589 21.908H68.9339L69.053 23.429H69.0929C69.8029 22.283 70.882 21.711 72.331 21.711C73.462 21.711 74.407 22.158 75.165 23.053C75.92 23.949 76.2989 25.127 76.2989 26.588ZM74.1269 26.666C74.1269 25.732 73.9159 24.962 73.4939 24.356C73.0329 23.724 72.416 23.408 71.639 23.408C71.1148 23.4078 70.6076 23.5931 70.207 23.931C69.779 24.281 69.4999 24.738 69.3689 25.304C69.3039 25.568 69.2699 25.784 69.2699 25.954V27.554C69.2699 28.252 69.4839 28.841 69.9099 29.322C70.3379 29.802 70.894 30.043 71.58 30.043C72.383 30.043 73.008 29.733 73.455 29.115C73.903 28.496 74.1269 27.68 74.1269 26.666ZM88.639 27.772C88.639 28.904 88.246 29.825 87.457 30.536C86.59 31.313 85.3829 31.701 83.832 31.701C82.4 31.701 81.2519 31.425 80.3829 30.872L80.8769 29.095C81.813 29.661 82.84 29.945 83.959 29.945C84.762 29.945 85.3869 29.763 85.8359 29.401C86.2829 29.039 86.5059 28.553 86.5059 27.947C86.5059 27.407 86.3219 26.952 85.9529 26.583C85.5859 26.214 84.9729 25.871 84.1169 25.554C81.7869 24.685 80.623 23.412 80.623 21.738C80.623 20.644 81.0309 19.747 81.8479 19.049C82.6619 18.35 83.7479 18.001 85.1059 18.001C86.3169 18.001 87.3229 18.212 88.1259 18.633L87.5929 20.371C86.8429 19.963 85.9949 19.759 85.0459 19.759C84.2959 19.759 83.7099 19.944 83.29 20.312C83.1196 20.4626 82.9838 20.6483 82.8918 20.8563C82.7999 21.0642 82.7538 21.2896 82.7569 21.517C82.7569 22.043 82.9599 22.478 83.3679 22.82C83.7229 23.136 84.368 23.478 85.304 23.847C86.449 24.308 87.29 24.847 87.831 25.465C88.37 26.081 88.639 26.852 88.639 27.772ZM95.6879 23.508H93.3379V28.167C93.3379 29.352 93.7519 29.944 94.582 29.944C94.963 29.944 95.2789 29.911 95.5289 29.845L95.5879 31.464C95.1679 31.621 94.615 31.7 93.93 31.7C93.088 31.7 92.43 31.443 91.955 30.93C91.482 30.416 91.2439 29.554 91.2439 28.343V23.506H89.844V21.906H91.2439V20.149L93.3379 19.517V21.906H95.6879V23.508ZM106.291 26.627C106.291 28.102 105.869 29.313 105.027 30.26C104.144 31.235 102.972 31.721 101.511 31.721C100.103 31.721 98.9819 31.254 98.1459 30.32C97.3099 29.386 96.8919 28.207 96.8919 26.786C96.8919 25.299 97.3219 24.081 98.1849 23.134C99.0459 22.186 100.208 21.712 101.669 21.712C103.077 21.712 104.21 22.179 105.065 23.114C105.883 24.021 106.291 25.192 106.291 26.627ZM104.079 26.696C104.079 25.811 103.89 25.052 103.507 24.419C103.06 23.653 102.421 23.271 101.593 23.271C100.736 23.271 100.085 23.654 99.638 24.419C99.255 25.053 99.066 25.824 99.066 26.736C99.066 27.621 99.255 28.38 99.638 29.012C100.099 29.778 100.743 30.16 101.574 30.16C102.388 30.16 103.027 29.77 103.488 28.992C103.881 28.347 104.079 27.58 104.079 26.696ZM113.221 23.783C112.999 23.7429 112.774 23.7232 112.549 23.724C111.799 23.724 111.219 24.007 110.811 24.574C110.456 25.074 110.278 25.706 110.278 26.469V31.504H108.147L108.167 24.93C108.167 23.824 108.14 22.817 108.087 21.909H109.944L110.022 23.745H110.081C110.306 23.114 110.661 22.606 111.147 22.225C111.592 21.8921 112.132 21.7118 112.688 21.711C112.885 21.711 113.063 21.725 113.221 21.75V23.783ZM122.756 26.252C122.761 26.5761 122.735 26.8999 122.678 27.219H116.282C116.307 28.167 116.616 28.892 117.21 29.392C117.749 29.839 118.446 30.063 119.302 30.063C120.249 30.063 121.113 29.912 121.89 29.609L122.224 31.089C121.316 31.485 120.244 31.682 119.007 31.682C117.519 31.682 116.351 31.244 115.501 30.369C114.653 29.494 114.228 28.319 114.228 26.845C114.228 25.398 114.623 24.193 115.414 23.232C116.242 22.206 117.361 21.693 118.769 21.693C120.152 21.693 121.199 22.206 121.91 23.232C122.473 24.047 122.756 25.055 122.756 26.252ZM120.723 25.699C120.737 25.067 120.598 24.521 120.309 24.06C119.94 23.467 119.373 23.171 118.61 23.171C117.913 23.171 117.346 23.46 116.913 24.04C116.558 24.501 116.347 25.054 116.282 25.698L120.723 25.699Z" fill="white"/>
<path d="M49.65 10.0087C49.65 11.1857 49.297 12.0717 48.592 12.6667C47.939 13.2157 47.011 13.4907 45.809 13.4907C45.213 13.4907 44.703 13.4647 44.276 13.4127V6.98166C44.833 6.89166 45.433 6.84566 46.081 6.84566C47.226 6.84566 48.089 7.09466 48.671 7.59266C49.323 8.15566 49.65 8.96066 49.65 10.0087ZM48.545 10.0377C48.545 9.27466 48.343 8.68966 47.939 8.28166C47.535 7.87466 46.945 7.67066 46.168 7.67066C45.838 7.67066 45.557 7.69266 45.324 7.73866V12.6277C45.453 12.6477 45.689 12.6567 46.032 12.6567C46.834 12.6567 47.453 12.4337 47.889 11.9877C48.325 11.5417 48.545 10.8917 48.545 10.0377ZM55.509 11.0367C55.509 11.7617 55.302 12.3557 54.888 12.8217C54.454 13.3007 53.879 13.5397 53.161 13.5397C52.469 13.5397 51.918 13.3107 51.507 12.8507C51.097 12.3917 50.892 11.8127 50.892 11.1147C50.892 10.3847 51.103 9.78566 51.527 9.32066C51.951 8.85566 52.521 8.62266 53.239 8.62266C53.931 8.62266 54.487 8.85166 54.908 9.31066C55.308 9.75666 55.509 10.3327 55.509 11.0367ZM54.422 11.0707C54.422 10.6357 54.328 10.2627 54.141 9.95166C53.921 9.57566 53.608 9.38766 53.201 9.38766C52.78 9.38766 52.46 9.57566 52.24 9.95166C52.052 10.2627 51.959 10.6417 51.959 11.0897C51.959 11.5247 52.053 11.8977 52.24 12.2087C52.467 12.5847 52.783 12.7727 53.191 12.7727C53.591 12.7727 53.905 12.5817 54.131 12.1987C54.325 11.8817 54.422 11.5057 54.422 11.0707ZM63.365 8.71866L61.89 13.4327H60.93L60.319 11.3857C60.1667 10.8848 60.0402 10.3765 59.94 9.86266H59.921C59.8306 10.3786 59.704 10.8875 59.542 11.3857L58.893 13.4327H57.922L56.535 8.71866H57.612L58.145 10.9597C58.274 11.4897 58.38 11.9947 58.465 12.4727H58.484C58.562 12.0787 58.691 11.5767 58.873 10.9697L59.542 8.71966H60.396L61.037 10.9217C61.192 11.4587 61.318 11.9757 61.415 12.4737H61.444C61.515 11.9887 61.622 11.4717 61.764 10.9217L62.336 8.71966H63.365V8.71866ZM68.798 13.4327H67.75V10.7327C67.75 9.90066 67.434 9.48466 66.8 9.48466C66.656 9.48044 66.513 9.50914 66.3818 9.56858C66.2506 9.62803 66.1347 9.71664 66.043 9.82766C65.851 10.0527 65.7476 10.3399 65.752 10.6357V13.4317H64.704V10.0657C64.704 9.65166 64.691 9.20266 64.666 8.71666H65.587L65.636 9.45366H65.665C65.787 9.22466 65.969 9.03566 66.208 8.88466C66.492 8.70866 66.81 8.61966 67.158 8.61966C67.598 8.61966 67.964 8.76166 68.255 9.04666C68.617 9.39566 68.798 9.91666 68.798 10.6087V13.4327ZM71.688 13.4327H70.641V6.55566H71.688V13.4327ZM77.858 11.0367C77.858 11.7617 77.651 12.3557 77.237 12.8217C76.803 13.3007 76.227 13.5397 75.51 13.5397C74.817 13.5397 74.266 13.3107 73.856 12.8507C73.446 12.3917 73.241 11.8127 73.241 11.1147C73.241 10.3847 73.452 9.78566 73.876 9.32066C74.3 8.85566 74.87 8.62266 75.587 8.62266C76.28 8.62266 76.835 8.85166 77.257 9.31066C77.657 9.75666 77.858 10.3327 77.858 11.0367ZM76.77 11.0707C76.77 10.6357 76.676 10.2627 76.489 9.95166C76.27 9.57566 75.956 9.38766 75.55 9.38766C75.128 9.38766 74.808 9.57566 74.589 9.95166C74.401 10.2627 74.308 10.6417 74.308 11.0897C74.308 11.5247 74.402 11.8977 74.589 12.2087C74.816 12.5847 75.132 12.7727 75.54 12.7727C75.94 12.7727 76.253 12.5817 76.479 12.1987C76.674 11.8817 76.77 11.5057 76.77 11.0707ZM82.93 13.4327H81.989L81.911 12.8897H81.882C81.56 13.3227 81.101 13.5397 80.505 13.5397C80.06 13.5397 79.7 13.3967 79.429 13.1127C79.3073 12.9849 79.212 12.8343 79.1487 12.6695C79.0853 12.5048 79.0552 12.3291 79.06 12.1527C79.06 11.5767 79.3 11.1377 79.783 10.8337C80.265 10.5297 80.943 10.3807 81.816 10.3877V10.2997C81.816 9.67866 81.49 9.36866 80.837 9.36866C80.372 9.36866 79.962 9.48566 79.608 9.71766L79.395 9.02966C79.833 8.75866 80.374 8.62266 81.012 8.62266C82.244 8.62266 82.862 9.27266 82.862 10.5727V12.3087C82.862 12.7797 82.885 13.1547 82.93 13.4327ZM81.842 11.8127V11.0857C80.686 11.0657 80.108 11.3827 80.108 12.0357C80.108 12.2817 80.174 12.4657 80.309 12.5887C80.4497 12.7134 80.6331 12.7793 80.821 12.7727C81.051 12.7727 81.266 12.6997 81.462 12.5547C81.5809 12.4712 81.6777 12.36 81.7439 12.2307C81.8101 12.1014 81.8438 11.9579 81.842 11.8127ZM88.885 13.4327H87.955L87.906 12.6757H87.877C87.58 13.2517 87.074 13.5397 86.363 13.5397C85.795 13.5397 85.322 13.3167 84.947 12.8707C84.572 12.4247 84.385 11.8457 84.385 11.1347C84.385 10.3717 84.588 9.75366 84.996 9.28166C85.391 8.84166 85.875 8.62166 86.451 8.62166C87.084 8.62166 87.527 8.83466 87.779 9.26166H87.799V6.55566H88.848V12.1627C88.848 12.6217 88.86 13.0447 88.885 13.4327ZM87.799 11.4447V10.6587C87.8088 10.4774 87.7772 10.2962 87.7065 10.129C87.6358 9.9618 87.5279 9.81291 87.391 9.69366C87.1977 9.52334 86.9476 9.43165 86.69 9.43666C86.299 9.43666 85.993 9.59166 85.768 9.90266C85.545 10.2137 85.432 10.6107 85.432 11.0957C85.432 11.5617 85.539 11.9397 85.754 12.2307C85.981 12.5407 86.287 12.6957 86.67 12.6957C87.014 12.6957 87.289 12.5667 87.498 12.3077C87.7 12.0687 87.799 11.7807 87.799 11.4447ZM97.848 11.0367C97.848 11.7617 97.641 12.3557 97.227 12.8217C96.793 13.3007 96.219 13.5397 95.5 13.5397C94.809 13.5397 94.258 13.3107 93.846 12.8507C93.436 12.3917 93.231 11.8127 93.231 11.1147C93.231 10.3847 93.442 9.78566 93.866 9.32066C94.29 8.85566 94.86 8.62266 95.579 8.62266C96.27 8.62266 96.827 8.85166 97.247 9.31066C97.647 9.75666 97.848 10.3327 97.848 11.0367ZM96.762 11.0707C96.762 10.6357 96.668 10.2627 96.481 9.95166C96.26 9.57566 95.948 9.38766 95.54 9.38766C95.12 9.38766 94.8 9.57566 94.579 9.95166C94.391 10.2627 94.298 10.6417 94.298 11.0897C94.298 11.5247 94.392 11.8977 94.579 12.2087C94.806 12.5847 95.122 12.7727 95.53 12.7727C95.93 12.7727 96.245 12.5817 96.471 12.1987C96.664 11.8817 96.762 11.5057 96.762 11.0707ZM103.483 13.4327H102.436V10.7327C102.436 9.90066 102.12 9.48466 101.485 9.48466C101.174 9.48466 100.923 9.59866 100.729 9.82766C100.535 10.0567 100.438 10.3267 100.438 10.6357V13.4317H99.389V10.0657C99.389 9.65166 99.377 9.20266 99.352 8.71666H100.272L100.321 9.45366H100.35C100.478 9.21992 100.666 9.02377 100.893 8.88466C101.178 8.70866 101.495 8.61966 101.844 8.61966C102.283 8.61966 102.649 8.76166 102.94 9.04666C103.303 9.39566 103.483 9.91666 103.483 10.6087V13.4327ZM110.536 9.50366H109.382V11.7937C109.382 12.3757 109.587 12.6667 109.993 12.6667C110.181 12.6667 110.337 12.6507 110.46 12.6177L110.487 13.4127C110.28 13.4907 110.008 13.5297 109.673 13.5297C109.259 13.5297 108.937 13.4037 108.704 13.1517C108.47 12.8997 108.354 12.4757 108.354 11.8807V9.50366H107.665V8.71866H108.354V7.85466L109.381 7.54466V8.71766H110.535L110.536 9.50366ZM116.084 13.4327H115.035V10.7527C115.035 9.90766 114.719 9.48466 114.086 9.48466C113.6 9.48466 113.268 9.72966 113.086 10.2197C113.052 10.3423 113.035 10.4693 113.037 10.5967V13.4317H111.99V6.55566H113.037V9.39666H113.057C113.387 8.87966 113.86 8.62166 114.473 8.62166C114.907 8.62166 115.266 8.76366 115.551 9.04866C115.906 9.40366 116.084 9.93166 116.084 10.6297V13.4327ZM121.807 10.8527C121.807 11.0407 121.793 11.1987 121.768 11.3277H118.625C118.639 11.7937 118.789 12.1487 119.08 12.3947C119.346 12.6147 119.689 12.7247 120.109 12.7247C120.574 12.7247 120.998 12.6507 121.38 12.5017L121.544 13.2297C121.097 13.4237 120.571 13.5207 119.962 13.5207C119.232 13.5207 118.657 13.3057 118.241 12.8757C117.823 12.4457 117.616 11.8687 117.616 11.1447C117.616 10.4337 117.809 9.84166 118.198 9.36966C118.604 8.86566 119.153 8.61366 119.846 8.61366C120.524 8.61366 121.039 8.86566 121.387 9.36966C121.668 9.76966 121.807 10.2647 121.807 10.8527ZM120.807 10.5817C120.822 10.299 120.751 10.0186 120.604 9.77666C120.422 9.48566 120.145 9.33966 119.77 9.33966C119.607 9.33688 119.445 9.37438 119.3 9.44885C119.154 9.52333 119.029 9.63248 118.936 9.76666C118.758 10.0039 118.65 10.2863 118.625 10.5817H120.807Z" fill="white"/>
</svg>
