<svg width="55" height="57" viewBox="0 0 55 57" fill="none" xmlns="http://www.w3.org/2000/svg">
<path d="M39.6742 29.94C47.9419 29.94 54.6442 23.2377 54.6442 14.97C54.6442 6.7023 47.9419 0 39.6742 0C31.4065 0 24.7042 6.7023 24.7042 14.97C24.7042 23.2377 31.4065 29.94 39.6742 29.94Z" fill="url(#paint0_linear_2396_1912)"/>
<g filter="url(#filter0_b_2396_1912)">
<path d="M1.17957 22.0661C1.17957 16.6497 5.57046 12.2588 10.9869 12.2588H34.5245C39.941 12.2588 44.3319 16.6497 44.3319 22.0661V45.6037C44.3319 51.0202 39.941 55.4111 34.5245 55.4111H10.9869C5.57046 55.4111 1.17957 51.0202 1.17957 45.6037V22.0661Z" fill="url(#paint1_linear_2396_1912)" fill-opacity="0.5"/>
</g>
<path d="M0.889404 21.8073C0.889404 16.3909 5.2803 12 10.6967 12H35.2151C40.6315 12 45.0224 16.3909 45.0224 21.8073V46.3257C45.0224 51.7421 40.6315 56.133 35.2151 56.133H10.6967C5.2803 56.133 0.889404 51.7421 0.889404 46.3257V21.8073Z" fill="url(#paint2_linear_2396_1912)"/>
<path d="M17.0357 34.2601C17.043 36.9258 16.427 39.5563 15.2369 41.9417C15.1801 42.0653 15.099 42.1763 14.9985 42.2681C14.898 42.3598 14.7801 42.4304 14.6518 42.4758C14.5234 42.5211 14.3873 42.5401 14.2515 42.5318C14.1156 42.5235 13.9828 42.488 13.861 42.4275C13.7391 42.3669 13.6307 42.2824 13.5421 42.1791C13.4535 42.0758 13.3865 41.9558 13.3452 41.8261C13.3039 41.6964 13.289 41.5598 13.3015 41.4243C13.3139 41.2888 13.3535 41.1571 13.4178 41.0372C14.4671 38.9325 15.01 36.6118 15.0032 34.2601C15.0008 32.8887 15.308 31.5345 15.9019 30.2984C16.4957 29.0622 17.3609 27.9761 18.433 27.1209C18.6434 26.9525 18.9121 26.8745 19.18 26.9042C19.4479 26.9338 19.693 27.0687 19.8615 27.2791C20.0299 27.4895 20.1079 27.7582 20.0783 28.0261C20.0486 28.294 19.9137 28.5391 19.7033 28.7075C18.8693 29.3725 18.1962 30.2172 17.7343 31.1786C17.2724 32.1401 17.0336 33.1934 17.0357 34.2601ZM24.1494 33.2438C23.8799 33.2438 23.6214 33.3509 23.4308 33.5415C23.2403 33.7321 23.1332 33.9906 23.1332 34.2601C23.133 38.2194 22.1277 42.1138 20.2115 45.5786C20.0807 45.8144 20.0491 46.0925 20.1234 46.3517C20.1977 46.6109 20.372 46.8299 20.6078 46.9607C20.8436 47.0914 21.1217 47.1231 21.3809 47.0487C21.6401 46.9744 21.8592 46.8002 21.9899 46.5643C24.0727 42.7977 25.1654 38.5642 25.1657 34.2601C25.1657 33.9906 25.0586 33.7321 24.868 33.5415C24.6774 33.3509 24.419 33.2438 24.1494 33.2438ZM24.1494 29.1788C22.8018 29.1788 21.5094 29.7142 20.5564 30.6671C19.6035 31.62 19.0682 32.9124 19.0682 34.2601C19.0682 34.5296 19.1753 34.7881 19.3658 34.9787C19.5564 35.1693 19.8149 35.2763 20.0844 35.2763C20.354 35.2763 20.6124 35.1693 20.803 34.9787C20.9936 34.7881 21.1007 34.5296 21.1007 34.2601C21.1007 33.4515 21.4219 32.676 21.9936 32.1043C22.5654 31.5325 23.3409 31.2113 24.1494 31.2113C24.958 31.2113 25.7335 31.5325 26.3052 32.1043C26.877 32.676 27.1982 33.4515 27.1982 34.2601C27.2087 38.3009 26.3187 42.2933 24.5928 45.947C24.5358 46.068 24.5032 46.199 24.4969 46.3327C24.4906 46.4663 24.5107 46.5998 24.556 46.7257C24.6013 46.8516 24.6709 46.9673 24.7609 47.0662C24.8509 47.1652 24.9595 47.2454 25.0806 47.3024C25.2016 47.3593 25.3327 47.3919 25.4663 47.3982C25.5999 47.4046 25.7334 47.3845 25.8593 47.3392C25.9852 47.2939 26.1009 47.2243 26.1998 47.1342C26.2988 47.0442 26.379 46.9356 26.436 46.8146C28.2885 42.8893 29.2432 38.6005 29.2307 34.2601C29.2307 32.9124 28.6953 31.62 27.7424 30.6671C26.7895 29.7142 25.4971 29.1788 24.1494 29.1788ZM24.1494 21.0488C20.6467 21.0525 17.2885 22.4456 14.8118 24.9224C12.335 27.3992 10.9419 30.7574 10.9382 34.2601C10.9401 35.5291 10.7253 36.7892 10.303 37.9859C10.2132 38.2401 10.2281 38.5196 10.3444 38.7628C10.4606 39.006 10.6687 39.1931 10.9229 39.2829C11.1771 39.3727 11.4566 39.3578 11.6998 39.2416C11.9431 39.1253 12.1301 38.9172 12.2199 38.663C12.7185 37.2487 12.9724 35.7597 12.9707 34.2601C12.9707 31.2953 14.1484 28.4519 16.2449 26.3555C18.3413 24.2591 21.1846 23.0813 24.1494 23.0813C27.1142 23.0813 29.9576 24.2591 32.054 26.3555C34.1504 28.4519 35.3282 31.2953 35.3282 34.2601C35.3287 36.582 35.1036 38.8985 34.6562 41.1769C34.6303 41.3079 34.6305 41.4427 34.6567 41.5735C34.6829 41.7044 34.7346 41.8289 34.809 41.9398C34.8833 42.0507 34.9787 42.1458 35.0898 42.2198C35.2009 42.2938 35.3255 42.3452 35.4565 42.371C35.5214 42.3836 35.5873 42.39 35.6534 42.3901C35.8886 42.3898 36.1164 42.308 36.298 42.1586C36.4796 42.0092 36.6037 41.8014 36.6493 41.5707C37.1226 39.1626 37.3608 36.7142 37.3607 34.2601C37.3566 30.7575 35.9635 27.3995 33.4867 24.9228C31.01 22.4461 27.652 21.0529 24.1494 21.0488ZM19.8812 37.3304C19.6176 37.278 19.344 37.3321 19.1202 37.4809C18.8964 37.6297 18.7407 37.861 18.6871 38.1244C18.2747 40.1539 17.5364 42.1032 16.5009 43.8967C16.3661 44.1301 16.3296 44.4076 16.3994 44.668C16.4692 44.9284 16.6396 45.1504 16.8731 45.2851C17.1066 45.4199 17.384 45.4564 17.6444 45.3866C17.9048 45.3168 18.1268 45.1464 18.2615 44.9129C19.4059 42.9297 20.2211 40.7739 20.6751 38.5296C20.7018 38.3987 20.7025 38.2639 20.677 38.1327C20.6516 38.0016 20.6005 37.8768 20.5268 37.7654C20.453 37.654 20.358 37.5583 20.2473 37.4837C20.1365 37.409 20.0121 37.3569 19.8812 37.3304ZM24.1494 25.1138C23.7672 25.1139 23.3854 25.1377 23.0062 25.185C22.7437 25.2244 22.5071 25.3648 22.3469 25.5764C22.1867 25.7879 22.1156 26.0537 22.1487 26.317C22.1819 26.5803 22.3168 26.8202 22.5245 26.9853C22.7322 27.1505 22.9962 27.2279 23.2602 27.201C24.2614 27.0765 25.2776 27.166 26.2415 27.4637C27.2054 27.7615 28.0951 28.2605 28.8517 28.9279C29.6083 29.5952 30.2146 30.4157 30.6303 31.3349C31.046 32.2542 31.2617 33.2512 31.2632 34.2601C31.2629 35.5765 31.1814 36.8917 31.0193 38.198C31.0015 38.3309 31.0101 38.466 31.0447 38.5955C31.0793 38.725 31.1392 38.8464 31.2209 38.9526C31.3026 39.0589 31.4045 39.148 31.5208 39.2147C31.637 39.2814 31.7654 39.3244 31.8983 39.3413C31.9405 39.3464 31.9829 39.3489 32.0254 39.3489C32.2725 39.3484 32.511 39.2578 32.6962 39.0942C32.8814 38.9305 33.0006 38.7049 33.0315 38.4597C33.2028 37.069 33.2877 35.669 33.2855 34.2677C33.2849 31.8432 32.3227 29.518 30.61 27.802C28.8973 26.0859 26.5739 25.1192 24.1494 25.1138ZM31.5084 41.4056C31.3791 41.3722 31.2445 41.3645 31.1122 41.3832C30.98 41.4018 30.8527 41.4463 30.7377 41.5141C30.6227 41.5819 30.5221 41.6718 30.4419 41.7785C30.3616 41.8852 30.3031 42.0067 30.2698 42.136C30.0843 42.8588 29.8696 43.5842 29.6346 44.2955C29.5486 44.5504 29.5672 44.829 29.6863 45.0702C29.8053 45.3114 30.0152 45.4956 30.2698 45.5824C30.3741 45.6179 30.4836 45.6359 30.5937 45.6357C30.8067 45.6356 31.0142 45.5685 31.1869 45.4441C31.3597 45.3196 31.489 45.144 31.5566 44.9421C31.8107 44.1901 32.0381 43.4178 32.2362 42.6492C32.2703 42.5199 32.2785 42.3852 32.2604 42.2527C32.2423 42.1203 32.1983 41.9927 32.1308 41.8772C32.0633 41.7618 31.9736 41.6609 31.8671 41.5802C31.7605 41.4994 31.639 41.4405 31.5096 41.4069L31.5084 41.4056Z" fill="white"/>
<path fill-rule="evenodd" clip-rule="evenodd" d="M10.4965 11.8672C5.0801 11.8672 0.689209 16.2581 0.689209 21.6745V46.1929C0.689209 51.6093 5.0801 56.0002 10.4965 56.0002H35.0149C40.4313 56.0002 44.8222 51.6093 44.8222 46.1929V21.6745C44.8222 16.2581 40.4313 11.8672 35.0149 11.8672H10.4965ZM10.9869 12.3576C5.57047 12.3576 1.17958 16.7485 1.17958 22.1649V45.7025C1.17958 51.1189 5.57047 55.5098 10.9869 55.5098H34.5245C39.941 55.5098 44.3319 51.1189 44.3319 45.7025V22.1649C44.3319 16.7485 39.941 12.3576 34.5245 12.3576H10.9869Z" fill="url(#paint3_linear_2396_1912)"/>
<path fill-rule="evenodd" clip-rule="evenodd" d="M10.9869 12.3574C5.57046 12.3574 1.17957 16.7483 1.17957 22.1648V45.7024C1.17957 51.1188 5.57046 55.5097 10.9869 55.5097H34.5245C39.941 55.5097 44.3319 51.1188 44.3319 45.7024V22.1648C44.3319 16.7483 39.941 12.3574 34.5245 12.3574H10.9869ZM11.4661 12.8368C6.04964 12.8368 1.65874 17.2277 1.65874 22.6442V45.2228C1.65874 50.6393 6.04964 55.0302 11.4661 55.0302H34.0448C39.4612 55.0302 43.8521 50.6393 43.8521 45.2228V22.6442C43.8521 17.2277 39.4612 12.8368 34.0448 12.8368H11.4661Z" fill="white" fill-opacity="0.25"/>
<path d="M10.9869 12.3574C5.57046 12.3574 1.17957 16.7483 1.17957 22.1648V24.6166C1.17957 19.2002 5.57046 14.8093 10.9869 14.8093H34.5245C39.941 14.8093 44.3319 19.2002 44.3319 24.6166V22.1648C44.3319 16.7483 39.941 12.3574 34.5245 12.3574H10.9869Z" fill="white" fill-opacity="0.5"/>
<defs>
<filter id="filter0_b_2396_1912" x="-2.82043" y="8.25879" width="51.1523" height="51.1523" filterUnits="userSpaceOnUse" color-interpolation-filters="sRGB">
<feFlood flood-opacity="0" result="BackgroundImageFix"/>
<feGaussianBlur in="BackgroundImageFix" stdDeviation="2"/>
<feComposite in2="SourceAlpha" operator="in" result="effect1_backgroundBlur_2396_1912"/>
<feBlend mode="normal" in="SourceGraphic" in2="effect1_backgroundBlur_2396_1912" result="shape"/>
</filter>
<linearGradient id="paint0_linear_2396_1912" x1="39.6751" y1="-0.00226818" x2="39.6751" y2="29.939" gradientUnits="userSpaceOnUse">
<stop stop-color="#8B3DFF"/>
<stop offset="0.3846" stop-color="#8B3DFF"/>
<stop offset="0.7609" stop-color="#742AE1"/>
<stop offset="1" stop-color="#601FC2"/>
</linearGradient>
<linearGradient id="paint1_linear_2396_1912" x1="22.757" y1="12.2555" x2="22.757" y2="55.4096" gradientUnits="userSpaceOnUse">
<stop stop-color="#8B3DFF"/>
<stop offset="0.3846" stop-color="#8B3DFF"/>
<stop offset="0.7609" stop-color="#742AE1"/>
<stop offset="1" stop-color="#601FC2"/>
</linearGradient>
<linearGradient id="paint2_linear_2396_1912" x1="22.969" y1="11.9764" x2="22.969" y2="56.1279" gradientUnits="userSpaceOnUse">
<stop stop-color="white" stop-opacity="0.9"/>
<stop offset="0.0433788" stop-color="white" stop-opacity="0.8619"/>
<stop offset="0.455" stop-color="white" stop-opacity="0.5"/>
<stop offset="0.8175" stop-color="#F4F4F4" stop-opacity="0.2074"/>
<stop offset="0.9505" stop-color="#EFEFEF" stop-opacity="0.1"/>
</linearGradient>
<linearGradient id="paint3_linear_2396_1912" x1="23.0594" y1="56.0434" x2="23.0594" y2="12.6942" gradientUnits="userSpaceOnUse">
<stop stop-color="#8B3DFF" stop-opacity="0.9"/>
<stop offset="0.2822" stop-color="#8B3DFF" stop-opacity="0.5"/>
<stop offset="0.7091" stop-color="#8B3DFF" stop-opacity="0.38"/>
<stop offset="1" stop-color="#8B3DFF" stop-opacity="0.2"/>
</linearGradient>
</defs>
</svg>
