<svg width="282" height="118" viewBox="0 0 282 118" fill="none" xmlns="http://www.w3.org/2000/svg">
<path d="M41.3009 2.1746C37.4355 4.57153 33.445 10.5013 33.445 13.8398C33.445 16.6608 38.0072 16.5917 42.9169 13.6922C46.4908 11.5811 50.8363 4.83308 50.8363 1.39181C50.8363 -0.779079 45.3344 -0.326969 41.3009 2.1746ZM18.5571 6.14831C17.5482 7.36266 16.7225 11.2131 16.7225 14.7029C16.7225 19.0933 17.5165 21.9236 19.3081 23.9021C21.479 26.3027 22.1852 26.4709 23.7022 24.9539C26.7792 21.8751 27.278 14.1368 24.7428 8.79372C23.4761 6.12216 21.9778 3.93633 21.4173 3.93633C20.855 3.93633 19.5678 4.93023 18.559 6.14831H18.5571ZM11.3028 43.1878C6.42483 41.3158 3.69161 29.6058 6.78353 23.8274C7.95677 21.6341 8.57516 21.451 10.2173 22.8148C13.2065 25.2958 16.0555 31.4348 16.0555 35.3935C16.0555 40.3443 13.7483 44.1256 11.3028 43.1878ZM29.7683 24.0758C27.377 25.6507 25.4191 27.461 25.4191 28.1C25.4191 29.8841 30.1924 32.0289 34.1586 32.0289C40.9254 32.0289 50.287 25.6806 47.5538 22.9474C47.1858 22.5775 44.0117 22.0357 40.4994 21.7443C35.5972 21.3333 33.1068 21.8751 29.7683 24.0758ZM17.4773 43.2849C18.5328 42.0052 21.2044 39.8549 23.4107 38.506C27.7245 35.8681 34.239 35.3169 37.4038 37.3178C39.0702 38.3715 38.9712 38.988 36.7349 41.4952C31.9224 46.8943 21.9498 49.6556 17.4773 46.8252C15.8089 45.7678 15.8089 45.3063 17.4773 43.2849ZM0 50.8456C0 53.1006 0.672561 56.2616 1.49458 57.8702C3.50666 61.8028 8.13052 65.4066 11.2131 65.4439C13.4045 65.4682 13.6324 64.7378 12.9674 59.787C12.4218 55.7124 11.0393 53.0595 8.08755 50.4234C2.58562 45.5062 0 45.6389 0 50.8456ZM16.7823 63.7999C18.1461 59.2956 24.1169 53.506 28.7109 52.2468C30.9472 51.6303 33.3142 51.6135 33.9718 52.2057C35.9802 54.0141 31.9355 61.6029 27.532 64.2894C25.2659 65.67 21.7144 66.8021 19.6425 66.8059C16.3544 66.8096 15.9883 66.4248 16.7841 63.7999H16.7823ZM29.7926 68.7937C24.7297 70.9945 20.0778 77.9293 20.0722 83.2874C20.0666 86.5624 20.4627 86.9435 23.0763 86.1943C24.7334 85.7217 28.0439 83.2799 30.4353 80.7727C33.6505 77.4025 34.7826 74.9906 34.7826 71.5138C34.7826 68.9263 34.6313 66.8339 34.4464 66.8619C34.2651 66.8918 32.1671 67.7587 29.7926 68.7937ZM14.6488 86.8781C7.94557 86.8781 0 79.5547 0 73.3783C0 70.845 0.523103 70.5947 4.25955 71.3419C9.17299 72.3246 12.8609 75.3063 15.5212 80.4533C18.0751 85.391 17.8733 86.8781 14.6488 86.8781ZM37.6466 80.6532C35.9521 82.4616 34.2427 86.3195 33.8541 89.2283C33.0228 95.4178 35.2086 100.522 38.1959 99.3747C43.2289 97.4429 46.0051 84.5783 42.4405 79.7041C40.8488 77.5258 40.5274 77.5893 37.6485 80.6532H37.6466ZM48.0134 102.448C47.7575 97.4896 48.3908 92.9797 49.6836 90.5566C50.3692 89.2676 51.4958 88.2158 52.187 88.2158C54.3785 88.2158 57.5264 95.9128 57.5264 101.271C57.5264 104.111 56.6241 107.6 55.5181 109.03C53.549 111.578 53.4612 111.567 50.8363 108.469C49.366 106.732 48.0937 104.023 48.0134 102.448ZM12.0743 93.4374C10.4004 94.5621 10.5835 95.2739 13.2756 98.1398C15.0187 99.9949 18.4674 102.181 20.9372 102.997C25.3668 104.458 33.445 103.645 33.445 101.738C33.445 101.196 31.6832 99.0701 29.5329 97.0076C26.8333 94.422 23.8292 93.0843 19.835 92.6864C16.6515 92.3688 13.1598 92.7088 12.0743 93.4374ZM30.1121 114.743C26.626 111.996 26.555 111.737 28.8491 110.059C32.1241 107.664 42.0276 107.81 46.8887 110.322C49.0596 111.445 50.8363 112.732 50.8363 113.185C50.8363 115.397 45.5081 117.566 39.98 117.603C35.6215 117.635 32.7201 116.792 30.1121 114.743ZM248.252 13.8398C248.252 10.5013 244.261 4.5734 240.396 2.1746C236.364 -0.328837 230.862 -0.779079 230.862 1.39181C230.862 4.83308 235.206 11.5811 238.782 13.6922C243.69 16.5917 248.252 16.6608 248.252 13.8398ZM264.974 14.7029C264.974 11.2131 264.148 7.36453 263.14 6.14644C262.129 4.93023 260.842 3.93446 260.281 3.93446C259.721 3.93446 258.222 6.12029 256.954 8.79372C254.419 14.1368 254.918 21.8751 257.996 24.9539C259.513 26.4709 260.218 26.3027 262.389 23.9021C264.18 21.9236 264.974 19.0951 264.974 14.7029ZM274.915 23.8274C278.007 29.6058 275.274 41.3139 270.396 43.1878C267.95 44.1256 265.643 40.3443 265.643 35.3935C265.643 31.4348 268.494 25.2958 271.481 22.8148C273.125 21.451 273.742 21.6341 274.915 23.8274ZM256.279 28.1C256.279 27.461 254.322 25.6526 251.932 24.0758C248.592 21.8751 246.101 21.3351 241.199 21.7443C237.689 22.0357 234.513 22.5775 234.145 22.9474C231.412 25.6806 240.775 32.027 247.54 32.027C251.508 32.027 256.279 29.8841 256.279 28.1ZM258.286 38.506C260.492 39.8549 263.164 42.0052 264.219 43.2849C265.888 45.3063 265.888 45.7697 264.219 46.8252C259.749 49.6556 249.774 46.8962 244.962 41.4952C242.726 38.988 242.626 38.3715 244.293 37.3178C247.458 35.3169 253.972 35.8699 258.286 38.506ZM280.202 57.8683C281.024 56.2616 281.697 53.1006 281.697 50.8456C281.697 45.6426 279.111 45.5062 273.609 50.4234C270.657 53.0595 269.275 55.7124 268.729 59.787C268.064 64.7378 268.292 65.4682 270.484 65.4439C273.566 65.4066 278.19 61.8009 280.202 57.8683ZM252.986 52.2449C257.58 53.5079 263.552 59.2956 264.914 63.7999C265.708 66.4248 265.342 66.8115 262.054 66.8059C259.982 66.8021 256.431 65.67 254.165 64.2894C249.761 61.6029 245.717 54.0141 247.725 52.2057C248.384 51.6135 250.75 51.6284 252.986 52.2449ZM261.624 83.2874C261.619 77.9312 256.967 70.9945 251.904 68.7937C249.53 67.7606 247.432 66.8918 247.248 66.8638C247.065 66.8358 246.914 68.9263 246.914 71.5138C246.914 74.9887 248.046 77.4025 251.263 80.7727C253.653 83.2818 256.963 85.7217 258.62 86.1943C261.234 86.9435 261.63 86.5624 261.624 83.2874ZM281.697 73.3802C281.697 79.5565 273.751 86.8781 267.048 86.8781C263.825 86.8781 263.622 85.391 266.176 80.4533C268.838 75.3063 272.522 72.3265 277.437 71.3419C281.174 70.5947 281.697 70.8469 281.697 73.3802ZM247.843 89.2283C247.454 86.3195 245.746 82.4616 244.05 80.6532C241.169 77.5893 240.85 77.5258 239.258 79.7041C235.692 84.5802 238.468 97.4429 243.501 99.3765C246.49 100.522 248.674 95.4159 247.843 89.2283ZM232.017 90.5548C233.308 92.9797 233.941 97.4896 233.685 102.448C233.603 104.023 232.333 106.732 230.862 108.467C228.237 111.569 228.15 111.578 226.181 109.03C225.076 107.6 224.172 104.109 224.172 101.271C224.172 95.9128 227.32 88.2158 229.51 88.2158C230.201 88.2158 231.329 89.2676 232.017 90.5548ZM268.423 98.1398C271.113 95.2739 271.296 94.564 269.622 93.4374C268.537 92.7088 265.045 92.3707 261.864 92.6864C257.869 93.0825 254.863 94.422 252.164 97.0076C250.013 99.0701 248.252 101.196 248.252 101.738C248.252 103.644 256.33 104.458 260.76 102.997C263.231 102.181 266.678 99.9968 268.423 98.1398ZM252.848 110.059C255.142 111.737 255.071 111.998 251.585 114.743C248.978 116.792 246.075 117.635 241.717 117.603C236.189 117.566 230.862 115.398 230.862 113.185C230.862 112.734 232.637 111.447 234.808 110.322C239.669 107.81 249.573 107.662 252.848 110.059Z" fill="#94A3B8"/>
<path d="M142.437 81.8855C143.644 80.419 144.496 78.4181 144.496 76.3985C144.496 76.122 144.477 75.8437 144.436 75.627C142.456 75.7054 140.08 76.9347 138.673 78.5974C137.543 79.8641 136.515 81.8855 136.515 83.9051C136.518 84.1449 136.545 84.3839 136.594 84.6187L136.642 84.6262C136.762 84.6467 136.937 84.6785 137.128 84.6785C138.891 84.6785 141.111 83.4885 142.437 81.8855Z" fill="#0F172A"/>
<path d="M143.824 85.0933C142.112 85.0933 140.578 85.7004 139.291 86.2105L139.285 86.2128C138.357 86.5798 137.558 86.8961 136.911 86.8961C136.185 86.8961 135.363 86.5677 134.449 86.2024L134.432 86.1955C133.281 85.7322 131.985 85.2128 130.554 85.2128C125.659 85.2128 120.708 89.2538 120.708 96.8593C120.708 101.614 122.53 106.623 124.809 109.853C126.75 112.586 128.454 114.824 130.909 114.824C132.049 114.824 132.888 114.467 133.774 114.091L133.78 114.088L133.786 114.085C134.775 113.664 135.822 113.218 137.406 113.218C138.979 113.218 139.926 113.635 140.84 114.038L140.844 114.04C141.701 114.419 142.531 114.783 143.824 114.783C146.476 114.783 148.24 112.347 149.925 109.952C151.786 107.198 152.578 104.525 152.597 104.385C152.438 104.347 147.369 102.266 147.369 96.4633C147.369 91.7658 150.84 89.4861 151.492 89.0577L151.498 89.0539L151.547 89.0221C151.561 89.0137 151.574 89.0049 151.588 88.996C148.954 85.2128 144.931 85.0933 143.824 85.0933Z" fill="#0F172A"/>
<path d="M87.0406 30.3408V29.1265V28.5006C87.0406 27.8094 87.1683 27.2147 87.4236 26.7165C87.6789 26.212 88.0183 25.773 88.4418 25.3994C88.8652 25.0257 89.3292 24.6957 89.8336 24.4092C90.3443 24.1165 90.8487 23.8425 91.3469 23.5872C91.8513 23.3256 92.3152 23.0579 92.7387 22.7838C93.1622 22.5036 93.5016 22.1922 93.7569 21.8497C94.0184 21.5072 94.1492 21.0993 94.1492 20.626C94.1492 20.022 93.9344 19.53 93.5047 19.1501C93.0812 18.764 92.5052 18.571 91.7766 18.571C91.0044 18.571 90.366 18.7921 89.8616 19.2342C89.3634 19.6764 89.0676 20.2991 88.9742 21.1024H86.7697C86.7822 20.2804 86.9783 19.5331 87.3582 18.8606C87.7381 18.188 88.3017 17.6525 89.049 17.2539C89.7962 16.8491 90.7272 16.6467 91.8419 16.6467C92.8072 16.6467 93.6386 16.8149 94.336 17.1511C95.0397 17.4812 95.5815 17.9451 95.9614 18.543C96.3475 19.1346 96.5405 19.8258 96.5405 20.6167C96.5405 21.3079 96.4129 21.8996 96.1575 22.3915C95.9085 22.8835 95.5753 23.3101 95.158 23.6713C94.747 24.0262 94.2924 24.3407 93.7942 24.6147C93.3023 24.8887 92.8072 25.1472 92.309 25.39C91.817 25.6267 91.3624 25.8758 90.9452 26.1373C90.5342 26.3926 90.201 26.6853 89.9457 27.0154C89.6966 27.3454 89.5721 27.7409 89.5721 28.2017V28.3979H96.5686V30.3408H87.0406ZM103.363 16.6467C104.907 16.6467 106.128 17.2414 107.025 18.4309C107.928 19.6141 108.379 21.3422 108.379 23.6152C108.379 25.8758 107.931 27.5976 107.034 28.7809C106.144 29.9578 104.917 30.5463 103.354 30.5463C101.791 30.5463 100.561 29.9578 99.664 28.7809C98.7735 27.6039 98.3282 25.8882 98.3282 23.6339C98.3282 22.1144 98.5337 20.8378 98.9447 19.804C99.3557 18.764 99.938 17.9794 100.691 17.4501C101.445 16.9145 102.336 16.6467 103.363 16.6467ZM103.363 28.6501C104.241 28.6501 104.895 28.2609 105.325 27.4824C105.754 26.704 105.969 25.418 105.969 23.6245C105.969 21.7937 105.751 20.4797 105.315 19.6826C104.879 18.8855 104.226 18.4869 103.354 18.4869C102.482 18.4869 101.822 18.8886 101.373 19.6919C100.931 20.4953 100.71 21.8061 100.71 23.6245C100.71 25.4118 100.931 26.6978 101.373 27.4824C101.822 28.2609 102.485 28.6501 103.363 28.6501ZM110.339 30.3408V29.1265V28.5006C110.339 27.8094 110.466 27.2147 110.722 26.7165C110.977 26.212 111.316 25.773 111.74 25.3994C112.163 25.0257 112.627 24.6957 113.132 24.4092C113.642 24.1165 114.147 23.8425 114.645 23.5872C115.149 23.3256 115.613 23.0579 116.037 22.7838C116.46 22.5036 116.8 22.1922 117.055 21.8497C117.317 21.5072 117.447 21.0993 117.447 20.626C117.447 20.022 117.232 19.53 116.803 19.1501C116.379 18.764 115.803 18.571 115.075 18.571C114.302 18.571 113.664 18.7921 113.16 19.2342C112.662 19.6764 112.366 20.2991 112.272 21.1024H110.068C110.08 20.2804 110.276 19.5331 110.656 18.8606C111.036 18.188 111.6 17.6525 112.347 17.2539C113.094 16.8491 114.025 16.6467 115.14 16.6467C116.105 16.6467 116.937 16.8149 117.634 17.1511C118.338 17.4812 118.88 17.9451 119.259 18.543C119.646 19.1346 119.839 19.8258 119.839 20.6167C119.839 21.3079 119.711 21.8996 119.456 22.3915C119.207 22.8835 118.873 23.3101 118.456 23.6713C118.045 24.0262 117.591 24.3407 117.092 24.6147C116.6 24.8887 116.105 25.1472 115.607 25.39C115.115 25.6267 114.661 25.8758 114.243 26.1373C113.832 26.3926 113.499 26.6853 113.244 27.0154C112.995 27.3454 112.87 27.7409 112.87 28.2017V28.3979H119.867V30.3408H110.339ZM127.819 16.8335H130.08V25.2032H132.238V27.1368H130.08V30.3408H127.875L127.885 27.1368H121.598V25.2032L127.819 16.8335ZM123.728 25.2032H127.866V19.6546L123.728 25.2032ZM138.548 16.8335H147.385L147.375 18.7578H140.855V22.6437H146.609V24.54H140.855V30.3408H138.548V16.8335ZM151.84 20.6821V30.3408H149.654V20.6821H151.84ZM151.868 16.8429V18.9913H149.617V16.8429H151.868ZM154.677 30.3408V20.6821H156.9V22.0646C157.05 21.8155 157.252 21.5757 157.507 21.3453C157.769 21.1149 158.09 20.9281 158.469 20.7848C158.849 20.6416 159.295 20.57 159.805 20.57C160.403 20.57 160.957 20.6883 161.468 20.925C161.985 21.1616 162.399 21.5321 162.71 22.0366C163.028 22.541 163.187 23.1917 163.187 23.9889V30.3408H160.907V24.2597C160.907 23.6245 160.733 23.1544 160.384 22.8492C160.036 22.5379 159.597 22.3822 159.067 22.3822C158.706 22.3822 158.364 22.4445 158.04 22.569C157.716 22.6873 157.451 22.871 157.246 23.1201C157.046 23.363 156.947 23.6681 156.947 24.0356V30.3408H154.677ZM168.306 30.5276C167.689 30.5276 167.135 30.4155 166.643 30.1914C166.157 29.9609 165.774 29.634 165.494 29.2105C165.22 28.7809 165.083 28.2609 165.083 27.6506C165.083 26.5857 165.466 25.7823 166.232 25.2406C167.004 24.6988 168.234 24.4154 169.922 24.3905L171.36 24.3532V23.6993C171.36 23.1886 171.208 22.7901 170.903 22.5036C170.604 22.2109 170.137 22.0677 169.501 22.0739C169.034 22.0801 168.605 22.1922 168.212 22.4102C167.826 22.6219 167.571 22.98 167.446 23.4844H165.513C165.55 22.8243 165.74 22.2732 166.083 21.8311C166.431 21.3827 166.908 21.0495 167.512 20.8316C168.116 20.6074 168.813 20.4953 169.604 20.4953C170.526 20.4953 171.276 20.6167 171.855 20.8596C172.435 21.1024 172.861 21.4543 173.135 21.9151C173.409 22.3697 173.546 22.9209 173.546 23.5685V30.3408H171.631L171.454 28.6034C171.105 29.332 170.663 29.8364 170.127 30.1166C169.598 30.3906 168.991 30.5276 168.306 30.5276ZM169.044 28.9864C169.324 28.9864 169.601 28.9365 169.875 28.8369C170.149 28.731 170.398 28.5909 170.622 28.4165C170.847 28.236 171.024 28.0367 171.155 27.8187C171.292 27.6008 171.36 27.3735 171.36 27.1368V25.6142L170.174 25.6329C169.589 25.6391 169.078 25.7014 168.642 25.8197C168.206 25.938 167.864 26.128 167.615 26.3895C167.372 26.6448 167.25 26.9874 167.25 27.417C167.25 27.909 167.422 28.2951 167.764 28.5753C168.107 28.8494 168.533 28.9864 169.044 28.9864ZM178.989 30.4809C178.366 30.4809 177.868 30.4031 177.494 30.2474C177.121 30.0917 176.841 29.8831 176.654 29.6216C176.467 29.36 176.345 29.0673 176.289 28.7435C176.233 28.4134 176.205 28.0772 176.205 27.7346V16.4599H178.429V27.4731C178.429 27.8903 178.513 28.2142 178.681 28.4446C178.855 28.675 179.135 28.8089 179.521 28.8462L180.007 28.8649V30.2941C179.839 30.3439 179.668 30.3875 179.493 30.4249C179.319 30.4623 179.151 30.4809 178.989 30.4809ZM184.333 20.6821V30.3408H182.148V20.6821H184.333ZM184.361 16.8429V18.9913H182.11V16.8429H184.361ZM190.713 30.5276C190.04 30.5276 189.402 30.4218 188.798 30.21C188.2 29.9921 187.695 29.6527 187.284 29.1919C186.88 28.731 186.624 28.1363 186.519 27.4077H188.518C188.605 27.7627 188.757 28.0522 188.975 28.2764C189.199 28.5006 189.464 28.6656 189.769 28.7715C190.074 28.8711 190.386 28.921 190.703 28.921C191.282 28.921 191.75 28.8213 192.105 28.6221C192.466 28.4228 192.646 28.1145 192.646 27.6973C192.646 27.3921 192.547 27.1493 192.347 26.9687C192.148 26.7881 191.831 26.6511 191.395 26.5577L189.554 26.1373C188.739 25.9567 188.082 25.6578 187.583 25.2406C187.091 24.8233 186.842 24.2348 186.836 23.4751C186.83 22.9022 186.973 22.3915 187.266 21.9431C187.558 21.4948 187.994 21.1429 188.574 20.8876C189.153 20.626 189.869 20.4953 190.722 20.4953C191.849 20.4953 192.752 20.7475 193.431 21.2519C194.11 21.7501 194.458 22.4631 194.477 23.391H192.544C192.475 22.9738 192.279 22.65 191.955 22.4195C191.631 22.1829 191.211 22.0646 190.694 22.0646C190.158 22.0646 189.719 22.1673 189.377 22.3728C189.034 22.5783 188.863 22.8928 188.863 23.3163C188.863 23.609 188.994 23.8394 189.255 24.0075C189.517 24.1757 189.909 24.3189 190.432 24.4372L192.17 24.8576C192.668 24.9821 193.076 25.1503 193.394 25.362C193.711 25.5737 193.96 25.8073 194.141 26.0626C194.321 26.3117 194.446 26.5701 194.515 26.8379C194.589 27.0994 194.627 27.3423 194.627 27.5665C194.627 28.1892 194.465 28.7217 194.141 29.1638C193.823 29.5998 193.372 29.936 192.786 30.1727C192.201 30.4093 191.51 30.5276 190.713 30.5276ZM202.04 22.2888H199.883L199.892 27.8281C199.892 28.1145 199.923 28.3263 199.985 28.4633C200.054 28.594 200.16 28.6812 200.303 28.7248C200.452 28.7622 200.652 28.7809 200.901 28.7809H202.087V30.2194C201.963 30.2692 201.773 30.3128 201.517 30.3502C201.268 30.3938 200.932 30.4155 200.508 30.4155C199.742 30.4155 199.148 30.3159 198.724 30.1166C198.307 29.9111 198.017 29.6216 197.856 29.2479C197.694 28.8743 197.613 28.429 197.613 27.9121V22.2888H196.043V20.6821H197.678L198.248 17.8144H199.883V20.6728H202.04V22.2888Z" fill="#64748B"/>
<path d="M51.0773 54.6279L55.9347 41.1207H58.3914L63.2394 54.6279H60.9602L59.7552 51.2371H54.5989L53.3659 54.6279H51.0773ZM55.122 49.2194H59.1947L57.1677 43.3345L55.122 49.2194ZM65.159 57.6358V44.9692H67.4289L67.4476 46.4918C67.5722 46.2801 67.7309 46.0715 67.924 45.866C68.1233 45.6604 68.3506 45.4767 68.6059 45.3148C68.8675 45.1529 69.157 45.0252 69.4746 44.9318C69.7922 44.8322 70.141 44.7824 70.5208 44.7824C71.2619 44.7824 71.9189 44.9599 72.4918 45.3148C73.0647 45.6636 73.5131 46.2022 73.8369 46.9308C74.167 47.6594 74.332 48.5811 74.332 49.6958C74.332 50.8354 74.1639 51.7851 73.8276 52.5449C73.4913 53.3046 73.0211 53.8744 72.4171 54.2543C71.813 54.6279 71.1124 54.8148 70.3153 54.8148C69.9479 54.8148 69.6116 54.7649 69.3065 54.6653C69.0076 54.5657 68.7398 54.4287 68.5031 54.2543C68.2665 54.0799 68.0579 53.89 67.8773 53.6845C67.7029 53.479 67.5566 53.2641 67.4383 53.0399V57.6358H65.159ZM69.8109 53.1147C70.4959 53.1147 71.0626 52.8438 71.511 52.302C71.9594 51.754 72.1836 50.8977 72.1836 49.7332C72.1836 48.7243 71.9718 47.9303 71.5484 47.3512C71.1311 46.7658 70.552 46.4731 69.8109 46.4731C69.0138 46.4731 68.416 46.7814 68.0174 47.3979C67.6189 48.0082 67.4196 48.7866 67.4196 49.7332C67.4196 50.3435 67.5068 50.907 67.6811 51.4239C67.8617 51.9346 68.1264 52.3456 68.4751 52.657C68.8301 52.9621 69.2753 53.1147 69.8109 53.1147ZM76.3428 57.6358V44.9692H78.6127L78.6314 46.4918C78.756 46.2801 78.9148 46.0715 79.1078 45.866C79.3071 45.6604 79.5344 45.4767 79.7897 45.3148C80.0513 45.1529 80.3408 45.0252 80.6584 44.9318C80.976 44.8322 81.3248 44.7824 81.7046 44.7824C82.4457 44.7824 83.1027 44.9599 83.6756 45.3148C84.2485 45.6636 84.6969 46.2022 85.0207 46.9308C85.3508 47.6594 85.5158 48.5811 85.5158 49.6958C85.5158 50.8354 85.3477 51.7851 85.0114 52.5449C84.6751 53.3046 84.205 53.8744 83.6009 54.2543C82.9968 54.6279 82.2962 54.8148 81.4991 54.8148C81.1317 54.8148 80.7954 54.7649 80.4903 54.6653C80.1914 54.5657 79.9236 54.4287 79.687 54.2543C79.4503 54.0799 79.2417 53.89 79.0611 53.6845C78.8867 53.479 78.7404 53.2641 78.6221 53.0399V57.6358H76.3428ZM80.9947 53.1147C81.6797 53.1147 82.2464 52.8438 82.6948 52.302C83.1432 51.754 83.3674 50.8977 83.3674 49.7332C83.3674 48.7243 83.1556 47.9303 82.7322 47.3512C82.3149 46.7658 81.7358 46.4731 80.9947 46.4731C80.1976 46.4731 79.5998 46.7814 79.2012 47.3979C78.8027 48.0082 78.6034 48.7866 78.6034 49.7332C78.6034 50.3435 78.6906 50.907 78.8649 51.4239C79.0455 51.9346 79.3102 52.3456 79.6589 52.657C80.0139 52.9621 80.4592 53.1147 80.9947 53.1147ZM90.3103 54.768C89.6876 54.768 89.1894 54.6902 88.8157 54.5345C88.4421 54.3788 88.1618 54.1702 87.975 53.9087C87.7882 53.6471 87.6668 53.3544 87.6107 53.0306C87.5547 52.7005 87.5266 52.3643 87.5266 52.0218V40.747H89.7498V51.7602C89.7498 52.1774 89.8339 52.5013 90.002 52.7317C90.1764 52.9621 90.4566 53.096 90.8427 53.1333L91.3285 53.152V54.5812C91.1603 54.631 90.9891 54.6746 90.8147 54.712C90.6404 54.7494 90.4722 54.768 90.3103 54.768ZM95.0213 50.3217C95.0151 50.8697 95.1023 51.3554 95.2828 51.7789C95.4634 52.2023 95.7312 52.5355 96.0862 52.7784C96.4411 53.015 96.8802 53.1333 97.4033 53.1333C97.9388 53.1333 98.4028 53.015 98.7951 52.7784C99.1937 52.5355 99.4583 52.1681 99.5891 51.6761H101.672C101.56 52.3487 101.292 52.9185 100.869 53.3856C100.445 53.8526 99.9316 54.2076 99.3276 54.4504C98.7297 54.6933 98.107 54.8148 97.4593 54.8148C96.5252 54.8148 95.7032 54.6186 94.9933 54.2263C94.2896 53.8277 93.7384 53.261 93.3399 52.5262C92.9476 51.7913 92.7514 50.9164 92.7514 49.9013C92.7514 48.9112 92.932 48.0331 93.2932 47.2671C93.6544 46.4949 94.1744 45.8877 94.8532 45.4456C95.5382 45.0035 96.3602 44.7824 97.3192 44.7824C98.272 44.7824 99.0722 44.9848 99.7199 45.3896C100.374 45.7943 100.866 46.361 101.196 47.0896C101.532 47.812 101.7 48.6589 101.7 49.6304V50.3217H95.0213ZM95.0213 48.9112H99.5517C99.5517 48.4441 99.4708 48.0238 99.3089 47.6501C99.147 47.2702 98.8979 46.9713 98.5616 46.7534C98.2315 46.5292 97.8143 46.4171 97.3099 46.4171C96.8117 46.4171 96.3913 46.5385 96.0488 46.7814C95.7063 47.0243 95.4479 47.3387 95.2735 47.7248C95.0991 48.1047 95.0151 48.5001 95.0213 48.9112ZM108.197 41.1207C108.253 41.1207 108.418 41.1207 108.692 41.1207C108.966 41.1207 109.289 41.1207 109.663 41.1207C110.043 41.1207 110.426 41.1238 110.812 41.13C111.204 41.13 111.544 41.1331 111.83 41.1393C113.474 41.1705 114.81 41.4538 115.838 41.9894C116.871 42.5187 117.628 43.2753 118.107 44.2593C118.593 45.237 118.836 46.4171 118.836 47.7996C118.836 49.2443 118.578 50.4742 118.061 51.4893C117.55 52.5044 116.765 53.2828 115.707 53.8246C114.654 54.3602 113.315 54.6279 111.69 54.6279H108.197V41.1207ZM110.504 42.9982V52.7504H111.727C112.655 52.7504 113.474 52.5916 114.184 52.274C114.894 51.9501 115.448 51.427 115.847 50.7047C116.252 49.9823 116.454 49.017 116.454 47.8089C116.454 46.6382 116.267 45.7009 115.894 44.9972C115.52 44.2935 114.984 43.786 114.287 43.4746C113.589 43.157 112.755 42.9982 111.784 42.9982H110.504ZM122.862 50.3217C122.856 50.8697 122.943 51.3554 123.124 51.7789C123.304 52.2023 123.572 52.5355 123.927 52.7784C124.282 53.015 124.721 53.1333 125.244 53.1333C125.78 53.1333 126.244 53.015 126.636 52.7784C127.035 52.5355 127.299 52.1681 127.43 51.6761H129.513C129.401 52.3487 129.133 52.9185 128.71 53.3856C128.286 53.8526 127.773 54.2076 127.169 54.4504C126.571 54.6933 125.948 54.8148 125.3 54.8148C124.366 54.8148 123.544 54.6186 122.834 54.2263C122.131 53.8277 121.579 53.261 121.181 52.5262C120.789 51.7913 120.592 50.9164 120.592 49.9013C120.592 48.9112 120.773 48.0331 121.134 47.2671C121.495 46.4949 122.015 45.8877 122.694 45.4456C123.379 45.0035 124.201 44.7824 125.16 44.7824C126.113 44.7824 126.913 44.9848 127.561 45.3896C128.215 45.7943 128.707 46.361 129.037 47.0896C129.373 47.812 129.541 48.6589 129.541 49.6304V50.3217H122.862ZM122.862 48.9112H127.393C127.393 48.4441 127.312 48.0238 127.15 47.6501C126.988 47.2702 126.739 46.9713 126.403 46.7534C126.072 46.5292 125.655 46.4171 125.151 46.4171C124.653 46.4171 124.232 46.5385 123.89 46.7814C123.547 47.0243 123.289 47.3387 123.114 47.7248C122.94 48.1047 122.856 48.5001 122.862 48.9112ZM135.257 54.8148C134.584 54.8148 133.946 54.7089 133.342 54.4972C132.744 54.2792 132.24 53.9398 131.829 53.479C131.424 53.0181 131.169 52.4234 131.063 51.6948H133.062C133.149 52.0498 133.302 52.3394 133.52 52.5635C133.744 52.7877 134.008 52.9528 134.314 53.0586C134.619 53.1583 134.93 53.2081 135.248 53.2081C135.827 53.2081 136.294 53.1084 136.649 52.9092C137.01 52.7099 137.191 52.4016 137.191 51.9844C137.191 51.6792 137.091 51.4364 136.892 51.2558C136.692 51.0752 136.375 50.9382 135.939 50.8448L134.099 50.4244C133.283 50.2438 132.626 49.9449 132.128 49.5277C131.636 49.1104 131.387 48.5219 131.38 47.7622C131.374 47.1893 131.517 46.6786 131.81 46.2303C132.103 45.7819 132.539 45.43 133.118 45.1747C133.697 44.9132 134.413 44.7824 135.266 44.7824C136.394 44.7824 137.297 45.0346 137.975 45.539C138.654 46.0372 139.003 46.7502 139.022 47.6781H137.088C137.019 47.2609 136.823 46.9371 136.499 46.7067C136.176 46.47 135.755 46.3517 135.238 46.3517C134.703 46.3517 134.264 46.4544 133.921 46.6599C133.579 46.8655 133.407 47.1799 133.407 47.6034C133.407 47.8961 133.538 48.1265 133.8 48.2946C134.061 48.4628 134.454 48.606 134.977 48.7243L136.714 49.1447C137.212 49.2692 137.62 49.4374 137.938 49.6491C138.256 49.8608 138.505 50.0944 138.685 50.3497C138.866 50.5988 138.99 50.8572 139.059 51.125C139.134 51.3866 139.171 51.6294 139.171 51.8536C139.171 52.4764 139.009 53.0088 138.685 53.4509C138.368 53.8869 137.916 54.2231 137.331 54.4598C136.745 54.6964 136.054 54.8148 135.257 54.8148ZM143.656 44.9692V54.6279H141.47V44.9692H143.656ZM143.684 41.13V43.2785H141.433V41.13H143.684ZM150.634 57.8226C149.009 57.8226 147.76 57.6046 146.888 57.1687C146.017 56.7328 145.581 56.135 145.581 55.3752C145.581 55.0327 145.665 54.7463 145.833 54.5158C146.001 54.2854 146.2 54.0955 146.431 53.946C146.661 53.7966 146.873 53.6814 147.066 53.6004C147.259 53.5194 147.383 53.4603 147.439 53.4229C147.334 53.3606 147.193 53.2797 147.019 53.1801C146.845 53.0804 146.686 52.9434 146.543 52.769C146.406 52.5947 146.337 52.3674 146.337 52.0871C146.337 51.7633 146.49 51.4644 146.795 51.1904C147.106 50.9164 147.57 50.7202 148.187 50.6019C147.583 50.3092 147.119 49.9138 146.795 49.4156C146.471 48.9174 146.309 48.4005 146.309 47.865C146.309 47.2298 146.493 46.6849 146.86 46.2303C147.234 45.7757 147.751 45.4269 148.411 45.184C149.077 44.9412 149.846 44.8197 150.718 44.8197C151.366 44.8197 151.901 44.8914 152.325 45.0346C152.748 45.1778 153.144 45.3709 153.511 45.6137C153.636 45.5639 153.81 45.4954 154.034 45.4082C154.265 45.3148 154.514 45.2152 154.782 45.1093C155.049 44.9972 155.305 44.8914 155.548 44.7917C155.797 44.6859 156.008 44.5987 156.183 44.5302L156.164 46.4077L154.492 46.7067C154.573 46.8872 154.635 47.0834 154.679 47.2951C154.729 47.5069 154.754 47.6937 154.754 47.8556C154.754 48.4161 154.595 48.9361 154.277 49.4156C153.966 49.8889 153.496 50.2687 152.867 50.5552C152.244 50.8417 151.466 50.9849 150.531 50.9849C150.438 50.9849 150.31 50.9818 150.148 50.9755C149.986 50.9693 149.856 50.9631 149.756 50.9569C149.252 50.9755 148.906 51.0347 148.719 51.1343C148.532 51.234 148.439 51.343 148.439 51.4613C148.439 51.6294 148.579 51.7415 148.859 51.7976C149.14 51.8536 149.588 51.9034 150.204 51.947C150.422 51.9595 150.709 51.975 151.064 51.9937C151.419 52.0124 151.814 52.0373 152.25 52.0685C153.352 52.137 154.187 52.4141 154.754 52.8998C155.32 53.3793 155.604 54.0021 155.604 54.768C155.604 55.6586 155.193 56.3903 154.371 56.9632C153.549 57.5361 152.303 57.8226 150.634 57.8226ZM151.017 56.4868C151.833 56.4868 152.437 56.3747 152.829 56.1505C153.222 55.9263 153.418 55.5963 153.418 55.1604C153.418 54.8241 153.284 54.5501 153.016 54.3384C152.748 54.1266 152.35 54.0021 151.82 53.9647L149.382 53.8153C149.115 53.7966 148.859 53.8464 148.616 53.9647C148.38 54.0768 148.187 54.2356 148.037 54.4411C147.888 54.6404 147.813 54.8615 147.813 55.1043C147.813 55.5589 148.075 55.9014 148.598 56.1319C149.121 56.3685 149.927 56.4868 151.017 56.4868ZM150.606 49.6491C151.198 49.6491 151.677 49.4996 152.045 49.2007C152.412 48.8956 152.596 48.4659 152.596 47.9117C152.596 47.3387 152.412 46.8935 152.045 46.5759C151.677 46.2521 151.198 46.0901 150.606 46.0901C150.002 46.0901 149.513 46.2521 149.14 46.5759C148.772 46.8997 148.588 47.345 148.588 47.9117C148.588 48.4472 148.766 48.8707 149.121 49.1821C149.476 49.4934 149.971 49.6491 150.606 49.6491ZM158.005 54.6279V44.9692H160.228V46.3517C160.377 46.1026 160.58 45.8628 160.835 45.6324C161.097 45.402 161.417 45.2152 161.797 45.072C162.177 44.9287 162.622 44.8571 163.133 44.8571C163.731 44.8571 164.285 44.9754 164.796 45.2121C165.313 45.4487 165.727 45.8192 166.038 46.3237C166.356 46.8281 166.515 47.4789 166.515 48.276V54.6279H164.235V48.5469C164.235 47.9117 164.061 47.4415 163.712 47.1363C163.363 46.825 162.924 46.6693 162.395 46.6693C162.034 46.6693 161.691 46.7316 161.368 46.8561C161.044 46.9744 160.779 47.1581 160.574 47.4072C160.374 47.6501 160.275 47.9553 160.275 48.3227V54.6279H158.005ZM172.421 54.6279L177.278 41.1207H179.735L184.583 54.6279H182.304L181.099 51.2371H175.942L174.709 54.6279H172.421ZM176.465 49.2194H180.538L178.511 43.3345L176.465 49.2194ZM198.375 44.9692L195.311 54.6279H193.35L191.369 48.1919L189.436 54.6279H187.521L184.457 44.9692H186.502L188.52 51.6107H188.623L190.575 44.9692H192.238L194.246 51.6014H194.349L196.292 44.9692H198.375ZM202.448 54.8148C201.832 54.8148 201.278 54.7027 200.786 54.4785C200.3 54.2481 199.917 53.9211 199.637 53.4977C199.363 53.068 199.226 52.548 199.226 51.9377C199.226 50.8728 199.609 50.0695 200.375 49.5277C201.147 48.9859 202.377 48.7025 204.064 48.6776L205.503 48.6403V47.9864C205.503 47.4757 205.35 47.0772 205.045 46.7907C204.746 46.498 204.279 46.3548 203.644 46.361C203.177 46.3673 202.747 46.4794 202.355 46.6973C201.969 46.909 201.714 47.2671 201.589 47.7715H199.655C199.693 47.1114 199.883 46.5603 200.225 46.1182C200.574 45.6698 201.05 45.3366 201.654 45.1187C202.258 44.8945 202.956 44.7824 203.747 44.7824C204.668 44.7824 205.419 44.9038 205.998 45.1467C206.577 45.3896 207.004 45.7414 207.278 46.2022C207.552 46.6568 207.689 47.208 207.689 47.8556V54.6279H205.774L205.596 52.8905C205.248 53.6191 204.805 54.1235 204.27 54.4037C203.741 54.6777 203.133 54.8148 202.448 54.8148ZM203.186 53.2735C203.467 53.2735 203.744 53.2236 204.018 53.124C204.292 53.0181 204.541 52.878 204.765 52.7037C204.989 52.5231 205.167 52.3238 205.297 52.1058C205.434 51.8879 205.503 51.6606 205.503 51.4239V49.9013L204.317 49.92C203.731 49.9262 203.221 49.9885 202.785 50.1068C202.349 50.2251 202.006 50.4151 201.757 50.6766C201.514 50.932 201.393 51.2745 201.393 51.7042C201.393 52.1961 201.564 52.5822 201.907 52.8625C202.249 53.1365 202.676 53.2735 203.186 53.2735ZM210.348 54.6279V44.9692H212.524V47.0616C212.68 46.5821 212.901 46.1742 213.188 45.8379C213.48 45.4954 213.823 45.2339 214.215 45.0533C214.607 44.8727 215.034 44.7824 215.495 44.7824C215.607 44.7824 215.716 44.7886 215.822 44.8011C215.928 44.8135 216.006 44.8353 216.055 44.8664V47.0429C215.987 47.0118 215.897 46.99 215.784 46.9775C215.679 46.9651 215.585 46.9589 215.504 46.9589C215.037 46.9215 214.623 46.9402 214.262 47.0149C213.907 47.0896 213.605 47.2173 213.356 47.3979C213.113 47.5723 212.929 47.7965 212.805 48.0705C212.68 48.3382 212.618 48.6527 212.618 49.0139V54.6279H210.348ZM221.222 54.8148C219.946 54.8148 218.943 54.3757 218.215 53.4977C217.486 52.6196 217.122 51.371 217.122 49.7519C217.122 48.743 217.268 47.8681 217.561 47.127C217.86 46.3797 218.296 45.8037 218.868 45.3989C219.448 44.9879 220.164 44.7824 221.017 44.7824C221.415 44.7824 221.777 44.8322 222.1 44.9318C222.431 45.0252 222.723 45.1498 222.979 45.3055C223.234 45.4612 223.449 45.6324 223.623 45.8192C223.804 46.0061 223.944 46.1929 224.043 46.3797V40.747H226.323V54.6279H224.641L224.389 52.6476C224.314 52.878 224.202 53.1209 224.053 53.3762C223.91 53.6253 223.713 53.8588 223.464 54.0768C223.221 54.2948 222.916 54.4722 222.549 54.6092C222.181 54.7463 221.739 54.8148 221.222 54.8148ZM221.689 53.1427C222.505 53.1427 223.1 52.878 223.474 52.3487C223.854 51.8131 224.043 50.9288 224.043 49.6958C224.037 48.9921 223.95 48.4005 223.782 47.921C223.62 47.4415 223.368 47.0803 223.025 46.8374C222.689 46.5946 222.253 46.4731 221.718 46.4731C221.032 46.4731 220.469 46.7253 220.027 47.2298C219.585 47.7342 219.364 48.5562 219.364 49.6958C219.364 50.8292 219.566 51.6886 219.971 52.274C220.376 52.8531 220.948 53.1427 221.689 53.1427ZM232.536 54.8148C231.864 54.8148 231.225 54.7089 230.621 54.4972C230.023 54.2792 229.519 53.9398 229.108 53.479C228.703 53.0181 228.448 52.4234 228.342 51.6948H230.341C230.428 52.0498 230.581 52.3394 230.799 52.5635C231.023 52.7877 231.288 52.9528 231.593 53.0586C231.898 53.1583 232.209 53.2081 232.527 53.2081C233.106 53.2081 233.573 53.1084 233.928 52.9092C234.289 52.7099 234.47 52.4016 234.47 51.9844C234.47 51.6792 234.37 51.4364 234.171 51.2558C233.972 51.0752 233.654 50.9382 233.218 50.8448L231.378 50.4244C230.562 50.2438 229.905 49.9449 229.407 49.5277C228.915 49.1104 228.666 48.5219 228.66 47.7622C228.653 47.1893 228.797 46.6786 229.089 46.2303C229.382 45.7819 229.818 45.43 230.397 45.1747C230.976 44.9132 231.692 44.7824 232.545 44.7824C233.673 44.7824 234.576 45.0346 235.254 45.539C235.933 46.0372 236.282 46.7502 236.301 47.6781H234.367C234.298 47.2609 234.102 46.9371 233.779 46.7067C233.455 46.47 233.034 46.3517 232.517 46.3517C231.982 46.3517 231.543 46.4544 231.2 46.6599C230.858 46.8655 230.687 47.1799 230.687 47.6034C230.687 47.8961 230.817 48.1265 231.079 48.2946C231.34 48.4628 231.733 48.606 232.256 48.7243L233.993 49.1447C234.492 49.2692 234.899 49.4374 235.217 49.6491C235.535 49.8608 235.784 50.0944 235.964 50.3497C236.145 50.5988 236.269 50.8572 236.338 51.125C236.413 51.3866 236.45 51.6294 236.45 51.8536C236.45 52.4764 236.288 53.0088 235.964 53.4509C235.647 53.8869 235.195 54.2231 234.61 54.4598C234.024 54.6964 233.333 54.8148 232.536 54.8148Z" fill="#64748B"/>
</svg>
