<svg width="19" height="28" viewBox="0 0 19 28" fill="none" xmlns="http://www.w3.org/2000/svg">
<path d="M5.40489 1.6704L1.12945 3.95286C0.78136 4.13869 0.563965 4.50118 0.563965 4.89577V21.5151C0.563965 21.893 0.763462 22.2428 1.08868 22.4351L9.16397 27.2114C9.51673 27.42 9.95773 27.4086 10.2992 27.1819L14.1562 24.6219C14.801 24.1939 14.7913 23.2437 14.1379 22.8289L7.47317 18.5984C7.16427 18.4023 6.97713 18.0619 6.97713 17.696V2.61331C6.97713 1.80621 6.11688 1.2903 5.40489 1.6704Z" fill="#94A3B8"/>
<path d="M17.163 11.2061L10.7499 7.19788C10.0379 6.75293 9.1145 7.26475 9.1145 8.10427V12.7059C9.1145 13.0917 9.32232 13.4475 9.65829 13.6369L11.6275 14.7475C11.9634 14.937 12.1712 15.2928 12.1712 15.6785V17.855C12.1712 18.2063 12.3438 18.5351 12.6329 18.7346L15.9893 21.0517C16.6983 21.5411 17.6654 21.0336 17.6654 20.172V12.1125C17.6654 11.744 17.4755 11.4014 17.163 11.2061Z" fill="#94A3B8"/>
</svg>
