<svg width="56" height="48" viewBox="0 0 56 48" fill="none" xmlns="http://www.w3.org/2000/svg">
<path d="M30.7189 16.3687C35.239 16.3687 38.9032 12.7044 38.9032 8.18433C38.9032 3.66425 35.239 0 30.7189 0C26.1988 0 22.5345 3.66425 22.5345 8.18433C22.5345 12.7044 26.1988 16.3687 30.7189 16.3687Z" fill="#8B3DFF"/>
<path d="M32.9592 14.0921C36.2107 12.8477 37.8379 9.2031 36.5935 5.95155C35.3492 2.70001 31.7045 1.07286 28.453 2.31721C25.2015 3.56156 23.5743 7.20621 24.8187 10.4578C26.063 13.7093 29.7077 15.3365 32.9592 14.0921Z" fill="#A972FA"/>
<path d="M29.281 37.272C33.8011 37.272 37.4653 33.6077 37.4653 29.0877C37.4653 24.5676 33.8011 20.9033 29.281 20.9033C24.7609 20.9033 21.0967 24.5676 21.0967 29.0877C21.0967 33.6077 24.7609 37.272 29.281 37.272Z" fill="#8B3DFF"/>
<path d="M29.2805 35.3915C32.7621 35.3915 35.5846 32.569 35.5846 29.0874C35.5846 25.6057 32.7621 22.7832 29.2805 22.7832C25.7988 22.7832 22.9763 25.6057 22.9763 29.0874C22.9763 32.569 25.7988 35.3915 29.2805 35.3915Z" fill="#8B3DFF"/>
<g filter="url(#filter0_b_2396_1757)">
<path d="M54.9394 26.7651C54.8288 26.5439 54.6076 26.4333 54.497 26.5439C53.6122 26.8757 52.838 26.8757 52.285 26.4333C52.5062 26.2121 52.6168 25.9909 52.7274 25.6591C53.391 24.332 53.0592 23.5578 52.838 23.3366C52.5062 23.0048 52.0638 22.7836 51.6214 22.8942C51.179 23.0048 50.7366 23.3366 50.626 23.8896C50.4048 24.6638 50.626 25.6591 51.179 26.4333C50.5154 26.8757 49.8518 26.9863 49.4095 26.9863C49.1883 17.5854 39.4555 10.0647 27.4002 10.0647C25.1883 10.0647 21.0961 10.7283 21.0961 10.7283C21.0961 10.7283 16.4509 5.75131 14.5707 6.9679C11.6952 8.84809 11.6952 15.1522 11.6952 15.1522C6.71821 18.3596 5.61222 24.2214 5.61222 24.2214L2.29425 24.9955L0.303467 28.4241C3.95324 35.1707 9.15139 39.1522 14.1284 41.4748L11.6952 47.6684H17.9993L18.6629 43.2444C21.6491 44.1292 24.3035 44.461 26.073 44.461C26.5154 44.461 27.0684 44.461 27.5108 44.461C30.0546 44.461 32.5984 44.1292 34.921 43.4656L35.5846 47.6684H41.8887L39.3449 41.8066C45.3173 38.8204 49.2989 33.7329 49.5201 27.7605C49.6306 27.7605 49.6306 27.7605 49.7412 27.7605C50.2942 27.7605 51.0684 27.6499 51.8426 27.0969C52.3956 27.5393 53.391 27.8711 54.8288 27.3181C54.9394 27.2075 55.05 26.9863 54.9394 26.7651ZM51.732 25.9909C51.2896 25.4379 51.179 24.6638 51.2896 24.1108C51.4002 23.8896 51.5108 23.6684 51.732 23.6684H51.8426C51.9532 23.6684 52.1744 23.779 52.285 23.8896C52.5062 24.2214 52.5062 24.7744 52.0638 25.5485C51.9532 25.6591 51.8426 25.8803 51.732 25.9909Z" fill="url(#paint0_linear_2396_1757)" fill-opacity="0.5"/>
</g>
<path d="M54.9406 26.7651C54.83 26.5439 54.6088 26.4333 54.4982 26.5439C53.6134 26.8757 52.8392 26.8757 52.2862 26.4333C52.5074 26.2121 52.618 25.9909 52.7286 25.6591C53.3922 24.332 53.0604 23.5578 52.8392 23.3366C52.5074 23.0048 52.065 22.7836 51.6227 22.8942C51.1803 23.0048 50.7379 23.3366 50.6273 23.8896C50.4061 24.6638 50.6273 25.6591 51.1803 26.4333C50.5167 26.8757 49.8531 26.9863 49.4107 26.9863C49.1895 17.5854 39.4568 10.0647 27.4015 10.0647C25.1895 10.0647 21.0973 10.7283 21.0973 10.7283C21.0973 10.7283 16.4522 5.75131 14.572 6.9679C11.6964 8.84809 11.6964 15.1522 11.6964 15.1522C6.71943 18.3596 5.61344 24.2214 5.61344 24.2214L2.29547 24.9955L0.304688 28.4241C3.95446 35.1707 9.15261 39.1522 14.1296 41.4748L11.6964 47.6684H18.0005L18.6641 43.2444C21.6503 44.1292 24.3047 44.461 26.0743 44.461C26.5167 44.461 27.0697 44.461 27.5121 44.461C30.0558 44.461 32.5996 44.1292 34.9222 43.4656L35.5858 47.6684H41.8899L39.3462 41.8066C45.3185 38.8204 49.3001 33.7329 49.5213 27.7605C49.6319 27.7605 49.6319 27.7605 49.7425 27.7605C50.2955 27.7605 51.0697 27.6499 51.8438 27.0969C52.3968 27.5393 53.3922 27.8711 54.83 27.3181C54.9406 27.2075 55.0512 26.9863 54.9406 26.7651ZM51.7333 25.9909C51.2909 25.4379 51.1803 24.6638 51.2909 24.1108C51.4015 23.8896 51.5121 23.6684 51.7333 23.6684H51.8438C51.9544 23.6684 52.1756 23.779 52.2862 23.8896C52.5074 24.2214 52.5074 24.7744 52.065 25.5485C51.9544 25.6591 51.8439 25.8803 51.7333 25.9909Z" fill="url(#paint1_linear_2396_1757)"/>
<path d="M15.235 6.85719C17.3364 6.85719 21.0968 10.8388 21.0968 10.8388C21.0968 10.8388 25.1889 10.1752 27.4009 10.1752C39.4562 10.1752 49.2995 17.6959 49.4101 27.0968C49.5207 27.0968 49.5207 27.0968 49.6313 27.0968C50.0737 27.0968 50.6267 26.9862 51.1797 26.5438C50.6267 25.7696 50.4055 24.6636 50.6267 24C50.7373 23.4471 51.0691 23.1153 51.6221 23.0047C51.7327 23.0047 51.8433 23.0047 51.8433 23.0047C52.1751 23.0047 52.6175 23.2259 52.8387 23.4471C53.0599 23.7788 53.3917 24.553 52.7281 25.7696C52.6175 26.1014 52.3963 26.3226 52.2857 26.5438C52.6175 26.765 52.9493 26.8756 53.3917 26.8756C53.7235 26.8756 54.1659 26.765 54.6083 26.6544H54.7189C54.8295 26.6544 55.0507 26.765 55.0507 26.8756C55.1613 27.0968 55.0507 27.318 54.8295 27.318C54.2765 27.5392 53.8341 27.6498 53.3917 27.6498C52.7281 27.6498 52.1751 27.4286 51.8433 27.0968C51.1797 27.6498 50.4055 27.7604 49.7419 27.7604C49.6313 27.7604 49.6313 27.7604 49.5207 27.7604C49.2995 33.6222 45.318 38.8203 39.3456 41.8065L41.6682 47.6682H35.364L34.7005 43.4655C32.3779 44.1291 29.9447 44.4609 27.2903 44.4609C26.8479 44.4609 26.2949 44.4609 25.8525 44.4609C24.0829 44.4609 21.4286 44.1291 18.4424 43.2443L17.7788 47.6682H11.6958L14.129 41.5853C9.15207 39.2627 3.95392 35.1706 0.414747 28.5346L2.40553 25.106L5.7235 24.3318C5.7235 24.3318 6.82949 18.4701 11.8064 15.2627C11.8064 15.2627 11.8064 8.95857 14.5714 7.07839C14.682 6.85719 15.0138 6.85719 15.235 6.85719ZM51.7327 25.9908C51.8433 25.8802 51.9539 25.659 52.0645 25.4378C52.3963 24.7742 52.5069 24.1106 52.2857 23.7788C52.1751 23.6682 52.0645 23.5576 51.8433 23.5576H51.7327C51.5115 23.5576 51.4009 23.7788 51.2903 24C51.2903 24.6636 51.4009 25.4378 51.7327 25.9908ZM15.235 6.52539C14.9032 6.52539 14.5714 6.63599 14.3502 6.74659C11.6958 8.51617 11.3641 13.9355 11.3641 15.0415C6.94009 18.0277 5.6129 22.8941 5.3917 24L2.29493 24.7742C2.18433 24.7742 2.07373 24.8848 2.07373 24.9954L0.0829493 28.424C-0.0276498 28.5346 -0.0276498 28.6452 0.0829493 28.7558C3.17972 34.507 7.82488 38.9309 13.6866 41.8065L11.3641 47.5576C11.3641 47.6682 11.3641 47.7788 11.3641 47.8894C11.4747 48 11.5853 48 11.6958 48H18C18.2212 48 18.3318 47.8894 18.3318 47.6682L18.8848 43.6867C21.318 44.3503 23.9723 44.7927 25.9631 44.7927H26.0737C26.5161 44.7927 26.8479 44.7927 27.2903 44.7927C29.7235 44.7927 32.1567 44.4609 34.3687 43.9079L34.9216 47.6682C34.9216 47.8894 35.1428 48 35.2534 48H41.5576C41.6682 48 41.7788 47.8894 41.8894 47.8894C42 47.7788 42 47.6682 41.8894 47.5576L39.6774 41.9171C45.6498 38.8203 49.2995 33.7328 49.7419 28.0922C50.5161 28.0922 51.1797 27.871 51.7327 27.4286C52.1751 27.7604 52.7281 27.871 53.2811 27.871C53.7235 27.871 54.2765 27.7604 54.8295 27.5392C55.1613 27.4286 55.3825 26.9862 55.2719 26.6544C55.1613 26.3226 54.9401 26.212 54.6083 26.212C54.4977 26.212 54.3871 26.212 54.3871 26.212C54.0553 26.3226 53.6129 26.4332 53.3917 26.4332C53.1705 26.4332 53.0599 26.4332 52.8387 26.3226C52.9493 26.212 53.0599 25.9908 53.0599 25.8802C53.8341 24.4424 53.5023 23.5576 53.1705 23.1153C52.8387 22.6729 52.3963 22.4517 51.9539 22.4517C51.8433 22.4517 51.7327 22.4517 51.6221 22.4517C50.9585 22.5623 50.5161 23.1153 50.4055 23.6682C50.2949 24.3318 50.2949 25.3272 50.8479 26.212C50.5161 26.3226 50.2949 26.4332 49.9631 26.4332C49.5207 17.0323 39.5668 9.51157 27.5115 9.51157C25.5207 9.51157 22.2028 10.0646 21.318 10.1752C20.5438 9.62217 17.3364 6.52539 15.235 6.52539ZM51.8433 25.3272C51.7327 24.8848 51.7327 24.553 51.7327 24.2212C51.7327 24.1106 51.8433 24.1106 51.8433 24C51.9539 24 51.9539 24 51.9539 24.1106C52.0645 24.2212 52.0645 24.6636 51.8433 25.3272Z" fill="url(#paint2_linear_2396_1757)"/>
<path d="M9.70486 24.2208C10.1935 24.2208 10.5897 23.6266 10.5897 22.8936C10.5897 22.1606 10.1935 21.5664 9.70486 21.5664C9.2162 21.5664 8.82007 22.1606 8.82007 22.8936C8.82007 23.6266 9.2162 24.2208 9.70486 24.2208Z" fill="white"/>
<path d="M38.2391 16.2582C38.1285 16.2582 38.1285 16.2582 38.0179 16.1476C30.4972 12.3872 22.7553 14.7098 22.7553 14.8204C22.4235 14.931 22.2023 14.7098 22.0917 14.4886C21.9811 14.1568 22.2023 13.9356 22.4235 13.825C22.7553 13.7144 30.6078 11.2812 38.5709 15.2628C38.7921 15.3734 38.9027 15.7052 38.7921 16.037C38.6815 16.1476 38.4603 16.2582 38.2391 16.2582Z" fill="white"/>
<path d="M27.4012 10.0647C25.1892 10.0647 21.097 10.7283 21.097 10.7283C21.097 10.7283 16.4518 5.75131 14.5717 6.9679C11.6961 8.84809 11.6961 15.1522 11.6961 15.1522C6.71913 18.3596 5.61314 24.2214 5.61314 24.2214L2.29517 24.9956L6.05553 24.7744C6.05553 24.7744 7.71452 17.3642 12.5809 15.484C12.5809 15.484 12.3597 12.0555 13.3551 9.84348C14.3505 7.6315 14.9035 5.53012 20.8758 11.7237C20.8758 11.7237 25.6316 9.95408 32.7099 11.2813C38.1293 12.2767 47.9726 16.7006 49.4104 26.9863C49.2998 17.696 39.4564 10.0647 27.4012 10.0647Z" fill="white"/>
<defs>
<filter id="filter0_b_2396_1757" x="-3.69653" y="2.77637" width="62.6818" height="48.8916" filterUnits="userSpaceOnUse" color-interpolation-filters="sRGB">
<feFlood flood-opacity="0" result="BackgroundImageFix"/>
<feGaussianBlur in="BackgroundImageFix" stdDeviation="2"/>
<feComposite in2="SourceAlpha" operator="in" result="effect1_backgroundBlur_2396_1757"/>
<feBlend mode="normal" in="SourceGraphic" in2="effect1_backgroundBlur_2396_1757" result="shape"/>
</filter>
<linearGradient id="paint0_linear_2396_1757" x1="27.646" y1="6.77327" x2="27.646" y2="47.667" gradientUnits="userSpaceOnUse">
<stop stop-color="#8B3DFF"/>
<stop offset="0.3846" stop-color="#8B3DFF"/>
<stop offset="0.7609" stop-color="#742AE1"/>
<stop offset="1" stop-color="#601FC2"/>
</linearGradient>
<linearGradient id="paint1_linear_2396_1757" x1="27.6849" y1="6.83076" x2="27.6849" y2="47.6488" gradientUnits="userSpaceOnUse">
<stop stop-color="white" stop-opacity="0.9"/>
<stop offset="0.3156" stop-color="white" stop-opacity="0.5"/>
<stop offset="0.7226" stop-color="#F8F7F7" stop-opacity="0.3811"/>
<stop offset="1" stop-color="#F0EFEF" stop-opacity="0.3"/>
</linearGradient>
<linearGradient id="paint2_linear_2396_1757" x1="28.0308" y1="48.0406" x2="28.0308" y2="7.3026" gradientUnits="userSpaceOnUse">
<stop stop-color="#8B3DFF" stop-opacity="0.9"/>
<stop offset="0.2822" stop-color="#8B3DFF" stop-opacity="0.5"/>
<stop offset="0.7091" stop-color="#8B3DFF" stop-opacity="0.38"/>
<stop offset="1" stop-color="#8B3DFF" stop-opacity="0.2"/>
</linearGradient>
</defs>
</svg>
