<svg width="45" height="56" viewBox="0 0 45 56" fill="none" xmlns="http://www.w3.org/2000/svg">
<path d="M43.8315 12.4166C43.8315 10.3057 42.0931 8.56738 39.9823 8.56738H11.4235V55.9998L13.7827 54.5098L16.1419 55.9998L18.5011 54.5098L20.8603 55.9998L23.2195 54.5098L25.5787 55.9998L27.9379 54.5098L30.2971 55.9998L32.6563 54.5098L35.0155 55.9998L37.3747 54.5098L39.7339 55.9998L42.0931 54.5098L44.4523 55.9998V12.4166H43.8315Z" fill="url(#paint0_linear_2396_1807)"/>
<g filter="url(#filter0_b_2396_1807)">
<path d="M0.620896 44.8252C0.620896 46.9361 2.35926 48.6745 4.47012 48.6745H33.0289V1.36621L31.4147 3.22874L28.3105 1.36621L25.9513 2.85623L23.5921 1.36621L21.2329 2.85623L18.8737 1.36621L16.5145 2.85623L14.1553 1.36621L12.1686 2.85623L9.80938 1.36621L7.45017 2.85623L5.09097 1.36621L2.73176 2.85623L0.372559 1.36621V44.8252H0.620896Z" fill="url(#paint1_linear_2396_1807)" fill-opacity="0.5"/>
</g>
<g filter="url(#filter1_b_2396_1807)">
<path d="M0.621811 44.8243C0.621811 46.9351 2.36017 48.8355 4.47104 48.8355H33.0298V1.36523L31.4156 3.22776L28.9323 1.36523L26.4489 3.22776L23.9655 1.36523L21.4821 3.22776L18.9988 1.36523L16.5154 3.22776L14.032 1.36523L12.1695 3.22776L9.68612 1.36523L7.82359 3.22776L5.34022 1.36523L2.85685 3.22776L0.373474 1.36523V44.8243H0.621811Z" fill="url(#paint2_linear_2396_1807)"/>
</g>
<path d="M33.0289 1.36579V48.7982H4.47007C2.3592 48.7982 0.620843 47.0599 0.620843 44.949V1.36579L2.85685 2.60736L5.34022 0.744831L8.07193 2.48319L9.68612 0.744831L12.4178 2.48319L14.032 0.744831L17.1362 2.60736L18.9988 0.744831L21.4821 2.60736L23.9655 0.744831L26.5721 2.85582L28.9323 0.74483L31.4156 2.60736L33.0289 1.36579ZM23.4688 0.248157C23.3447 0.248157 23.3447 0.248156 23.2205 0.372325L21.4821 1.98652L18.7504 0.372325C18.6263 0.372325 18.6263 0.248157 18.5021 0.248157C18.3779 0.248157 18.3779 0.248156 18.2538 0.372325L16.6396 2.11069L13.9079 0.372325C13.7837 0.372325 13.7837 0.248157 13.6595 0.248157C13.5354 0.248157 13.5354 0.248156 13.4112 0.372325L12.1695 1.98652L9.68612 0.372325C9.56196 0.372325 9.56196 0.248157 9.43779 0.248157C9.31362 0.248157 9.31362 0.248156 9.18945 0.372325L7.82359 1.98652L5.34022 0.372325C5.21605 0.372325 5.21605 0.248157 5.09188 0.248157C4.96771 0.248157 4.96772 0.248156 4.84355 0.372325L2.60851 2.11069L0.620843 0.993287C0.496675 0.993287 0.496675 0.869119 0.372506 0.869119C0.248338 0.869119 0.248337 0.869119 0.248337 0.869119C0.124168 0.993287 0 1.11746 0 1.24162V44.8248C0 47.184 1.86253 49.0466 4.22173 49.0466H32.7805C33.0289 49.0466 33.153 48.9224 33.153 48.6741V1.36579C33.153 1.24162 33.0289 1.11746 32.9047 0.993287H32.7805C32.6564 0.993287 32.6564 0.993287 32.5322 1.11746L31.4156 1.98652L28.9323 0.123987C28.8081 0.123987 28.8081 -0.000182361 28.6839 -0.000182361C28.5598 -0.000182361 28.5598 -0.00018189 28.4356 0.123987L25.828 1.98652L23.7667 0.372325C23.6405 0.248157 23.593 0.248157 23.4688 0.248157Z" fill="url(#paint3_linear_2396_1807)"/>
<path d="M31.4156 2.48348L28.9323 0.745117L26.4489 2.48348L23.9655 0.745117L21.4822 2.48348L18.9988 0.745117L16.5154 2.48348L14.032 0.745117L12.1695 2.48348L9.68613 0.745117L7.8236 2.48348L5.34023 0.745117L2.85686 2.48348L0.62085 1.36596V1.9868L2.85686 3.22849L5.34023 1.36596L7.8236 3.22849L9.68613 1.36596L12.1695 3.22849L14.032 1.36596L16.5154 3.22849L18.9988 1.36596L21.4822 3.22849L23.9655 1.36596L26.4489 3.22849L28.9323 1.36596L31.4156 3.22849L33.0289 1.9868V1.36596L31.4156 2.48348Z" fill="white"/>
<path d="M28.807 11.7961H4.71829C4.46996 11.7961 4.22162 11.5477 4.22162 11.2994C4.22162 11.0511 4.46996 10.8027 4.71829 10.8027H28.807C29.0554 10.8027 29.3037 11.0511 29.3037 11.2994C29.4279 11.5477 29.1795 11.7961 28.807 11.7961Z" fill="white"/>
<path d="M28.807 16.8869H4.71823C4.46989 16.8869 4.22156 16.6386 4.22156 16.3902C4.22156 16.1419 4.46989 15.8936 4.71823 15.8936H28.807C29.0553 15.8936 29.3036 16.1419 29.3036 16.3902C29.4278 16.6386 29.1795 16.8869 28.807 16.8869Z" fill="white"/>
<path d="M19.8668 27.1926H4.71823C4.46989 27.1926 4.22156 26.9442 4.22156 26.6959C4.22156 26.4476 4.46989 26.1992 4.71823 26.1992H19.8668C20.1151 26.1992 20.3635 26.4476 20.3635 26.6959C20.4876 26.9442 20.2393 27.1926 19.8668 27.1926Z" fill="white"/>
<path d="M19.8668 32.2844H4.71823C4.46989 32.2844 4.22156 32.036 4.22156 31.7877C4.22156 31.5394 4.46989 31.291 4.71823 31.291H19.8668C20.1151 31.291 20.3635 31.5394 20.3635 31.7877C20.4876 32.036 20.2393 32.2844 19.8668 32.2844Z" fill="white"/>
<path d="M19.8668 37.3752H4.71823C4.46989 37.3752 4.22156 37.1268 4.22156 36.8785C4.22156 36.6302 4.46989 36.3818 4.71823 36.3818H19.8668C20.1151 36.3818 20.3635 36.6302 20.3635 36.8785C20.4876 37.1268 20.2393 37.3752 19.8668 37.3752Z" fill="white"/>
<path d="M19.8668 42.466H4.71823C4.46989 42.466 4.22156 42.2177 4.22156 41.9693C4.22156 41.721 4.46989 41.4727 4.71823 41.4727H19.8668C20.1151 41.4727 20.3635 41.721 20.3635 41.9693C20.4876 42.2177 20.2393 42.466 19.8668 42.466Z" fill="white"/>
<path d="M28.8069 27.1926H22.971C22.7226 27.1926 22.4743 26.9442 22.4743 26.6959C22.4743 26.4476 22.7226 26.1992 22.971 26.1992H28.8069C29.0552 26.1992 29.3036 26.4476 29.3036 26.6959C29.4277 26.9442 29.1794 27.1926 28.8069 27.1926Z" fill="white"/>
<path d="M28.8069 32.2844H22.971C22.7226 32.2844 22.4743 32.036 22.4743 31.7877C22.4743 31.5394 22.7226 31.291 22.971 31.291H28.8069C29.0552 31.291 29.3036 31.5394 29.3036 31.7877C29.4277 32.036 29.1794 32.2844 28.8069 32.2844Z" fill="white"/>
<path d="M28.8069 37.3752H22.971C22.7226 37.3752 22.4743 37.1268 22.4743 36.8785C22.4743 36.6302 22.7226 36.3818 22.971 36.3818H28.8069C29.0552 36.3818 29.3036 36.6302 29.3036 36.8785C29.4277 37.1268 29.1794 37.3752 28.8069 37.3752Z" fill="white"/>
<path d="M28.8069 42.466H22.971C22.7226 42.466 22.4743 42.2177 22.4743 41.9693C22.4743 41.721 22.7226 41.4727 22.971 41.4727H28.8069C29.0552 41.4727 29.3036 41.721 29.3036 41.9693C29.4277 42.2177 29.1794 42.466 28.8069 42.466Z" fill="white"/>
<defs>
<filter id="filter0_b_2396_1807" x="-3.62744" y="-2.63379" width="40.6564" height="55.3086" filterUnits="userSpaceOnUse" color-interpolation-filters="sRGB">
<feFlood flood-opacity="0" result="BackgroundImageFix"/>
<feGaussianBlur in="BackgroundImageFix" stdDeviation="2"/>
<feComposite in2="SourceAlpha" operator="in" result="effect1_backgroundBlur_2396_1807"/>
<feBlend mode="normal" in="SourceGraphic" in2="effect1_backgroundBlur_2396_1807" result="shape"/>
</filter>
<filter id="filter1_b_2396_1807" x="-2.62653" y="-1.63477" width="38.6564" height="53.4707" filterUnits="userSpaceOnUse" color-interpolation-filters="sRGB">
<feFlood flood-opacity="0" result="BackgroundImageFix"/>
<feGaussianBlur in="BackgroundImageFix" stdDeviation="1.5"/>
<feComposite in2="SourceAlpha" operator="in" result="effect1_backgroundBlur_2396_1807"/>
<feBlend mode="normal" in="SourceGraphic" in2="effect1_backgroundBlur_2396_1807" result="shape"/>
</filter>
<linearGradient id="paint0_linear_2396_1807" x1="27.9389" y1="8.56379" x2="27.9389" y2="55.9982" gradientUnits="userSpaceOnUse">
<stop stop-color="#8B3DFF"/>
<stop offset="0.3846" stop-color="#8B3DFF"/>
<stop offset="0.7609" stop-color="#742AE1"/>
<stop offset="1" stop-color="#601FC2"/>
</linearGradient>
<linearGradient id="paint1_linear_2396_1807" x1="16.7017" y1="1.36263" x2="16.7017" y2="48.6729" gradientUnits="userSpaceOnUse">
<stop stop-color="#8B3DFF"/>
<stop offset="0.3846" stop-color="#8B3DFF"/>
<stop offset="0.7609" stop-color="#742AE1"/>
<stop offset="1" stop-color="#601FC2"/>
</linearGradient>
<linearGradient id="paint2_linear_2396_1807" x1="16.6845" y1="1.22907" x2="16.6845" y2="48.7192" gradientUnits="userSpaceOnUse">
<stop stop-color="white"/>
<stop offset="0.0446132" stop-color="white" stop-opacity="0.8435"/>
<stop offset="0.3156" stop-color="white" stop-opacity="0.6"/>
<stop offset="0.7226" stop-color="#F8F7F7" stop-opacity="0.5"/>
<stop offset="1" stop-color="#F0EFEF" stop-opacity="0.5"/>
</linearGradient>
<linearGradient id="paint3_linear_2396_1807" x1="16.8046" y1="49.0946" x2="16.8046" y2="0.919098" gradientUnits="userSpaceOnUse">
<stop stop-color="#8B3DFF" stop-opacity="0.9"/>
<stop offset="0.2822" stop-color="#8B3DFF" stop-opacity="0.5"/>
<stop offset="0.7091" stop-color="#8B3DFF" stop-opacity="0.38"/>
<stop offset="1" stop-color="#8B3DFF" stop-opacity="0.2"/>
</linearGradient>
</defs>
</svg>
