<svg width="282" height="118" viewBox="0 0 282 118" fill="none" xmlns="http://www.w3.org/2000/svg">
<path d="M41.3006 2.1746C37.4353 4.57153 33.4447 10.5013 33.4447 13.8398C33.4447 16.6608 38.0069 16.5917 42.9166 13.6922C46.4906 11.5811 50.8361 4.83308 50.8361 1.39181C50.8361 -0.779079 45.3341 -0.326968 41.3006 2.1746ZM18.5568 6.14831C17.548 7.36266 16.7222 11.2131 16.7222 14.7029C16.7222 19.0933 17.5162 21.9236 19.3079 23.9021C21.4787 26.3027 22.1849 26.4709 23.7019 24.9539C26.7789 21.8751 27.2777 14.1368 24.7425 8.79372C23.4759 6.12216 21.9776 3.93633 21.4171 3.93633C20.8548 3.93633 19.5676 4.93023 18.5587 6.14831H18.5568ZM11.3025 43.1878C6.42458 41.3158 3.69137 29.6058 6.78328 23.8274C7.95653 21.6341 8.57491 21.451 10.2171 22.8148C13.2062 25.2958 16.0553 31.4348 16.0553 35.3935C16.0553 40.3443 13.748 44.1256 11.3025 43.1878ZM29.7681 24.0758C27.3767 25.6507 25.4188 27.461 25.4188 28.1C25.4188 29.8841 30.1922 32.0289 34.1584 32.0289C40.9251 32.0289 50.2868 25.6806 47.5536 22.9474C47.1855 22.5775 44.0114 22.0357 40.4992 21.7443C35.5969 21.3333 33.1066 21.8751 29.7681 24.0758ZM17.477 43.2849C18.5326 42.0052 21.2041 39.8549 23.4105 38.506C27.7242 35.8681 34.2387 35.3169 37.4035 37.3178C39.07 38.3715 38.971 38.988 36.7347 41.4952C31.9221 46.8943 21.9495 49.6556 17.477 46.8252C15.8087 45.7678 15.8087 45.3063 17.477 43.2849ZM-0.000244141 50.8456C-0.000244141 53.1006 0.672317 56.2616 1.49434 57.8702C3.50642 61.8028 8.13028 65.4066 11.2128 65.4439C13.4043 65.4682 13.6322 64.7378 12.9671 59.787C12.4216 55.7124 11.0391 53.0595 8.08731 50.4234C2.58538 45.5062 -0.000244141 45.6389 -0.000244141 50.8456ZM16.782 63.7999C18.1458 59.2956 24.1167 53.506 28.7107 52.2468C30.9469 51.6303 33.314 51.6135 33.9716 52.2057C35.9799 54.0141 31.9352 61.6029 27.5318 64.2894C25.2656 65.67 21.7141 66.8021 19.6423 66.8059C16.3542 66.8096 15.988 66.4248 16.7839 63.7999H16.782ZM29.7924 68.7937C24.7295 70.9945 20.0776 77.9293 20.072 83.2874C20.0664 86.5624 20.4624 86.9435 23.0761 86.1943C24.7332 85.7217 28.0437 83.2799 30.435 80.7727C33.6502 77.4025 34.7824 74.9906 34.7824 71.5138C34.7824 68.9263 34.6311 66.8339 34.4461 66.8619C34.2649 66.8918 32.1669 67.7587 29.7924 68.7937ZM14.6485 86.8781C7.94532 86.8781 -0.000244141 79.5547 -0.000244141 73.3783C-0.000244141 70.845 0.522859 70.5946 4.25931 71.3419C9.17275 72.3246 12.8606 75.3063 15.521 80.4533C18.0748 85.391 17.8731 86.8781 14.6485 86.8781ZM37.6464 80.6532C35.9519 82.4616 34.2425 86.3195 33.8539 89.2283C33.0225 95.4178 35.2083 100.522 38.1956 99.3747C43.2286 97.4429 46.0048 84.5783 42.4402 79.7041C40.8485 77.5258 40.5272 77.5893 37.6482 80.6532H37.6464ZM48.0132 102.448C47.7572 97.4896 48.3905 92.9797 49.6834 90.5566C50.369 89.2676 51.4955 88.2158 52.1868 88.2158C54.3782 88.2158 57.5262 95.9128 57.5262 101.271C57.5262 104.111 56.6238 107.6 55.5178 109.03C53.5487 111.578 53.4609 111.567 50.8361 108.469C49.3658 106.732 48.0935 104.023 48.0132 102.448ZM12.0741 93.4374C10.4002 94.5621 10.5833 95.2739 13.2754 98.1398C15.0184 99.9949 18.4672 102.181 20.937 102.997C25.3665 104.458 33.4447 103.645 33.4447 101.738C33.4447 101.196 31.683 99.0701 29.5327 97.0076C26.8331 94.422 23.829 93.0843 19.8347 92.6864C16.6513 92.3688 13.1595 92.7088 12.0741 93.4374ZM30.1118 114.743C26.6257 111.996 26.5547 111.737 28.8489 110.059C32.1239 107.664 42.0274 107.81 46.8885 110.322C49.0594 111.445 50.8361 112.732 50.8361 113.185C50.8361 115.397 45.5079 117.566 39.9798 117.603C35.6212 117.635 32.7199 116.792 30.1118 114.743ZM248.251 13.8398C248.251 10.5013 244.261 4.5734 240.396 2.1746C236.364 -0.328837 230.862 -0.779079 230.862 1.39181C230.862 4.83308 235.206 11.5811 238.781 13.6922C243.689 16.5917 248.251 16.6608 248.251 13.8398ZM264.974 14.7029C264.974 11.2131 264.148 7.36453 263.139 6.14644C262.129 4.93023 260.841 3.93446 260.281 3.93446C259.721 3.93446 258.222 6.12029 256.954 8.79372C254.419 14.1368 254.917 21.8751 257.996 24.9539C259.513 26.4709 260.217 26.3027 262.388 23.9021C264.18 21.9236 264.974 19.0951 264.974 14.7029ZM274.915 23.8274C278.007 29.6058 275.274 41.3139 270.396 43.1878C267.95 44.1256 265.643 40.3443 265.643 35.3935C265.643 31.4348 268.494 25.2958 271.481 22.8148C273.125 21.451 273.742 21.6341 274.915 23.8274ZM256.279 28.1C256.279 27.461 254.321 25.6526 251.932 24.0758C248.592 21.8751 246.101 21.3351 241.199 21.7443C237.689 22.0357 234.513 22.5775 234.145 22.9474C231.411 25.6806 240.775 32.027 247.54 32.027C251.508 32.027 256.279 29.8841 256.279 28.1ZM258.286 38.506C260.492 39.8549 263.164 42.0052 264.219 43.2849C265.888 45.3063 265.888 45.7697 264.219 46.8252C259.749 49.6556 249.774 46.8962 244.962 41.4952C242.725 38.988 242.626 38.3715 244.293 37.3178C247.457 35.3169 253.972 35.8699 258.286 38.506ZM280.202 57.8683C281.024 56.2616 281.696 53.1006 281.696 50.8456C281.696 45.6426 279.111 45.5062 273.609 50.4234C270.657 53.0595 269.275 55.7124 268.729 59.787C268.064 64.7378 268.292 65.4682 270.483 65.4439C273.566 65.4066 278.19 61.8009 280.202 57.8683ZM252.986 52.2449C257.58 53.5079 263.552 59.2956 264.914 63.7999C265.708 66.4248 265.342 66.8115 262.054 66.8059C259.982 66.8021 256.431 65.67 254.164 64.2894C249.761 61.6029 245.716 54.0141 247.725 52.2057C248.384 51.6135 250.749 51.6284 252.986 52.2449ZM261.624 83.2874C261.619 77.9312 256.967 70.9945 251.904 68.7937C249.529 67.7606 247.431 66.8918 247.248 66.8638C247.065 66.8358 246.914 68.9263 246.914 71.5138C246.914 74.9887 248.046 77.4025 251.263 80.7727C253.653 83.2818 256.963 85.7217 258.62 86.1943C261.234 86.9435 261.63 86.5624 261.624 83.2874ZM281.696 73.3802C281.696 79.5565 273.751 86.8781 267.048 86.8781C263.825 86.8781 263.621 85.391 266.175 80.4533C268.837 75.3063 272.522 72.3265 277.437 71.3419C281.173 70.5946 281.696 70.8469 281.696 73.3802ZM247.842 89.2283C247.454 86.3195 245.746 82.4616 244.05 80.6532C241.169 77.5893 240.85 77.5258 239.258 79.7041C235.691 84.5802 238.468 97.4429 243.501 99.3765C246.49 100.522 248.674 95.4159 247.842 89.2283ZM232.017 90.5548C233.308 92.9797 233.941 97.4896 233.685 102.448C233.603 104.023 232.332 106.732 230.862 108.467C228.237 111.569 228.149 111.578 226.18 109.03C225.076 107.6 224.172 104.109 224.172 101.271C224.172 95.9128 227.32 88.2158 229.509 88.2158C230.201 88.2158 231.329 89.2676 232.017 90.5548ZM268.423 98.1398C271.113 95.2739 271.296 94.564 269.622 93.4374C268.537 92.7088 265.045 92.3707 261.863 92.6864C257.869 93.0825 254.863 94.422 252.164 97.0076C250.013 99.0701 248.251 101.196 248.251 101.738C248.251 103.644 256.33 104.458 260.759 102.997C263.231 102.181 266.678 99.9968 268.423 98.1398ZM252.847 110.059C255.142 111.737 255.071 111.998 251.584 114.743C248.978 116.792 246.075 117.635 241.716 117.603C236.188 117.566 230.862 115.398 230.862 113.185C230.862 112.734 232.637 111.447 234.808 110.322C239.669 107.81 249.572 107.662 252.847 110.059Z" fill="#94A3B8"/>
<path d="M87.0405 30.3418V29.1275V28.5016C87.0405 27.8104 87.1681 27.2156 87.4235 26.7174C87.6788 26.213 88.0182 25.774 88.4417 25.4003C88.8651 25.0267 89.3291 24.6966 89.8335 24.4102C90.3441 24.1175 90.8486 23.8435 91.3467 23.5882C91.8512 23.3266 92.3151 23.0588 92.7386 22.7848C93.162 22.5046 93.5014 22.1932 93.7568 21.8507C94.0183 21.5082 94.1491 21.1003 94.1491 20.627C94.1491 20.023 93.9342 19.531 93.5045 19.1511C93.0811 18.765 92.505 18.572 91.7764 18.572C91.0042 18.572 90.3659 18.793 89.8615 19.2352C89.3633 19.6773 89.0675 20.3001 88.9741 21.1034H86.7696C86.782 20.2814 86.9782 19.5341 87.3581 18.8615C87.738 18.189 88.3015 17.6534 89.0488 17.2549C89.7961 16.8501 90.7271 16.6477 91.8418 16.6477C92.8071 16.6477 93.6384 16.8158 94.3359 17.1521C95.0396 17.4822 95.5814 17.9461 95.9613 18.544C96.3474 19.1356 96.5404 19.8268 96.5404 20.6177C96.5404 21.3089 96.4128 21.9005 96.1574 22.3925C95.9083 22.8845 95.5752 23.311 95.1579 23.6722C94.7469 24.0272 94.2923 24.3417 93.7941 24.6157C93.3022 24.8897 92.8071 25.1481 92.3089 25.391C91.8169 25.6276 91.3623 25.8767 90.9451 26.1383C90.5341 26.3936 90.2009 26.6863 89.9456 27.0164C89.6965 27.3464 89.5719 27.7418 89.5719 28.2027V28.3988H96.5684V30.3418H87.0405ZM103.363 16.6477C104.907 16.6477 106.128 17.2424 107.025 18.4319C107.928 19.6151 108.379 21.3432 108.379 23.6162C108.379 25.8767 107.931 27.5986 107.034 28.7818C106.143 29.9588 104.917 30.5473 103.354 30.5473C101.791 30.5473 100.561 29.9588 99.6639 28.7818C98.7733 27.6048 98.3281 25.8892 98.3281 23.6349C98.3281 22.1154 98.5336 20.8388 98.9446 19.805C99.3556 18.765 99.9379 17.9804 100.691 17.451C101.445 16.9155 102.335 16.6477 103.363 16.6477ZM103.363 28.6511C104.241 28.6511 104.895 28.2618 105.325 27.4834C105.754 26.705 105.969 25.419 105.969 23.6255C105.969 21.7947 105.751 20.4807 105.315 19.6836C104.879 18.8865 104.225 18.4879 103.354 18.4879C102.482 18.4879 101.822 18.8896 101.373 19.6929C100.931 20.4962 100.71 21.8071 100.71 23.6255C100.71 25.4128 100.931 26.6988 101.373 27.4834C101.822 28.2618 102.485 28.6511 103.363 28.6511ZM110.339 30.3418V29.1275V28.5016C110.339 27.8104 110.466 27.2156 110.722 26.7174C110.977 26.213 111.316 25.774 111.74 25.4003C112.163 25.0267 112.627 24.6966 113.132 24.4102C113.642 24.1175 114.147 23.8435 114.645 23.5882C115.149 23.3266 115.613 23.0588 116.037 22.7848C116.46 22.5046 116.8 22.1932 117.055 21.8507C117.316 21.5082 117.447 21.1003 117.447 20.627C117.447 20.023 117.232 19.531 116.803 19.1511C116.379 18.765 115.803 18.572 115.075 18.572C114.302 18.572 113.664 18.793 113.16 19.2352C112.661 19.6773 112.366 20.3001 112.272 21.1034H110.068C110.08 20.2814 110.276 19.5341 110.656 18.8615C111.036 18.189 111.6 17.6534 112.347 17.2549C113.094 16.8501 114.025 16.6477 115.14 16.6477C116.105 16.6477 116.937 16.8158 117.634 17.1521C118.338 17.4822 118.879 17.9461 119.259 18.544C119.645 19.1356 119.839 19.8268 119.839 20.6177C119.839 21.3089 119.711 21.9005 119.456 22.3925C119.206 22.8845 118.873 23.311 118.456 23.6722C118.045 24.0272 117.59 24.3417 117.092 24.6157C116.6 24.8897 116.105 25.1481 115.607 25.391C115.115 25.6276 114.66 25.8767 114.243 26.1383C113.832 26.3936 113.499 26.6863 113.244 27.0164C112.995 27.3464 112.87 27.7418 112.87 28.2027V28.3988H119.867V30.3418H110.339ZM127.819 16.8345H130.08V25.2042H132.238V27.1378H130.08V30.3418H127.875L127.885 27.1378H121.598V25.2042L127.819 16.8345ZM123.728 25.2042H127.866V19.6555L123.728 25.2042ZM154.128 16.8345L150.158 30.3418H148.243L145.516 20.7671L142.751 30.3418H140.882L136.941 16.8345H139.182L141.919 26.5867L144.666 16.8345H146.366L149.131 26.5867L151.877 16.8345H154.128ZM158.153 20.6831V30.3418H155.967V20.6831H158.153ZM158.181 16.8439V18.9923H155.929V16.8439H158.181ZM160.989 30.3418V20.6831H163.213V22.0656C163.362 21.8165 163.564 21.5767 163.82 21.3463C164.081 21.1159 164.402 20.9291 164.782 20.7858C165.162 20.6426 165.607 20.571 166.118 20.571C166.715 20.571 167.27 20.6893 167.78 20.9259C168.297 21.1626 168.711 21.5331 169.023 22.0375C169.34 22.542 169.499 23.1927 169.499 23.9898V30.3418H167.22V24.2607C167.22 23.6255 167.046 23.1554 166.697 22.8502C166.348 22.5388 165.909 22.3832 165.38 22.3832C165.019 22.3832 164.676 22.4454 164.352 22.57C164.028 22.6883 163.764 22.872 163.558 23.1211C163.359 23.364 163.259 23.6691 163.259 24.0365V30.3418H160.989ZM171.936 30.3418V20.6831H174.159V22.0656C174.309 21.8165 174.511 21.5767 174.766 21.3463C175.028 21.1159 175.349 20.9291 175.729 20.7858C176.108 20.6426 176.554 20.571 177.064 20.571C177.662 20.571 178.216 20.6893 178.727 20.9259C179.244 21.1626 179.658 21.5331 179.969 22.0375C180.287 22.542 180.446 23.1927 180.446 23.9898V30.3418H178.167V24.2607C178.167 23.6255 177.992 23.1554 177.643 22.8502C177.295 22.5388 176.856 22.3832 176.326 22.3832C175.965 22.3832 175.623 22.4454 175.299 22.57C174.975 22.6883 174.71 22.872 174.505 23.1211C174.306 23.364 174.206 23.6691 174.206 24.0365V30.3418H171.936ZM184.667 26.0355C184.661 26.5835 184.748 27.0693 184.928 27.4928C185.109 27.9162 185.377 28.2494 185.732 28.4923C186.087 28.7289 186.526 28.8472 187.049 28.8472C187.584 28.8472 188.048 28.7289 188.441 28.4923C188.839 28.2494 189.104 27.882 189.235 27.39H191.318C191.206 28.0626 190.938 28.6324 190.514 29.0994C190.091 29.5665 189.577 29.9214 188.973 30.1643C188.375 30.4072 187.752 30.5286 187.105 30.5286C186.171 30.5286 185.349 30.3325 184.639 29.9401C183.935 29.5416 183.384 28.9749 182.985 28.24C182.593 27.5052 182.397 26.6303 182.397 25.6152C182.397 24.625 182.578 23.747 182.939 22.981C183.3 22.2088 183.82 21.6016 184.499 21.1595C185.184 20.7173 186.006 20.4962 186.965 20.4962C187.918 20.4962 188.718 20.6986 189.365 21.1034C190.019 21.5082 190.511 22.0749 190.841 22.8035C191.178 23.5259 191.346 24.3728 191.346 25.3443V26.0355H184.667ZM184.667 24.625H189.197C189.197 24.158 189.116 23.7376 188.954 23.364C188.792 22.9841 188.543 22.6852 188.207 22.4672C187.877 22.243 187.46 22.1309 186.955 22.1309C186.457 22.1309 186.037 22.2524 185.694 22.4952C185.352 22.7381 185.093 23.0526 184.919 23.4387C184.745 23.8186 184.661 24.214 184.667 24.625ZM193.464 30.3418V20.6831H195.641V22.7755C195.797 22.296 196.018 21.8881 196.304 21.5518C196.597 21.2093 196.939 20.9477 197.332 20.7671C197.724 20.5865 198.151 20.4962 198.611 20.4962C198.723 20.4962 198.832 20.5025 198.938 20.5149C199.044 20.5274 199.122 20.5492 199.172 20.5803V22.7568C199.103 22.7257 199.013 22.7039 198.901 22.6914C198.795 22.679 198.702 22.6727 198.621 22.6727C198.154 22.6354 197.74 22.654 197.378 22.7288C197.023 22.8035 196.721 22.9312 196.472 23.1118C196.229 23.2861 196.046 23.5103 195.921 23.7843C195.797 24.0521 195.734 24.3666 195.734 24.7278V30.3418H193.464Z" fill="#64748B"/>
<path d="M57.3079 54.8157C56.0997 54.8157 55.0504 54.5386 54.1599 53.9844C53.2694 53.4301 52.5844 52.6392 52.1049 51.6117C51.6253 50.578 51.3856 49.3449 51.3856 47.9126C51.3856 46.4679 51.6347 45.2224 52.1329 44.1762C52.6311 43.13 53.3317 42.3298 54.2346 41.7755C55.1438 41.215 56.2087 40.9348 57.4293 40.9348C58.1766 40.9348 58.8647 41.0594 59.4937 41.3085C60.1289 41.5576 60.6831 41.8938 61.1564 42.3173C61.6359 42.7408 62.0127 43.2234 62.2867 43.7652C62.5607 44.307 62.7133 44.8705 62.7444 45.4559H60.3437C60.2566 44.9951 60.0791 44.5716 59.8113 44.1855C59.5497 43.7932 59.2103 43.4787 58.7931 43.2421C58.3821 43.0054 57.9119 42.8871 57.3826 42.8871C56.7038 42.8871 56.0966 43.0584 55.5611 43.4009C55.0317 43.7434 54.6145 44.282 54.3094 45.0169C54.0104 45.7455 53.861 46.6921 53.861 47.8566C53.861 48.7782 53.9544 49.5567 54.1412 50.1919C54.3343 50.8208 54.5958 51.3284 54.9259 51.7145C55.2622 52.0943 55.6483 52.3715 56.0842 52.5458C56.5201 52.714 56.9809 52.798 57.4667 52.798C57.94 52.798 58.3572 52.7171 58.7184 52.5552C59.0796 52.3933 59.3847 52.1815 59.6338 51.92C59.8891 51.6584 60.0853 51.3782 60.2223 51.0793C60.3655 50.7741 60.4496 50.4783 60.4745 50.1919L60.5586 49.2017H57.5414V47.595L62.9312 47.6137V54.6289H61.3246V52.7327C61.0941 53.0752 60.8015 53.4052 60.4465 53.7228C60.0978 54.0404 59.6681 54.302 59.1574 54.5075C58.653 54.713 58.0365 54.8157 57.3079 54.8157ZM69.6955 54.8157C68.7739 54.8157 67.9705 54.6196 67.2855 54.2272C66.6005 53.8287 66.068 53.2589 65.6882 52.5178C65.3145 51.7767 65.1277 50.8862 65.1277 49.8462C65.1277 48.8374 65.3083 47.9531 65.6695 47.1934C66.0369 46.4336 66.5631 45.842 67.2481 45.4186C67.9332 44.9951 68.7521 44.7834 69.7049 44.7834C70.6265 44.7834 71.4267 44.9857 72.1055 45.3905C72.7843 45.7953 73.3074 46.3745 73.6748 47.128C74.0485 47.8815 74.2353 48.7876 74.2353 49.8462C74.2353 50.824 74.0578 51.6865 73.7029 52.4337C73.3541 53.1748 72.8404 53.7571 72.1616 54.1805C71.489 54.604 70.667 54.8157 69.6955 54.8157ZM69.7049 53.0876C70.228 53.0876 70.6577 52.9444 70.9939 52.6579C71.3364 52.3715 71.5887 51.9791 71.7506 51.4809C71.9187 50.9828 72.0028 50.4161 72.0028 49.7809C72.0028 49.1893 71.928 48.6444 71.7786 48.1462C71.6354 47.648 71.3925 47.2494 71.05 46.9505C70.7137 46.6454 70.2653 46.4928 69.7049 46.4928C69.1755 46.4928 68.7365 46.6329 68.3878 46.9131C68.0453 47.1871 67.7868 47.5732 67.6124 48.0714C67.4443 48.5634 67.3602 49.1332 67.3602 49.7809C67.3602 50.3662 67.435 50.9111 67.5844 51.4156C67.7401 51.9138 67.9892 52.3185 68.3317 52.6299C68.6742 52.935 69.1319 53.0876 69.7049 53.0876ZM80.259 54.8157C79.3374 54.8157 78.534 54.6196 77.849 54.2272C77.164 53.8287 76.6315 53.2589 76.2517 52.5178C75.878 51.7767 75.6912 50.8862 75.6912 49.8462C75.6912 48.8374 75.8718 47.9531 76.233 47.1934C76.6004 46.4336 77.1266 45.842 77.8116 45.4186C78.4967 44.9951 79.3156 44.7834 80.2684 44.7834C81.19 44.7834 81.9902 44.9857 82.669 45.3905C83.3478 45.7953 83.8709 46.3745 84.2383 47.128C84.612 47.8815 84.7988 48.7876 84.7988 49.8462C84.7988 50.824 84.6213 51.6865 84.2664 52.4337C83.9176 53.1748 83.4039 53.7571 82.7251 54.1805C82.0525 54.604 81.2305 54.8157 80.259 54.8157ZM80.2684 53.0876C80.7915 53.0876 81.2212 52.9444 81.5574 52.6579C81.8999 52.3715 82.1522 51.9791 82.3141 51.4809C82.4822 50.9828 82.5663 50.4161 82.5663 49.7809C82.5663 49.1893 82.4916 48.6444 82.3421 48.1462C82.1989 47.648 81.956 47.2494 81.6135 46.9505C81.2772 46.6454 80.8288 46.4928 80.2684 46.4928C79.739 46.4928 79.3 46.6329 78.9513 46.9131C78.6088 47.1871 78.3503 47.5732 78.1759 48.0714C78.0078 48.5634 77.9237 49.1332 77.9237 49.7809C77.9237 50.3662 77.9985 50.9111 78.1479 51.4156C78.3036 51.9138 78.5527 52.3185 78.8952 52.6299C79.2377 52.935 79.6954 53.0876 80.2684 53.0876ZM91.0115 57.8236C89.3862 57.8236 88.1376 57.6056 87.2657 57.1697C86.3939 56.7338 85.958 56.1359 85.958 55.3762C85.958 55.0337 86.0421 54.7472 86.2102 54.5168C86.3783 54.2864 86.5776 54.0965 86.808 53.947C87.0384 53.7975 87.2502 53.6823 87.4432 53.6014C87.6363 53.5204 87.7608 53.4613 87.8169 53.4239C87.711 53.3616 87.5709 53.2807 87.3965 53.181C87.2222 53.0814 87.0634 52.9444 86.9201 52.77C86.7831 52.5957 86.7146 52.3684 86.7146 52.0881C86.7146 51.7643 86.8672 51.4654 87.1723 51.1914C87.4837 50.9174 87.9476 50.7212 88.5642 50.6029C87.9601 50.3102 87.4962 49.9147 87.1723 49.4166C86.8485 48.9184 86.6866 48.4015 86.6866 47.8659C86.6866 47.2307 86.8703 46.6858 87.2377 46.2312C87.6114 45.7766 88.1282 45.4279 88.7883 45.185C89.4547 44.9422 90.2238 44.8207 91.0956 44.8207C91.7433 44.8207 92.2788 44.8923 92.7023 45.0356C93.1257 45.1788 93.5212 45.3718 93.8886 45.6147C94.0132 45.5649 94.1875 45.4964 94.4117 45.4092C94.6421 45.3158 94.8912 45.2162 95.159 45.1103C95.4268 44.9982 95.6821 44.8923 95.925 44.7927C96.1741 44.6868 96.3858 44.5996 96.5602 44.5311L96.5415 46.4087L94.8694 46.7076C94.9504 46.8882 95.0127 47.0844 95.0562 47.2961C95.1061 47.5079 95.131 47.6947 95.131 47.8566C95.131 48.4171 94.9722 48.937 94.6546 49.4166C94.3432 49.8898 93.873 50.2697 93.2441 50.5562C92.6213 50.8426 91.8429 50.9859 90.9088 50.9859C90.8154 50.9859 90.6877 50.9828 90.5258 50.9765C90.3639 50.9703 90.2331 50.9641 90.1335 50.9578C89.629 50.9765 89.2834 51.0357 89.0966 51.1353C88.9098 51.235 88.8164 51.3439 88.8164 51.4623C88.8164 51.6304 88.9565 51.7425 89.2367 51.7985C89.517 51.8546 89.9653 51.9044 90.5818 51.948C90.7998 51.9605 91.0863 51.976 91.4412 51.9947C91.7962 52.0134 92.1916 52.0383 92.6276 52.0694C93.7298 52.1379 94.5643 52.4151 95.131 52.9008C95.6977 53.3803 95.981 54.0031 95.981 54.769C95.981 55.6595 95.57 56.3913 94.748 56.9642C93.926 57.5371 92.6805 57.8236 91.0115 57.8236ZM91.3945 56.4878C92.2103 56.4878 92.8144 56.3757 93.2067 56.1515C93.599 55.9273 93.7952 55.5973 93.7952 55.1614C93.7952 54.8251 93.6613 54.5511 93.3935 54.3393C93.1257 54.1276 92.7272 54.0031 92.1979 53.9657L89.7598 53.8162C89.492 53.7975 89.2367 53.8474 88.9939 53.9657C88.7572 54.0778 88.5642 54.2366 88.4147 54.4421C88.2652 54.6414 88.1905 54.8624 88.1905 55.1053C88.1905 55.5599 88.4521 55.9024 88.9752 56.1328C89.4983 56.3695 90.3047 56.4878 91.3945 56.4878ZM90.9835 49.6501C91.5751 49.6501 92.0546 49.5006 92.422 49.2017C92.7895 48.8966 92.9732 48.4669 92.9732 47.9126C92.9732 47.3397 92.7895 46.8945 92.422 46.5769C92.0546 46.253 91.5751 46.0911 90.9835 46.0911C90.3795 46.0911 89.8906 46.253 89.517 46.5769C89.1495 46.9007 88.9658 47.3459 88.9658 47.9126C88.9658 48.4482 89.1433 48.8717 89.4983 49.183C89.8532 49.4944 90.3483 49.6501 90.9835 49.6501ZM101.166 54.769C100.543 54.769 100.045 54.6912 99.6712 54.5355C99.2976 54.3798 99.0173 54.1712 98.8305 53.9096C98.6437 53.6481 98.5222 53.3554 98.4662 53.0316C98.4101 52.7015 98.3821 52.3652 98.3821 52.0227V40.748H100.605V51.7612C100.605 52.1784 100.689 52.5022 100.858 52.7327C101.032 52.9631 101.312 53.097 101.698 53.1343L102.184 53.153V54.5822C102.016 54.632 101.845 54.6756 101.67 54.713C101.496 54.7503 101.328 54.769 101.166 54.769ZM105.877 50.3226C105.871 50.8707 105.958 51.3564 106.138 51.7799C106.319 52.2033 106.587 52.5365 106.942 52.7794C107.297 53.016 107.736 53.1343 108.259 53.1343C108.794 53.1343 109.258 53.016 109.651 52.7794C110.049 52.5365 110.314 52.1691 110.445 51.6771H112.528C112.416 52.3497 112.148 52.9195 111.724 53.3865C111.301 53.8536 110.787 54.2086 110.183 54.4514C109.585 54.6943 108.962 54.8157 108.315 54.8157C107.381 54.8157 106.559 54.6196 105.849 54.2272C105.145 53.8287 104.594 53.262 104.195 52.5272C103.803 51.7923 103.607 50.9174 103.607 49.9023C103.607 48.9121 103.787 48.0341 104.149 47.2681C104.51 46.4959 105.03 45.8887 105.709 45.4466C106.394 45.0044 107.216 44.7834 108.175 44.7834C109.127 44.7834 109.928 44.9857 110.575 45.3905C111.229 45.7953 111.721 46.362 112.051 47.0906C112.388 47.813 112.556 48.6599 112.556 49.6314V50.3226H105.877ZM105.877 48.9121H110.407C110.407 48.4451 110.326 48.0247 110.164 47.6511C110.002 47.2712 109.753 46.9723 109.417 46.7543C109.087 46.5301 108.67 46.4181 108.165 46.4181C107.667 46.4181 107.247 46.5395 106.904 46.7824C106.562 47.0252 106.303 47.3397 106.129 47.7258C105.955 48.1057 105.871 48.5011 105.877 48.9121ZM119.052 54.6289V41.1216H123.844C124.815 41.1216 125.684 41.2898 126.45 41.6261C127.222 41.9561 127.83 42.445 128.272 43.0926C128.714 43.7403 128.935 44.5374 128.935 45.4839C128.935 46.3745 128.733 47.1373 128.328 47.7725C127.929 48.4077 127.372 48.8935 126.656 49.2297C125.94 49.566 125.102 49.7342 124.143 49.7342H121.359V54.6289H119.052ZM121.341 47.9126H124.087C124.878 47.9126 125.522 47.676 126.02 47.2027C126.525 46.7294 126.777 46.1129 126.777 45.3532C126.777 44.581 126.516 43.9831 125.992 43.5597C125.469 43.13 124.812 42.9151 124.021 42.9151H121.341V47.9126ZM133.531 54.769C132.909 54.769 132.41 54.6912 132.037 54.5355C131.663 54.3798 131.383 54.1712 131.196 53.9096C131.009 53.6481 130.888 53.3554 130.832 53.0316C130.776 52.7015 130.748 52.3652 130.748 52.0227V40.748H132.971V51.7612C132.971 52.1784 133.055 52.5022 133.223 52.7327C133.397 52.9631 133.678 53.097 134.064 53.1343L134.55 53.153V54.5822C134.381 54.632 134.21 54.6756 134.036 54.713C133.861 54.7503 133.693 54.769 133.531 54.769ZM139.232 54.8157C138.615 54.8157 138.061 54.7036 137.569 54.4794C137.083 54.249 136.7 53.9221 136.42 53.4986C136.146 53.0689 136.009 52.5489 136.009 51.9387C136.009 50.8738 136.392 50.0704 137.158 49.5287C137.93 48.9869 139.16 48.7035 140.848 48.6786L142.286 48.6412V47.9874C142.286 47.4767 142.134 47.0782 141.828 46.7917C141.53 46.499 141.062 46.3558 140.427 46.362C139.96 46.3682 139.531 46.4803 139.138 46.6983C138.752 46.91 138.497 47.2681 138.372 47.7725H136.439C136.476 47.1124 136.666 46.5613 137.008 46.1191C137.357 45.6708 137.834 45.3376 138.438 45.1196C139.042 44.8955 139.739 44.7834 140.53 44.7834C141.452 44.7834 142.202 44.9048 142.781 45.1477C143.36 45.3905 143.787 45.7424 144.061 46.2032C144.335 46.6578 144.472 47.2089 144.472 47.8566V54.6289H142.557L142.38 52.8915C142.031 53.6201 141.589 54.1245 141.053 54.4047C140.524 54.6787 139.917 54.8157 139.232 54.8157ZM139.97 53.2744C140.25 53.2744 140.527 53.2246 140.801 53.125C141.075 53.0191 141.324 52.879 141.548 52.7046C141.772 52.524 141.95 52.3248 142.081 52.1068C142.218 51.8888 142.286 51.6615 142.286 51.4249V49.9023L141.1 49.921C140.514 49.9272 140.004 49.9895 139.568 50.1078C139.132 50.2261 138.789 50.4161 138.54 50.6776C138.297 50.9329 138.176 51.2754 138.176 51.7051C138.176 52.1971 138.347 52.5832 138.69 52.8634C139.032 53.1374 139.459 53.2744 139.97 53.2744ZM148.054 57.7115C147.438 57.7115 147.005 57.6617 146.756 57.562C146.513 57.4686 146.392 57.4219 146.392 57.4219V55.9647L147.363 55.9927C147.756 56.0114 148.073 55.9896 148.316 55.9273C148.565 55.865 148.758 55.7779 148.895 55.6658C149.032 55.5599 149.132 55.4447 149.194 55.3201C149.263 55.2018 149.316 55.0991 149.353 55.0119L149.605 54.302L145.841 44.9702H148.11L150.67 51.7985L153.229 44.9702H155.453L151.473 54.9839C151.174 55.7125 150.851 56.2729 150.502 56.6653C150.159 57.0638 149.783 57.3378 149.372 57.4873C148.967 57.6367 148.528 57.7115 148.054 57.7115ZM160.452 54.6289L165.31 41.1216H167.767L172.615 54.6289H170.335L169.13 51.2381H163.974L162.741 54.6289H160.452ZM164.497 49.2204H168.57L166.543 43.3355L164.497 49.2204ZM186.407 44.9702L183.343 54.6289H181.381L179.401 48.1929L177.467 54.6289H175.552L172.489 44.9702H174.534L176.552 51.6117H176.655L178.607 44.9702H180.27L182.278 51.6024H182.381L184.324 44.9702H186.407ZM190.48 54.8157C189.864 54.8157 189.309 54.7036 188.817 54.4794C188.332 54.249 187.949 53.9221 187.668 53.4986C187.394 53.0689 187.257 52.5489 187.257 51.9387C187.257 50.8738 187.64 50.0704 188.406 49.5287C189.179 48.9869 190.408 48.7035 192.096 48.6786L193.535 48.6412V47.9874C193.535 47.4767 193.382 47.0782 193.077 46.7917C192.778 46.499 192.311 46.3558 191.676 46.362C191.209 46.3682 190.779 46.4803 190.387 46.6983C190.001 46.91 189.745 47.2681 189.621 47.7725H187.687C187.724 47.1124 187.914 46.5613 188.257 46.1191C188.606 45.6708 189.082 45.3376 189.686 45.1196C190.29 44.8955 190.988 44.7834 191.779 44.7834C192.7 44.7834 193.451 44.9048 194.03 45.1477C194.609 45.3905 195.035 45.7424 195.309 46.2032C195.583 46.6578 195.72 47.2089 195.72 47.8566V54.6289H193.806L193.628 52.8915C193.279 53.6201 192.837 54.1245 192.302 54.4047C191.772 54.6787 191.165 54.8157 190.48 54.8157ZM191.218 53.2744C191.498 53.2744 191.775 53.2246 192.049 53.125C192.323 53.0191 192.573 52.879 192.797 52.7046C193.021 52.524 193.198 52.3248 193.329 52.1068C193.466 51.8888 193.535 51.6615 193.535 51.4249V49.9023L192.348 49.921C191.763 49.9272 191.252 49.9895 190.816 50.1078C190.38 50.2261 190.038 50.4161 189.789 50.6776C189.546 50.9329 189.425 51.2754 189.425 51.7051C189.425 52.1971 189.596 52.5832 189.938 52.8634C190.281 53.1374 190.707 53.2744 191.218 53.2744ZM198.38 54.6289V44.9702H200.556V47.0626C200.712 46.5831 200.933 46.1752 201.219 45.8389C201.512 45.4964 201.855 45.2348 202.247 45.0542C202.639 44.8737 203.066 44.7834 203.527 44.7834C203.639 44.7834 203.748 44.7896 203.854 44.802C203.959 44.8145 204.037 44.8363 204.087 44.8674V47.0439C204.019 47.0128 203.928 46.991 203.816 46.9785C203.71 46.9661 203.617 46.9598 203.536 46.9598C203.069 46.9225 202.655 46.9412 202.294 47.0159C201.939 47.0906 201.637 47.2183 201.387 47.3989C201.145 47.5732 200.961 47.7974 200.836 48.0714C200.712 48.3392 200.65 48.6537 200.65 49.0149V54.6289H198.38ZM209.254 54.8157C207.978 54.8157 206.975 54.3767 206.246 53.4986C205.518 52.6206 205.153 51.372 205.153 49.7528C205.153 48.744 205.3 47.869 205.592 47.128C205.891 46.3807 206.327 45.8047 206.9 45.3999C207.479 44.9889 208.196 44.7834 209.049 44.7834C209.447 44.7834 209.808 44.8332 210.132 44.9328C210.462 45.0262 210.755 45.1508 211.01 45.3065C211.266 45.4621 211.48 45.6334 211.655 45.8202C211.835 46.007 211.976 46.1939 212.075 46.3807V40.748H214.354V54.6289H212.673L212.421 52.6486C212.346 52.879 212.234 53.1219 212.085 53.3772C211.941 53.6263 211.745 53.8598 211.496 54.0778C211.253 54.2957 210.948 54.4732 210.581 54.6102C210.213 54.7472 209.771 54.8157 209.254 54.8157ZM209.721 53.1437C210.537 53.1437 211.132 52.879 211.505 52.3497C211.885 51.8141 212.075 50.9298 212.075 49.6968C212.069 48.9931 211.982 48.4015 211.814 47.922C211.652 47.4425 211.4 47.0813 211.057 46.8384C210.721 46.5955 210.285 46.4741 209.749 46.4741C209.064 46.4741 208.501 46.7263 208.059 47.2307C207.616 47.7352 207.395 48.5572 207.395 49.6968C207.395 50.8302 207.598 51.6896 208.002 52.2749C208.407 52.8541 208.98 53.1437 209.721 53.1437ZM220.568 54.8157C219.895 54.8157 219.257 54.7099 218.653 54.4981C218.055 54.2802 217.551 53.9408 217.14 53.4799C216.735 53.0191 216.48 52.4244 216.374 51.6958H218.373C218.46 52.0508 218.612 52.3403 218.83 52.5645C219.055 52.7887 219.319 52.9537 219.624 53.0596C219.93 53.1592 220.241 53.2091 220.559 53.2091C221.138 53.2091 221.605 53.1094 221.96 52.9101C222.321 52.7109 222.501 52.4026 222.501 51.9854C222.501 51.6802 222.402 51.4374 222.203 51.2568C222.003 51.0762 221.686 50.9392 221.25 50.8457L219.41 50.4254C218.594 50.2448 217.937 49.9459 217.439 49.5287C216.947 49.1114 216.698 48.5229 216.691 47.7632C216.685 47.1903 216.828 46.6796 217.121 46.2312C217.414 45.7829 217.85 45.431 218.429 45.1757C219.008 44.9141 219.724 44.7834 220.577 44.7834C221.704 44.7834 222.607 45.0356 223.286 45.54C223.965 46.0382 224.314 46.7512 224.332 47.6791H222.399C222.33 47.2619 222.134 46.938 221.81 46.7076C221.486 46.471 221.066 46.3527 220.549 46.3527C220.014 46.3527 219.575 46.4554 219.232 46.6609C218.89 46.8664 218.718 47.1809 218.718 47.6044C218.718 47.8971 218.849 48.1275 219.111 48.2956C219.372 48.4638 219.765 48.607 220.288 48.7253L222.025 49.1457C222.523 49.2702 222.931 49.4384 223.249 49.6501C223.566 49.8618 223.815 50.0953 223.996 50.3507C224.177 50.5998 224.301 50.8582 224.37 51.126C224.444 51.3875 224.482 51.6304 224.482 51.8546C224.482 52.4773 224.32 53.0098 223.996 53.4519C223.678 53.8878 223.227 54.2241 222.642 54.4608C222.056 54.6974 221.365 54.8157 220.568 54.8157Z" fill="#64748B"/>
<g clip-path="url(#clip0_2408_944)">
<path d="M144.931 83.7683L128.055 74.1232C127.843 74 127.577 74.0069 127.371 74.13C127.159 74.2531 127.029 74.472 127.029 74.7183C127.029 74.7183 127.036 75.6076 127.043 77.0714L139.335 89.3639L144.931 83.7683Z" fill="url(#paint0_linear_2408_944)"/>
<path d="M127.043 77.0713C127.063 82.3522 127.125 95.1713 127.152 101.554L139.342 89.3637L127.043 77.0713Z" fill="url(#paint1_linear_2408_944)"/>
<path d="M154.59 89.2889L144.931 83.7686L139.329 89.3641L145.649 95.6848L154.597 90.4723C154.809 90.3491 154.939 90.1234 154.939 89.884C154.939 89.6377 154.802 89.412 154.59 89.2889Z" fill="url(#paint2_linear_2408_944)"/>
<path d="M127.146 101.554C127.159 103.832 127.166 105.289 127.166 105.289C127.166 105.535 127.296 105.761 127.508 105.877C127.72 106 127.98 106 128.192 105.877L145.656 95.6917L139.335 89.3711L127.146 101.554Z" fill="url(#paint3_linear_2408_944)"/>
</g>
<defs>
<linearGradient id="paint0_linear_2408_944" x1="127.029" y1="81.7021" x2="144.934" y2="81.7021" gradientUnits="userSpaceOnUse">
<stop stop-color="#63BE6B"/>
<stop offset="0.506" stop-color="#5BBC6A"/>
<stop offset="1" stop-color="#4AB96A"/>
</linearGradient>
<linearGradient id="paint1_linear_2408_944" x1="127.04" y1="89.3154" x2="139.335" y2="89.3154" gradientUnits="userSpaceOnUse">
<stop stop-color="#3EC6F2"/>
<stop offset="1" stop-color="#45AFE3"/>
</linearGradient>
<linearGradient id="paint2_linear_2408_944" x1="139.335" y1="89.731" x2="154.937" y2="89.731" gradientUnits="userSpaceOnUse">
<stop stop-color="#FAA51A"/>
<stop offset="0.387" stop-color="#FAB716"/>
<stop offset="0.741" stop-color="#FAC412"/>
<stop offset="1" stop-color="#FAC80F"/>
</linearGradient>
<linearGradient id="paint3_linear_2408_944" x1="127.149" y1="97.6701" x2="145.656" y2="97.6701" gradientUnits="userSpaceOnUse">
<stop stop-color="#EC3B50"/>
<stop offset="1" stop-color="#E7515B"/>
</linearGradient>
<clipPath id="clip0_2408_944">
<rect width="27.968" height="32" fill="white" transform="translate(127 74)"/>
</clipPath>
</defs>
</svg>
