<svg width="136" height="40" viewBox="0 0 136 40" fill="none" xmlns="http://www.w3.org/2000/svg">
<g clip-path="url(#clip0_2396_1431)">
<path fill-rule="evenodd" clip-rule="evenodd" d="M130.5 40H5C2.2 40 0 37.7 0 35V5C0 2.2 2.3 0 5 0H130.5C133.3 0 135.5 2.2 135.5 5V35C135.6 37.7 133.3 40 130.5 40Z" fill="black"/>
<path d="M71.4 13.1998C70.5 13.1998 69.7 12.8998 69.1 12.2998C68.5 11.6998 68.2 10.8998 68.2 9.9998C68.2 9.0998 68.5 8.2998 69.1 7.6998C69.7 7.0998 70.5 6.7998 71.4 6.7998C72.3 6.7998 73.1 7.0998 73.7 7.6998C74.3 8.2998 74.6 9.0998 74.6 9.9998C74.6 10.8998 74.3 11.6998 73.7 12.2998C73.1 12.8998 72.3 13.1998 71.4 13.1998ZM44.5 13.1998C43.6 13.1998 42.8 12.8998 42.2 12.2998C41.6 11.6998 41.3 10.8998 41.3 9.9998C41.3 9.0998 41.6 8.2998 42.2 7.6998C42.8 7.0998 43.6 6.7998 44.5 6.7998C44.9 6.7998 45.4 6.8998 45.8 7.0998C46.2 7.2998 46.5 7.4998 46.8 7.7998L46.9 7.8998L46.2 8.5998L46 8.3998C45.6 7.8998 45.1 7.6998 44.4 7.6998C43.8 7.6998 43.3 7.8998 42.8 8.2998C42.4 8.6998 42.1 9.2998 42.1 9.9998C42.1 10.6998 42.3 11.1998 42.8 11.6998C43.2 12.0998 43.8 12.2998 44.4 12.2998C45 12.2998 45.6 12.0998 46 11.6998C46.2 11.4998 46.4 11.0998 46.5 10.6998H44.3V9.6998H47.4V10.2998C47.4 11.1998 47.1 11.8998 46.6 12.3998C46.2 12.8998 45.4 13.1998 44.5 13.1998ZM80.3 13.0998H79.3L76.4 8.3998V12.9998H75.4V6.8998H76.5L79.3 11.2998V6.8998H80.3V13.0998ZM64.2 13.0998H63.2V7.7998H61.5V6.8998H65.8V7.7998H64.1L64.2 13.0998ZM60.8 13.0998H59.8V6.8998H60.8V13.0998ZM55.4 13.0998H54.4V7.7998H52.7V6.8998H57V7.7998H55.3V13.0998H55.4ZM52.1 13.0998H48.4V6.8998H52.1V7.7998H49.4V9.4998H51.9V10.3998H49.4V12.0998H52.1V13.0998ZM69.8 11.6998C70.2 12.0998 70.8 12.2998 71.4 12.2998C72 12.2998 72.5 12.0998 73 11.6998C73.4 11.2998 73.6 10.6998 73.6 9.9998C73.6 9.2998 73.4 8.7998 73 8.2998C72.6 7.8998 72 7.6998 71.4 7.6998C70.8 7.6998 70.3 7.8998 69.8 8.2998C69.4 8.6998 69.2 9.2998 69.2 9.9998C69.2 10.6998 69.4 11.1998 69.8 11.6998Z" fill="white"/>
<path fill-rule="evenodd" clip-rule="evenodd" d="M68.1 21.7996C65.7 21.7996 63.8 23.5996 63.8 26.0996C63.8 28.4996 65.7 30.3996 68.1 30.3996C70.5 30.3996 72.4 28.5996 72.4 26.0996C72.4 23.4996 70.5 21.7996 68.1 21.7996ZM68.1 28.5996C66.8 28.5996 65.7 27.4996 65.7 25.9996C65.7 24.4996 66.8 23.3996 68.1 23.3996C69.4 23.3996 70.5 24.3996 70.5 25.9996C70.5 27.4996 69.4 28.5996 68.1 28.5996ZM58.8 21.7996C56.4 21.7996 54.5 23.5996 54.5 26.0996C54.5 28.4996 56.4 30.3996 58.8 30.3996C61.2 30.3996 63.1 28.5996 63.1 26.0996C63.1 23.4996 61.2 21.7996 58.8 21.7996ZM58.8 28.5996C57.5 28.5996 56.4 27.4996 56.4 25.9996C56.4 24.4996 57.5 23.3996 58.8 23.3996C60.1 23.3996 61.2 24.3996 61.2 25.9996C61.2 27.4996 60.1 28.5996 58.8 28.5996ZM47.7 23.0996V24.8996H52C51.9 25.8996 51.5 26.6996 51 27.1996C50.4 27.7996 49.4 28.4996 47.7 28.4996C45 28.4996 43 26.3996 43 23.6996C43 20.9996 45.1 18.8996 47.7 18.8996C49.1 18.8996 50.2 19.4996 51 20.1996L52.3 18.8996C51.2 17.8996 49.8 17.0996 47.8 17.0996C44.2 17.0996 41.1 20.0996 41.1 23.6996C41.1 27.2996 44.2 30.2996 47.8 30.2996C49.8 30.2996 51.2 29.6996 52.4 28.3996C53.6 27.1996 54 25.4996 54 24.1996C54 23.7996 54 23.3996 53.9 23.0996H47.7ZM93.1 24.4996C92.7 23.4996 91.7 21.7996 89.5 21.7996C87.3 21.7996 85.5 23.4996 85.5 26.0996C85.5 28.4996 87.3 30.3996 89.7 30.3996C91.6 30.3996 92.8 29.1996 93.2 28.4996L91.8 27.4996C91.3 28.1996 90.7 28.6996 89.7 28.6996C88.7 28.6996 88.1 28.2996 87.6 27.3996L93.3 24.9996C93.3 24.8996 93.1 24.4996 93.1 24.4996ZM87.3 25.8996C87.3 24.2996 88.6 23.3996 89.5 23.3996C90.2 23.3996 90.9 23.7996 91.1 24.2996L87.3 25.8996ZM82.6 29.9996H84.5V17.4996H82.6V29.9996ZM79.6 22.6996C79.1 22.1996 78.3 21.6996 77.3 21.6996C75.2 21.6996 73.2 23.5996 73.2 25.9996C73.2 28.3996 75.1 30.1996 77.3 30.1996C78.3 30.1996 79.1 29.6996 79.5 29.1996H79.6V29.7996C79.6 31.3996 78.7 32.2996 77.3 32.2996C76.2 32.2996 75.4 31.4996 75.2 30.7996L73.6 31.4996C74.1 32.5996 75.3 33.9996 77.4 33.9996C79.6 33.9996 81.4 32.6996 81.4 29.5996V21.9996H79.6V22.6996ZM77.4 28.5996C76.1 28.5996 75 27.4996 75 25.9996C75 24.4996 76.1 23.3996 77.4 23.3996C78.7 23.3996 79.7 24.4996 79.7 25.9996C79.7 27.4996 78.7 28.5996 77.4 28.5996ZM101.8 17.4996H97.3V29.9996H99.2V25.2996H101.8C103.9 25.2996 105.9 23.7996 105.9 21.3996C105.9 18.9996 103.9 17.4996 101.8 17.4996ZM101.9 23.4996H99.2V19.1996H101.9C103.3 19.1996 104.1 20.3996 104.1 21.2996C104 22.3996 103.2 23.4996 101.9 23.4996ZM113.4 21.6996C112 21.6996 110.6 22.2996 110.1 23.5996L111.8 24.2996C112.2 23.5996 112.8 23.3996 113.5 23.3996C114.5 23.3996 115.4 23.9996 115.5 24.9996V25.0996C115.2 24.8996 114.4 24.5996 113.6 24.5996C111.8 24.5996 110 25.5996 110 27.3996C110 29.0996 111.5 30.1996 113.1 30.1996C114.4 30.1996 115 29.5996 115.5 28.9996H115.6V29.9996H117.4V25.1996C117.2 22.9996 115.5 21.6996 113.4 21.6996ZM113.2 28.5996C112.6 28.5996 111.7 28.2996 111.7 27.4996C111.7 26.4996 112.8 26.1996 113.7 26.1996C114.5 26.1996 114.9 26.3996 115.4 26.5996C115.2 27.6996 114.3 28.5996 113.2 28.5996ZM123.7 21.9996L121.6 27.3996H121.5L119.3 21.9996H117.3L120.6 29.5996L118.7 33.7996H120.6L125.7 21.9996H123.7ZM106.9 29.9996H108.8V17.4996H106.9V29.9996Z" fill="white"/>
<path fill-rule="evenodd" clip-rule="evenodd" d="M10.4 7.5C10.1 7.8 10 8.3 10 8.9V31C10 31.6 10.2 32.1 10.5 32.4L10.6 32.5L23 20.1V19.8L10.4 7.5Z" fill="url(#paint0_linear_2396_1431)"/>
<path fill-rule="evenodd" clip-rule="evenodd" d="M27 24.2998L22.9 20.1998V19.8998L27 15.7998L27.1 15.8998L32 18.6998C33.4 19.4998 33.4 20.7998 32 21.5998L27 24.2998Z" fill="url(#paint1_linear_2396_1431)"/>
<path fill-rule="evenodd" clip-rule="evenodd" d="M27.1 24.2L22.9 20L10.4 32.5C10.9 33 11.6 33 12.5 32.6L27.1 24.2Z" fill="url(#paint2_linear_2396_1431)"/>
<path fill-rule="evenodd" clip-rule="evenodd" d="M27.1 15.7996L12.5 7.49962C11.6 6.99962 10.9 7.09962 10.4 7.59962L22.9 19.9996L27.1 15.7996Z" fill="url(#paint3_linear_2396_1431)"/>
<path opacity="0.2" fill-rule="evenodd" clip-rule="evenodd" d="M27 24.0996L12.5 32.2996C11.7 32.7996 11 32.6996 10.5 32.2996L10.4 32.3996L10.5 32.4996C11 32.8996 11.7 32.9996 12.5 32.4996L27 24.0996Z" fill="black"/>
<path opacity="0.12" fill-rule="evenodd" clip-rule="evenodd" d="M32 21.3L27 24.1L27.1 24.2L32 21.4C32.7 21 33 20.5 33 20C33 20.5 32.6 20.9 32 21.3Z" fill="black"/>
<path opacity="0.25" fill-rule="evenodd" clip-rule="evenodd" d="M12.5 7.60027L32 18.7003C32.6 19.1003 33 19.5003 33 20.0003C33 19.5003 32.7 19.0003 32 18.6003L12.5 7.50027C11.1 6.70027 10 7.30027 10 8.90027V9.00027C10 7.50027 11.1 6.80027 12.5 7.60027Z" fill="white"/>
</g>
<defs>
<linearGradient id="paint0_linear_2396_1431" x1="21.7992" y1="8.7114" x2="1.9537" y2="13.9968" gradientUnits="userSpaceOnUse">
<stop stop-color="#00A0FF"/>
<stop offset="0.007" stop-color="#00A1FF"/>
<stop offset="0.26" stop-color="#00BEFF"/>
<stop offset="0.512" stop-color="#00D2FF"/>
<stop offset="0.76" stop-color="#00DFFF"/>
<stop offset="1" stop-color="#00E3FF"/>
</linearGradient>
<linearGradient id="paint1_linear_2396_1431" x1="33.8348" y1="19.9965" x2="9.63717" y2="19.9965" gradientUnits="userSpaceOnUse">
<stop stop-color="#FFE000"/>
<stop offset="0.409" stop-color="#FFBD00"/>
<stop offset="0.775" stop-color="#FFA500"/>
<stop offset="1" stop-color="#FF9C00"/>
</linearGradient>
<linearGradient id="paint2_linear_2396_1431" x1="24.8293" y1="22.295" x2="8.88796" y2="49.1153" gradientUnits="userSpaceOnUse">
<stop stop-color="#FF3A44"/>
<stop offset="1" stop-color="#C31162"/>
</linearGradient>
<linearGradient id="paint3_linear_2396_1431" x1="7.30095" y1="0.175078" x2="14.4015" y2="12.1458" gradientUnits="userSpaceOnUse">
<stop stop-color="#32A071"/>
<stop offset="0.069" stop-color="#2DA771"/>
<stop offset="0.476" stop-color="#15CF74"/>
<stop offset="0.801" stop-color="#06E775"/>
<stop offset="1" stop-color="#00F076"/>
</linearGradient>
<clipPath id="clip0_2396_1431">
<rect width="135.6" height="40" fill="white"/>
</clipPath>
</defs>
</svg>
