<svg width="160" height="160" viewBox="0 0 160 160" fill="none" xmlns="http://www.w3.org/2000/svg">
<path d="M52.7424 93.1388C51.1053 93.1388 49.7767 92.8114 48.7567 92.1566C47.7367 91.4955 47.1511 90.4786 47 89.106L49.8712 89.0493C50.0223 89.6726 50.3466 90.148 50.844 90.4754C51.3477 90.7966 51.9773 90.9571 52.7329 90.9571C53.1863 90.9571 53.5861 90.8847 53.9324 90.7399C54.285 90.5888 54.562 90.3873 54.7635 90.1354C54.965 89.8773 55.0658 89.5845 55.0658 89.2571C55.0658 88.7534 54.9052 88.3787 54.5841 88.1332C54.263 87.8813 53.7687 87.6798 53.1013 87.5287L50.8629 87.047C49.824 86.8392 48.9897 86.4268 48.36 85.8098C47.7367 85.1864 47.4187 84.3521 47.4061 83.3069C47.3998 82.4506 47.6296 81.7108 48.0956 81.0874C48.5678 80.4578 49.2069 79.973 50.0129 79.6329C50.8251 79.2929 51.7349 79.1229 52.7424 79.1229C53.775 79.1229 54.6659 79.3087 55.4152 79.6802C56.1708 80.0454 56.7501 80.5396 57.153 81.163C57.5623 81.78 57.7606 82.4632 57.748 83.2125L54.9619 83.2597C54.8737 82.6552 54.6722 82.1799 54.3574 81.8336C54.0426 81.4873 53.52 81.3141 52.7896 81.3141C52.4118 81.3141 52.0749 81.355 51.779 81.4369C51.4831 81.5187 51.2281 81.6352 51.014 81.7863C50.7999 81.9312 50.6362 82.1043 50.5229 82.3058C50.4158 82.5073 50.3623 82.734 50.3623 82.9858C50.3623 83.3825 50.4945 83.6973 50.759 83.9303C51.0297 84.1569 51.5366 84.3679 52.2796 84.5631L54.4802 85.1014C55.7206 85.3973 56.6147 85.9042 57.1625 86.622C57.7166 87.3398 57.9936 88.2119 57.9936 89.2382C57.9936 90.0252 57.7764 90.7116 57.3419 91.2971C56.9138 91.8827 56.3062 92.336 55.5191 92.6572C54.732 92.9783 53.8065 93.1388 52.7424 93.1388ZM51.5618 77.3379H53.9513V79.7935H51.5618V77.3379ZM51.5146 92.2983H53.8946V94.7539H51.5146V92.2983Z" fill="#8B3DFF"/>
<path d="M59.9895 92.9499V90.891C59.9895 90.1984 60.1186 89.6002 60.3768 89.0965C60.6349 88.5865 60.9749 88.1458 61.3968 87.7743C61.8249 87.3965 62.2909 87.0659 62.7946 86.7826C63.3046 86.4992 63.8146 86.2316 64.3246 85.9798C64.8346 85.7279 65.3006 85.4761 65.7224 85.2242C66.1506 84.966 66.4938 84.6796 66.7519 84.3647C67.0101 84.0499 67.1392 83.6784 67.1392 83.2503C67.1392 82.7025 66.9471 82.2554 66.563 81.9091C66.1852 81.5628 65.6658 81.3897 65.0047 81.3897C64.3183 81.3897 63.7359 81.588 63.2574 81.9847C62.7789 82.3813 62.4829 82.9795 62.3696 83.7792H59.7345C59.7471 82.9103 59.9486 82.1232 60.339 81.418C60.7357 80.7065 61.3275 80.143 62.1146 79.7274C62.9016 79.3118 63.8902 79.104 65.0802 79.104C66.1002 79.104 66.9786 79.2772 67.7153 79.6235C68.4583 79.9698 69.0312 80.4515 69.4342 81.0685C69.8372 81.6856 70.0387 82.4065 70.0387 83.2314C70.0387 83.9177 69.9127 84.5095 69.6609 85.007C69.409 85.5044 69.0753 85.9294 68.6597 86.282C68.2442 86.6346 67.7877 86.9431 67.2903 87.2076C66.7928 87.472 66.2954 87.7176 65.798 87.9443C65.3069 88.1709 64.8535 88.4039 64.438 88.6432C64.0224 88.8761 63.6887 89.1406 63.4368 89.4365C63.185 89.7325 63.059 90.0882 63.059 90.5038V90.6266H70.0198V92.9499H59.9895Z" fill="#8B3DFF"/>
<path d="M71.8476 92.9499V89.9465H74.8699V92.9499H71.8476Z" fill="#8B3DFF"/>
<path d="M82.9848 79.2929H85.6954V87.6137H87.8016V89.9276H85.6954V92.9499H83.0415L83.0509 89.9276H76.7608V87.6609L82.9848 79.2929ZM79.3108 87.6137H83.0509V82.608L79.3108 87.6137Z" fill="#8B3DFF"/>
<path d="M89.2608 83.4958C89.2608 82.5136 89.4906 81.6982 89.9503 81.0496C90.4162 80.4011 91.0427 79.9163 91.8298 79.5952C92.6168 79.2678 93.492 79.104 94.4554 79.104C95.4754 79.104 96.3821 79.2363 97.1754 79.5007C97.9751 79.7652 98.6047 80.1681 99.0644 80.7096C99.524 81.2511 99.7538 81.9374 99.7538 82.7686C99.7538 83.4423 99.5586 84.0373 99.1683 84.5536C98.7779 85.0636 98.1419 85.4698 97.2604 85.772C97.7642 85.9105 98.2301 86.1214 98.6582 86.4048C99.0864 86.6881 99.4296 87.0502 99.6877 87.4909C99.9459 87.9317 100.075 88.4606 100.075 89.0776C100.075 89.745 99.927 90.3338 99.6311 90.8438C99.3351 91.3538 98.9258 91.7819 98.4032 92.1283C97.8806 92.4746 97.2762 92.7327 96.5899 92.9027C95.9036 93.0727 95.17 93.1577 94.3893 93.1577C93.2937 93.1514 92.3587 92.972 91.5842 92.6194C90.816 92.2605 90.2242 91.7505 89.8086 91.0893C89.3993 90.4282 89.1884 89.6412 89.1758 88.7282H91.8298C91.962 89.5026 92.2642 90.063 92.7364 90.4093C93.2087 90.7556 93.7691 90.9288 94.4176 90.9288C94.9843 90.9288 95.4691 90.8469 95.8721 90.6832C96.2813 90.5195 96.593 90.2928 96.8071 90.0032C97.0275 89.7073 97.1377 89.3704 97.1377 88.9926C97.1377 88.6022 97.0243 88.2654 96.7976 87.982C96.5773 87.6987 96.2687 87.4783 95.8721 87.3209C95.4754 87.1572 95.022 87.0691 94.512 87.0565L93.2087 87.0092V84.8181L94.3798 84.752C94.8709 84.7331 95.2991 84.6418 95.6643 84.4781C96.0295 84.3144 96.3128 84.0971 96.5143 83.8264C96.7221 83.5493 96.826 83.2377 96.826 82.8914C96.826 82.5576 96.7221 82.268 96.5143 82.0225C96.3065 81.7769 96.02 81.5848 95.6548 81.4463C95.2896 81.3078 94.8709 81.2385 94.3987 81.2385C93.9642 81.2385 93.5644 81.311 93.1992 81.4558C92.834 81.6006 92.535 81.8399 92.302 82.1736C92.069 82.501 91.9336 82.9417 91.8959 83.4958H89.2608Z" fill="#8B3DFF"/>
<path d="M106.953 79.104C108.577 79.104 109.859 79.7117 110.797 80.9269C111.735 82.1358 112.204 83.8768 112.204 86.1498C112.204 88.4102 111.741 90.1449 110.816 91.3538C109.89 92.5564 108.602 93.1577 106.953 93.1577C105.297 93.1577 104.003 92.5564 103.071 91.3538C102.145 90.1512 101.683 88.4196 101.683 86.1592C101.683 84.6481 101.897 83.3667 102.325 82.3152C102.753 81.2637 103.361 80.4672 104.148 79.9257C104.935 79.3779 105.87 79.104 106.953 79.104ZM106.953 90.9004C107.765 90.9004 108.36 90.5384 108.738 89.8143C109.116 89.0839 109.304 87.8656 109.304 86.1592C109.304 84.4151 109.112 83.1653 108.728 82.4097C108.344 81.6541 107.749 81.2763 106.943 81.2763C106.137 81.2763 105.536 81.6573 105.139 82.4191C104.749 83.181 104.554 84.4277 104.554 86.1592C104.554 87.8593 104.749 89.0745 105.139 89.8049C105.53 90.5353 106.134 90.9004 106.953 90.9004Z" fill="#8B3DFF"/>
<path d="M52.9937 103.335V102.599H57.191V103.335H55.54V108.061H54.724V103.335H52.9937Z" fill="#0F172A"/>
<path d="M58.9539 108.137C58.5887 108.137 58.2688 108.059 57.9943 107.903C57.7223 107.744 57.5107 107.515 57.3596 107.215C57.211 106.915 57.1367 106.553 57.1367 106.127C57.1367 105.717 57.2072 105.358 57.3483 105.05C57.4918 104.743 57.6996 104.505 57.9716 104.336C58.2436 104.165 58.5723 104.08 58.9576 104.08C59.3254 104.08 59.644 104.16 59.9134 104.321C60.1829 104.48 60.392 104.713 60.5406 105.02C60.6892 105.325 60.7635 105.694 60.7635 106.127C60.7635 106.523 60.6929 106.871 60.5519 107.174C60.4134 107.476 60.2094 107.713 59.9399 107.884C59.6729 108.053 59.3442 108.137 58.9539 108.137ZM58.9576 107.514C59.1793 107.514 59.3644 107.456 59.513 107.34C59.6641 107.221 59.7774 107.057 59.853 106.845C59.9286 106.631 59.9663 106.384 59.9663 106.104C59.9663 105.845 59.9323 105.61 59.8643 105.398C59.7988 105.184 59.6918 105.014 59.5432 104.888C59.3946 104.762 59.1994 104.699 58.9576 104.699C58.731 104.699 58.5421 104.757 58.391 104.873C58.2398 104.986 58.1252 105.149 58.0472 105.36C57.9716 105.569 57.9338 105.817 57.9338 106.104C57.9338 106.359 57.9678 106.593 58.0358 106.807C58.1038 107.021 58.2134 107.193 58.3645 107.321C58.5156 107.449 58.7133 107.514 58.9576 107.514Z" fill="#0F172A"/>
<path d="M63.6004 104.737H62.7239L62.7277 107.068C62.7277 107.196 62.7403 107.291 62.7655 107.351C62.7932 107.409 62.8385 107.447 62.9015 107.465C62.967 107.48 63.0551 107.487 63.166 107.487H63.6231V108.012C63.5727 108.032 63.4971 108.05 63.3964 108.065C63.2982 108.08 63.171 108.088 63.0148 108.088C62.7252 108.088 62.4998 108.049 62.3386 107.971C62.1799 107.893 62.0691 107.781 62.0061 107.635C61.9457 107.486 61.9155 107.307 61.9155 107.098V104.737H61.2808V104.155H61.9381L62.1384 103.007H62.7239V104.151H63.6004V104.737Z" fill="#0F172A"/>
<path d="M65.6274 108.137C65.3756 108.137 65.1514 108.092 64.955 108.001C64.761 107.91 64.6086 107.779 64.4978 107.608C64.387 107.437 64.3316 107.23 64.3316 106.989C64.3316 106.555 64.4852 106.232 64.7925 106.018C65.0998 105.804 65.5896 105.69 66.2621 105.678L66.9043 105.659V105.375C66.9043 105.151 66.8376 104.975 66.7041 104.846C66.5706 104.718 66.3654 104.655 66.0883 104.658C65.8793 104.658 65.6929 104.705 65.5292 104.801C65.368 104.897 65.2622 105.054 65.2118 105.273H64.5092C64.5243 105.014 64.5986 104.796 64.7321 104.62C64.8681 104.441 65.0544 104.306 65.2912 104.216C65.5279 104.125 65.8062 104.08 66.1261 104.08C66.4812 104.08 66.7734 104.129 67.0026 104.227C67.2317 104.323 67.4018 104.464 67.5126 104.65C67.6259 104.836 67.6826 105.063 67.6826 105.33V108.061H66.9988L66.9346 107.344C66.7885 107.643 66.6034 107.851 66.3792 107.967C66.1576 108.08 65.907 108.137 65.6274 108.137ZM65.8805 107.574C66.0039 107.574 66.1261 107.553 66.247 107.51C66.3679 107.465 66.4774 107.404 66.5757 107.329C66.6739 107.25 66.752 107.164 66.8099 107.068C66.8703 106.972 66.9018 106.874 66.9043 106.773V106.127L66.3754 106.138C66.1059 106.141 65.8767 106.169 65.6879 106.222C65.5015 106.274 65.3579 106.356 65.2572 106.467C65.159 106.578 65.1098 106.725 65.1098 106.909C65.1098 107.118 65.1829 107.282 65.329 107.4C65.475 107.516 65.6589 107.574 65.8805 107.574Z" fill="#0F172A"/>
<path d="M69.8766 108.114C69.6449 108.114 69.4585 108.084 69.3175 108.024C69.179 107.963 69.0732 107.883 69.0002 107.782C68.9271 107.679 68.878 107.563 68.8528 107.434C68.8302 107.303 68.8188 107.169 68.8188 107.03V102.448H69.616V106.947C69.616 107.128 69.6512 107.267 69.7217 107.363C69.7948 107.458 69.9056 107.512 70.0542 107.525L70.2582 107.533V108.046C70.1952 108.066 70.1297 108.083 70.0617 108.095C69.9963 108.108 69.9346 108.114 69.8766 108.114Z" fill="#0F172A"/>
<path d="M72.969 108.061V102.599H76.4975L76.4937 103.301H73.7812V104.96H76.2029V105.651H73.7775V107.347L76.5617 107.351V108.061H72.969Z" fill="#0F172A"/>
<path d="M81.0326 108.061H80.1674L79.087 106.599L78.0103 108.061H77.1376L78.6412 106.029L77.2623 104.155H78.1312L79.087 105.451L80.0465 104.155H80.9192L79.529 106.029L81.0326 108.061Z" fill="#0F172A"/>
<path d="M81.7831 109.278V104.155H82.5916L82.5991 104.805C82.647 104.719 82.7087 104.635 82.7843 104.552C82.8598 104.466 82.9492 104.388 83.0525 104.318C83.1583 104.245 83.2779 104.187 83.4114 104.144C83.5474 104.101 83.6972 104.08 83.861 104.08C84.1682 104.08 84.439 104.151 84.6732 104.295C84.9099 104.436 85.0938 104.654 85.2248 104.948C85.3582 105.241 85.425 105.612 85.425 106.063C85.425 106.516 85.3582 106.897 85.2248 107.204C85.0938 107.511 84.9062 107.744 84.6619 107.903C84.4176 108.059 84.1279 108.137 83.7929 108.137C83.6318 108.137 83.4869 108.114 83.3585 108.069C83.23 108.024 83.1167 107.964 83.0185 107.891C82.9203 107.816 82.8359 107.735 82.7654 107.65C82.6974 107.561 82.6407 107.475 82.5954 107.389V109.278H81.7831ZM83.6229 107.521C83.9227 107.521 84.1682 107.405 84.3596 107.174C84.5536 106.939 84.6505 106.574 84.6505 106.078C84.6505 105.652 84.5611 105.316 84.3823 105.069C84.206 104.82 83.9529 104.695 83.6229 104.695C83.2829 104.695 83.026 104.825 82.8523 105.084C82.6785 105.341 82.5916 105.673 82.5916 106.078C82.5916 106.342 82.6294 106.584 82.7049 106.803C82.783 107.02 82.8989 107.194 83.0525 107.325C83.2061 107.456 83.3963 107.521 83.6229 107.521Z" fill="#0F172A"/>
<path d="M86.9035 106.297C86.9035 106.531 86.9413 106.742 87.0168 106.928C87.0949 107.112 87.212 107.258 87.3682 107.366C87.5243 107.472 87.7183 107.525 87.95 107.525C88.1817 107.525 88.3819 107.472 88.5506 107.366C88.7219 107.261 88.834 107.103 88.8869 106.894H89.6349C89.5896 107.161 89.4825 107.388 89.3138 107.574C89.1475 107.76 88.9461 107.901 88.7093 107.997C88.4726 108.09 88.2245 108.137 87.9651 108.137C87.5948 108.137 87.2687 108.058 86.9866 107.899C86.7045 107.738 86.4841 107.509 86.3255 107.211C86.1693 106.914 86.0912 106.56 86.0912 106.15C86.0912 105.744 86.163 105.387 86.3066 105.077C86.4501 104.765 86.6579 104.52 86.9299 104.344C87.2019 104.168 87.5294 104.08 87.9122 104.08C88.29 104.08 88.6073 104.16 88.8642 104.321C89.1236 104.483 89.3201 104.709 89.4536 105.001C89.587 105.291 89.6538 105.634 89.6538 106.029V106.297H86.9035ZM86.9035 105.772H88.8831C88.8831 105.568 88.8478 105.383 88.7773 105.217C88.7068 105.048 88.5985 104.916 88.4524 104.82C88.3089 104.722 88.1275 104.673 87.9084 104.673C87.6842 104.673 87.4979 104.727 87.3493 104.835C87.2007 104.943 87.0886 105.082 87.0131 105.251C86.94 105.419 86.9035 105.593 86.9035 105.772Z" fill="#0F172A"/>
<path d="M90.5563 108.061V104.155H91.3459V104.718C91.4089 104.612 91.4933 104.513 91.599 104.42C91.7073 104.326 91.8396 104.251 91.9957 104.193C92.1544 104.135 92.337 104.106 92.5435 104.106C92.7878 104.106 93.0132 104.155 93.2197 104.253C93.4288 104.349 93.5963 104.5 93.7222 104.707C93.8481 104.911 93.9111 105.175 93.9111 105.5V108.061H93.1026V105.587C93.1026 105.307 93.0271 105.1 92.876 104.964C92.7274 104.828 92.5347 104.76 92.2979 104.76C92.1393 104.76 91.9882 104.786 91.8446 104.839C91.701 104.892 91.5852 104.972 91.497 105.081C91.4089 105.186 91.3648 105.32 91.3648 105.481V108.061H90.5563Z" fill="#0F172A"/>
<path d="M96.3194 108.137C96.0474 108.137 95.7918 108.094 95.5525 108.009C95.3158 107.923 95.1168 107.788 94.9556 107.604C94.7969 107.42 94.6975 107.185 94.6572 106.898H95.3787C95.4115 107.046 95.4732 107.17 95.5638 107.268C95.657 107.364 95.7679 107.436 95.8963 107.483C96.0273 107.529 96.167 107.551 96.3156 107.551C96.5625 107.551 96.7614 107.507 96.9125 107.419C97.0662 107.329 97.143 107.19 97.143 107.004C97.143 106.87 97.1014 106.763 97.0183 106.683C96.9377 106.602 96.8093 106.543 96.633 106.505L95.8547 106.32C95.5324 106.244 95.2742 106.125 95.0803 105.961C94.8863 105.795 94.7881 105.563 94.7856 105.266C94.7856 105.037 94.8423 104.833 94.9556 104.654C95.0715 104.475 95.2427 104.335 95.4694 104.234C95.6961 104.131 95.9782 104.08 96.3156 104.08C96.7564 104.08 97.1103 104.178 97.3772 104.374C97.6442 104.571 97.7827 104.855 97.7928 105.228H97.0939C97.0687 105.049 96.9868 104.909 96.8483 104.809C96.7123 104.705 96.5322 104.654 96.3081 104.654C96.0764 104.654 95.8862 104.7 95.7376 104.794C95.589 104.884 95.5147 105.024 95.5147 105.213C95.5147 105.341 95.5689 105.443 95.6772 105.519C95.7855 105.592 95.9479 105.652 96.1645 105.7L96.905 105.885C97.0964 105.936 97.2538 106.002 97.3772 106.086C97.5006 106.166 97.5976 106.256 97.6681 106.354C97.7386 106.452 97.7878 106.554 97.8155 106.66C97.8457 106.766 97.8608 106.865 97.8608 106.958C97.8608 107.205 97.7978 107.417 97.6719 107.593C97.5485 107.767 97.3709 107.901 97.1392 107.997C96.91 108.09 96.6368 108.137 96.3194 108.137Z" fill="#0F172A"/>
<path d="M99.3882 106.297C99.3882 106.531 99.426 106.742 99.5015 106.928C99.5796 107.112 99.6967 107.258 99.8529 107.366C100.009 107.472 100.203 107.525 100.435 107.525C100.666 107.525 100.867 107.472 101.035 107.366C101.207 107.261 101.319 107.103 101.372 106.894H102.12C102.074 107.161 101.967 107.388 101.798 107.574C101.632 107.76 101.431 107.901 101.194 107.997C100.957 108.09 100.709 108.137 100.45 108.137C100.08 108.137 99.7534 108.058 99.4713 107.899C99.1892 107.738 98.9688 107.509 98.8102 107.211C98.654 106.914 98.5759 106.56 98.5759 106.15C98.5759 105.744 98.6477 105.387 98.7913 105.077C98.9348 104.765 99.1426 104.52 99.4146 104.344C99.6866 104.168 100.014 104.08 100.397 104.08C100.775 104.08 101.092 104.16 101.349 104.321C101.608 104.483 101.805 104.709 101.938 105.001C102.072 105.291 102.138 105.634 102.138 106.029V106.297H99.3882ZM99.3882 105.772H101.368C101.368 105.568 101.333 105.383 101.262 105.217C101.191 105.048 101.083 104.916 100.937 104.82C100.794 104.722 100.612 104.673 100.393 104.673C100.169 104.673 99.9826 104.727 99.834 104.835C99.6854 104.943 99.5733 105.082 99.4977 105.251C99.4247 105.419 99.3882 105.593 99.3882 105.772Z" fill="#0F172A"/>
<path d="M104.451 108.137C104.179 108.137 103.923 108.094 103.684 108.009C103.447 107.923 103.248 107.788 103.087 107.604C102.928 107.42 102.829 107.185 102.788 106.898H103.51C103.543 107.046 103.604 107.17 103.695 107.268C103.788 107.364 103.899 107.436 104.028 107.483C104.159 107.529 104.298 107.551 104.447 107.551C104.694 107.551 104.893 107.507 105.044 107.419C105.197 107.329 105.274 107.19 105.274 107.004C105.274 106.87 105.233 106.763 105.15 106.683C105.069 106.602 104.941 106.543 104.764 106.505L103.986 106.32C103.664 106.244 103.405 106.125 103.212 105.961C103.018 105.795 102.919 105.563 102.917 105.266C102.917 105.037 102.974 104.833 103.087 104.654C103.203 104.475 103.374 104.335 103.601 104.234C103.827 104.131 104.109 104.08 104.447 104.08C104.888 104.08 105.242 104.178 105.509 104.374C105.775 104.571 105.914 104.855 105.924 105.228H105.225C105.2 105.049 105.118 104.909 104.98 104.809C104.844 104.705 104.664 104.654 104.439 104.654C104.208 104.654 104.018 104.7 103.869 104.794C103.72 104.884 103.646 105.024 103.646 105.213C103.646 105.341 103.7 105.443 103.808 105.519C103.917 105.592 104.079 105.652 104.296 105.7L105.036 105.885C105.228 105.936 105.385 106.002 105.509 106.086C105.632 106.166 105.729 106.256 105.799 106.354C105.87 106.452 105.919 106.554 105.947 106.66C105.977 106.766 105.992 106.865 105.992 106.958C105.992 107.205 105.929 107.417 105.803 107.593C105.68 107.767 105.502 107.901 105.27 107.997C105.041 108.09 104.768 108.137 104.451 108.137Z" fill="#0F172A"/>
<path d="M133.965 139.592C137.911 142.926 143.865 142.456 146.716 138.148C153.491 127.909 157.843 116.21 159.38 103.944C161.305 88.5733 158.727 72.9741 151.957 59.0406C145.188 45.107 134.519 33.4385 121.245 25.452C107.972 17.4654 92.6651 13.5043 77.1838 14.0496C61.7024 14.5949 46.7124 19.6232 34.0339 28.5239C21.3553 37.4247 11.5336 49.8149 5.76136 64.1902C-0.0108924 78.5656 -1.48539 94.3075 1.5169 109.505C3.91265 121.632 9.07679 132.995 16.5559 142.732C19.7028 146.829 25.6752 146.88 29.377 143.277C33.0788 139.673 33.0896 133.785 30.0909 129.578C25.061 122.522 21.5631 114.449 19.87 105.879C17.5698 94.2356 18.6994 82.1749 23.1219 71.1612C27.5443 60.1475 35.0692 50.6547 44.7829 43.8353C54.4966 37.016 65.9813 33.1636 77.8423 32.7458C89.7034 32.328 101.431 35.3628 111.6 41.4817C121.77 47.6007 129.944 56.5405 135.13 67.2157C140.317 77.8909 142.292 89.8423 140.817 101.619C139.731 110.287 136.81 118.586 132.289 125.978C129.593 130.386 130.019 136.258 133.965 139.592Z" fill="#8B3DFF"/>
<path d="M129.954 143.954C133.607 147.607 139.58 147.637 142.782 143.583C150.45 133.874 155.789 122.482 158.325 110.286C160.861 98.0893 160.505 85.5134 157.343 73.5521C156.022 68.5577 150.533 66.2043 145.727 68.0984C140.92 69.9925 138.636 75.4197 139.778 80.4581C141.708 88.9795 141.802 97.8523 140.009 106.477C138.215 115.102 134.592 123.202 129.425 130.248C126.37 134.413 126.301 140.301 129.954 143.954Z" fill="#E2E8F0"/>
<path d="M157.082 72.5891C152.893 57.5099 144.374 43.9903 132.578 33.7046L120.283 47.8045C129.32 55.6849 135.847 66.043 139.056 77.596L157.082 72.5891Z" fill="#EED8FF"/>
<path d="M134.451 35.3905C133.849 34.8315 133.239 34.2817 132.62 33.7415L120.315 47.8328C120.789 48.2467 121.257 48.6679 121.718 49.0962L134.451 35.3905Z" fill="white"/>
</svg>
