<svg width="154" height="157" viewBox="0 0 154 157" fill="none" xmlns="http://www.w3.org/2000/svg">
<ellipse cx="79.4056" cy="82.9857" rx="73.9848" ry="73.4329" fill="#8B3DFF" fill-opacity="0.1"/>
<path d="M132.031 96.6338H110.873C109.47 96.6338 108.125 97.1869 107.133 98.1715C106.141 99.156 105.583 100.491 105.583 101.884V140.384C105.583 141.776 106.141 143.112 107.133 144.096C108.125 145.081 109.47 145.634 110.873 145.634H132.031C133.434 145.634 134.779 145.081 135.771 144.096C136.763 143.112 137.32 141.776 137.32 140.384V101.884C137.32 100.491 136.763 99.156 135.771 98.1715C134.779 97.1869 133.434 96.6338 132.031 96.6338ZM133.794 140.384C133.794 140.848 133.608 141.293 133.278 141.621C132.947 141.949 132.498 142.134 132.031 142.134H110.873C110.405 142.134 109.957 141.949 109.626 141.621C109.296 141.293 109.11 140.848 109.11 140.384V101.884C109.11 101.42 109.296 100.975 109.626 100.646C109.957 100.318 110.405 100.134 110.873 100.134H132.031C132.498 100.134 132.947 100.318 133.278 100.646C133.608 100.975 133.794 101.42 133.794 101.884V140.384ZM124.097 106.259C124.097 106.778 123.941 107.285 123.651 107.717C123.36 108.149 122.947 108.485 122.464 108.684C121.981 108.883 121.449 108.935 120.936 108.833C120.423 108.732 119.952 108.482 119.582 108.115C119.212 107.748 118.96 107.28 118.858 106.771C118.756 106.262 118.808 105.734 119.008 105.254C119.209 104.775 119.548 104.365 119.983 104.076C120.417 103.788 120.929 103.634 121.452 103.634C122.153 103.634 122.826 103.91 123.322 104.403C123.818 104.895 124.097 105.563 124.097 106.259Z" fill="#8B3DFF"/>
<path d="M5.89893 22.7499H11.1884V36.7499H7.66208C7.19446 36.7499 6.746 36.9343 6.41534 37.2625C6.08469 37.5906 5.89893 38.0358 5.89893 38.4999C5.89893 38.964 6.08469 39.4091 6.41534 39.7373C6.746 40.0655 7.19446 40.2499 7.66208 40.2499H49.9777C50.4454 40.2499 50.8938 40.0655 51.2245 39.7373C51.5551 39.4091 51.7409 38.964 51.7409 38.4999C51.7409 38.0358 51.5551 37.5906 51.2245 37.2625C50.8938 36.9343 50.4454 36.7499 49.9777 36.7499H46.4514V22.7499H51.7409C52.1245 22.7495 52.4976 22.6249 52.8034 22.3951C53.1093 22.1653 53.3312 21.8427 53.4357 21.4763C53.5401 21.1099 53.5213 20.7197 53.3821 20.3649C53.2429 20.0101 52.9909 19.71 52.6643 19.5102L29.7434 5.5102C29.4656 5.34071 29.146 5.25098 28.8199 5.25098C28.4939 5.25098 28.1742 5.34071 27.8965 5.5102L4.97547 19.5102C4.64891 19.71 4.39692 20.0101 4.25772 20.3649C4.11852 20.7197 4.09971 21.1099 4.20414 21.4763C4.30858 21.8427 4.53056 22.1653 4.83641 22.3951C5.14226 22.6249 5.5153 22.7495 5.89893 22.7499ZM14.7147 22.7499H21.7673V36.7499H14.7147V22.7499ZM32.3462 22.7499V36.7499H25.2936V22.7499H32.3462ZM42.9251 36.7499H35.8725V22.7499H42.9251V36.7499ZM28.8199 9.05395L45.5126 19.2499H12.1273L28.8199 9.05395ZM55.2672 45.4999C55.2672 45.964 55.0814 46.4091 54.7508 46.7373C54.4201 47.0655 53.9717 47.2499 53.504 47.2499H4.13577C3.66816 47.2499 3.21969 47.0655 2.88904 46.7373C2.55838 46.4091 2.37262 45.964 2.37262 45.4999C2.37262 45.0358 2.55838 44.5906 2.88904 44.2625C3.21969 43.9343 3.66816 43.7499 4.13577 43.7499H53.504C53.9717 43.7499 54.4201 43.9343 54.7508 44.2625C55.0814 44.5906 55.2672 45.0358 55.2672 45.4999Z" fill="#8B3DFF"/>
<path d="M153.39 82.9857C153.39 73.3423 151.477 63.7934 147.759 54.8841C144.041 45.9748 138.591 37.8796 131.721 31.0607C124.851 24.2419 116.695 18.8328 107.718 15.1425C98.7421 11.4521 89.1215 9.55273 79.4056 9.55273V13.9587C88.5385 13.9587 97.5819 15.7441 106.02 19.2131C114.457 22.682 122.124 27.7665 128.582 34.1762C135.04 40.586 140.163 48.1955 143.658 56.5702C147.153 64.9449 148.951 73.9209 148.951 82.9857H153.39Z" fill="#8B3DFF"/>
<path d="M5.42078 82.9857C5.42078 92.629 7.33445 102.178 11.0525 111.087C14.7706 119.997 20.2203 128.092 27.0904 134.911C33.9606 141.729 42.1166 147.138 51.0928 150.829C60.0691 154.519 69.6898 156.419 79.4056 156.419V152.013C70.2728 152.013 61.2293 150.227 52.7916 146.758C44.3539 143.289 36.6873 138.205 30.2294 131.795C23.7714 125.385 18.6487 117.776 15.1537 109.401C11.6587 101.026 9.85987 92.0504 9.85987 82.9857H5.42078Z" fill="#8B3DFF"/>
</svg>
